<?xml version="1.0" encoding="utf-8"?>
<svg version="1.1" id="Layer_1" xmlns="http://www.w3.org/2000/svg" xmlns:xlink="http://www.w3.org/1999/xlink" x="0px" y="0px"
	 viewBox="0 0 300 300" style="enable-background:new 0 0 300 300;" xml:space="preserve">
<style type="text/css">
	.st0{fill:#9999CC;stroke:url(#SVGID_1_);stroke-width:18;stroke-linecap:round;stroke-linejoin:round;}
	.st1{fill:url(#SVGID_00000075154775638585648790000009720706183842278589_);}
	a{
		var(--dark)
	}
</style>
<linearGradient id="SVGID_1_" gradientUnits="userSpaceOnUse" x1="194.6201" y1="277.8088" x2="105.3546" y2="22.1994">
	<stop  offset="0" style="stop-color:#627AF6"/>
	<stop  offset="1" style="stop-color:#20DDAE"/>
</linearGradient>
<path class="st0" d="M267.2,183.5l-83.8,83.8c-18.3,18.3-48.5,18.3-67,0l-83.8-83.8c-18.4-18.3-18.4-48.5,0-67l83.8-83.8
	c18.3-18.4,48.5-18.4,67,0l83.8,83.8C285.6,135,285.6,165.1,267.2,183.5z"/>
<linearGradient id="SVGID_00000084503080573325536110000012054743061299424154_" gradientUnits="userSpaceOnUse" x1="192.7528" y1="104.1975" x2="115.7528" y2="200.1965" gradientTransform="matrix(1 0 0 -1 0 302)">
	<stop  offset="0" style="stop-color:#627AF6"/>
	<stop  offset="1" style="stop-color:#20DDAE"/>
</linearGradient>
<path style="fill:url(#SVGID_00000084503080573325536110000012054743061299424154_);" d="M117.5,168.9c-3.4,3.6-3.3,9.3,0.3,12.7
	s9.3,3.3,12.7-0.3L117.5,168.9z M153.5,93.1v9V93.1z M201.9,180.3c2.9-4.1,1.9-9.7-2.2-12.5c0,0,0,0,0,0c-4.1-2.9-9.7-1.9-12.5,2.2
	c0,0,0,0,0,0L201.9,180.3z M130.5,181.3c28.8-30.3,41.3-52.5,43.7-68.4c1.3-8.2-0.1-15.5-4.4-21c-4.3-5.5-10.6-7.8-16.4-7.8v18
	c1.2,0,1.8,0.4,2.2,0.9c0.4,0.5,1.5,2.4,0.8,7.2c-1.6,10.1-10.8,28.9-39,58.7L130.5,181.3L130.5,181.3z M153.5,84.1
	c-8.8,0-15.2,5.3-19.4,11.4c-4.1,6-6.8,13.9-8.6,22c-3.5,16.4-3.5,36.9,0,54.2c1.8,8.7,4.5,17.1,8.4,23.9c3.9,6.8,9.5,13,17.5,15.5
	c8.3,2.7,16.9,0.7,25.1-4.6c8.1-5.2,16.4-13.9,25.2-26.3l-14.7-10.4c-8.1,11.5-14.9,18.1-20.2,21.5c-5.2,3.3-8.2,3.2-9.9,2.6
	c-2-0.7-4.7-2.7-7.4-7.4c-2.7-4.6-4.9-11-6.4-18.5c-3.1-15.1-3-33.1-0.1-46.9c1.5-7,3.6-12.3,5.8-15.6c2.2-3.3,3.8-3.5,4.5-3.5V84.1
	L153.5,84.1z"/>
</svg>
