<svg width="1439" height="697" viewBox="0 0 1439 697" fill="none" xmlns="http://www.w3.org/2000/svg">
<path fill-rule="evenodd" clip-rule="evenodd" d="M1412.89 531.18V554.174H1340V697.446H1484L1484 531.18C1484 476.399 1468.06 431.047 1436.63 405.596C1414.89 387.991 1388.54 379.064 1356 379.064V454.471C1373.66 454.471 1412.89 461.505 1412.89 531.18ZM1236.89 531.18V554.174H1164V697.446H1308V531.18C1308 476.399 1293.84 431.047 1262.41 405.596C1240.67 387.991 1212.54 379.064 1180 379.064V454.471C1197.66 454.471 1236.89 461.505 1236.89 531.18Z" fill="#E9EBF4"/>
<path fill-rule="evenodd" clip-rule="evenodd" d="M57.1111 56.9576V79.9518H130V223.224H-13.9965L-14 56.9576C-14 2.17683 1.93825 -43.1757 33.3678 -68.6266C55.1095 -86.2319 81.4637 -95.1582 114 -95.1582V-19.752C96.3377 -19.752 57.1111 -12.7179 57.1111 56.9576ZM233.111 56.9576V79.9518H306V223.224H162V56.9576C162 2.17683 176.16 -43.1757 207.59 -68.6266C229.332 -86.2319 257.464 -95.1582 290 -95.1582V-19.752C272.338 -19.752 233.111 -12.7179 233.111 56.9576Z" fill="#E9EBF4"/>
</svg>
