<svg width="748" height="779" viewBox="0 0 748 779" fill="none" xmlns="http://www.w3.org/2000/svg">
<path d="M694.917 455.035L734.952 461.155L747.193 381.085L707.158 374.965L694.917 455.035ZM653.761 367.71L613.541 362.95L604.02 443.388L644.239 448.149L653.761 367.71ZM644.239 448.149C660.715 450.099 677.606 452.388 694.917 455.035L707.158 374.965C688.964 372.184 671.166 369.771 653.761 367.71L644.239 448.149Z" fill="#006D79"/>
<path d="M290.5 426.244C104.434 481.853 55.3428 608.818 108.038 684.001C114.305 692.942 121.037 700.585 128.148 707.001" stroke="#006D79" stroke-width="81" stroke-linecap="round" stroke-linejoin="round"/>
<path d="M136 713.477C260.672 807.117 484.652 557.058 388.162 302" stroke="#00BCAE" stroke-width="81" stroke-linecap="round" stroke-linejoin="round"/>
<path d="M228.538 98.5957C268.386 128.913 300.868 161.182 326.884 194.5" stroke="#00BCAE" stroke-width="81" stroke-linecap="round" stroke-linejoin="round"/>
<path d="M526.577 439.557L567.065 440.518L568.988 359.541L528.499 358.579L526.577 439.557ZM278.903 387.439C257.472 393.844 245.291 416.41 251.696 437.841C258.101 459.271 280.666 471.452 302.097 465.047L278.903 387.439ZM302.097 465.047C360.225 447.675 434.447 437.369 526.577 439.557L528.499 358.579C429.479 356.229 346.583 367.212 278.903 387.439L302.097 465.047Z" fill="#006D79"/>
<circle cx="136.5" cy="38.5" r="38.5" fill="#00BCAE"/>
</svg>
