<svg xmlns="http://www.w3.org/2000/svg" xmlns:xlink="http://www.w3.org/1999/xlink" viewBox="0 0 304.16 304.16"><defs><style>.cls-1{fill:url(#radial-gradient);}.cls-2,.cls-3{fill:none;stroke-miterlimit:10;}.cls-2{stroke:url(#linear-gradient);}.cls-3{stroke:url(#linear-gradient-2);}.cls-4{fill:url(#linear-gradient-3);}.cls-5{fill:url(#linear-gradient-4);}.cls-6{fill:url(#radial-gradient-2);}.cls-7{fill:url(#radial-gradient-3);}.cls-8{fill:url(#radial-gradient-4);}.cls-9{fill:url(#radial-gradient-5);}</style><radialGradient id="radial-gradient" cx="152.08" cy="152.08" r="94.78" gradientUnits="userSpaceOnUse"><stop offset="0.45" stop-color="#feb82a"/><stop offset="0.47" stop-color="#fca636" stop-opacity="0.86"/><stop offset="0.51" stop-color="#f98f44" stop-opacity="0.68"/><stop offset="0.54" stop-color="#f77b52" stop-opacity="0.52"/><stop offset="0.58" stop-color="#f5695e" stop-opacity="0.38"/><stop offset="0.62" stop-color="#f35a67" stop-opacity="0.26"/><stop offset="0.66" stop-color="#f14e6f" stop-opacity="0.16"/><stop offset="0.71" stop-color="#f04575" stop-opacity="0.09"/><stop offset="0.77" stop-color="#f03e7a" stop-opacity="0.04"/><stop offset="0.85" stop-color="#ef3a7c" stop-opacity="0.01"/><stop offset="1" stop-color="#ef397d" stop-opacity="0"/></radialGradient><linearGradient id="linear-gradient" x1="56.8" y1="152.08" x2="247.36" y2="152.08" gradientUnits="userSpaceOnUse"><stop offset="0" stop-color="#feb82a"/><stop offset="0.37" stop-color="#ef397d"/><stop offset="0.74" stop-color="#a45bd3"/><stop offset="1" stop-color="#452c82"/></linearGradient><linearGradient id="linear-gradient-2" x1="0" y1="-1618.83" x2="304.16" y2="-1618.83" gradientTransform="translate(0 1770.91)" xlink:href="#linear-gradient"/><linearGradient id="linear-gradient-3" x1="415.55" y1="-770.78" x2="423.26" y2="-770.78" gradientTransform="translate(-60 -736.21) rotate(132.35)" gradientUnits="userSpaceOnUse"><stop offset="0" stop-color="#feb82a"/><stop offset="0.58" stop-color="#ef397d"/><stop offset="1" stop-color="#a45bd3"/></linearGradient><linearGradient id="linear-gradient-4" x1="410.24" y1="-740.98" x2="432.78" y2="-740.98" xlink:href="#linear-gradient-3"/><radialGradient id="radial-gradient-2" cx="197.12" cy="102.06" r="121.79" xlink:href="#linear-gradient"/><radialGradient id="radial-gradient-3" cx="171.38" cy="99.8" r="114.97" gradientUnits="userSpaceOnUse"><stop offset="0.5" stop-color="#ef397d" stop-opacity="0"/><stop offset="0.69" stop-color="#ef397d" stop-opacity="0.01"/><stop offset="0.76" stop-color="#ef397d" stop-opacity="0.04"/><stop offset="0.81" stop-color="#ef397d" stop-opacity="0.09"/><stop offset="0.85" stop-color="#ef397d" stop-opacity="0.16"/><stop offset="0.88" stop-color="#ef397d" stop-opacity="0.25"/><stop offset="0.91" stop-color="#ef397d" stop-opacity="0.36"/><stop offset="0.93" stop-color="#ef397d" stop-opacity="0.5"/><stop offset="0.96" stop-color="#ef397d" stop-opacity="0.66"/><stop offset="0.98" stop-color="#ef397d" stop-opacity="0.83"/><stop offset="1" stop-color="#ef397d"/></radialGradient><radialGradient id="radial-gradient-4" cx="153.82" cy="212.67" r="118.8" gradientUnits="userSpaceOnUse"><stop offset="0.5" stop-color="#feb82a" stop-opacity="0"/><stop offset="0.69" stop-color="#feb82a" stop-opacity="0.01"/><stop offset="0.75" stop-color="#feb82a" stop-opacity="0.03"/><stop offset="0.8" stop-color="#feb82a" stop-opacity="0.08"/><stop offset="0.84" stop-color="#feb82a" stop-opacity="0.15"/><stop offset="0.87" stop-color="#feb82a" stop-opacity="0.23"/><stop offset="0.9" stop-color="#feb82a" stop-opacity="0.34"/><stop offset="0.93" stop-color="#feb82a" stop-opacity="0.47"/><stop offset="0.95" stop-color="#feb82a" stop-opacity="0.62"/><stop offset="0.98" stop-color="#feb82a" stop-opacity="0.79"/><stop offset="1" stop-color="#feb82a" stop-opacity="0.97"/><stop offset="1" stop-color="#feb82a"/></radialGradient><radialGradient id="radial-gradient-5" cx="123.04" cy="196.84" r="122.86" gradientUnits="userSpaceOnUse"><stop offset="0.5" stop-color="#f0f2f8" stop-opacity="0"/><stop offset="0.69" stop-color="#f0f2f8" stop-opacity="0.01"/><stop offset="0.76" stop-color="#f0f2f8" stop-opacity="0.04"/><stop offset="0.8" stop-color="#f0f2f8" stop-opacity="0.08"/><stop offset="0.84" stop-color="#f0f2f8" stop-opacity="0.15"/><stop offset="0.88" stop-color="#f0f2f8" stop-opacity="0.24"/><stop offset="0.91" stop-color="#eff1f7" stop-opacity="0.35"/><stop offset="0.93" stop-color="#eff1f7" stop-opacity="0.48"/><stop offset="0.96" stop-color="#eff1f7" stop-opacity="0.64"/><stop offset="0.98" stop-color="#eef0f6" stop-opacity="0.8"/><stop offset="1" stop-color="#eef0f6" stop-opacity="0.99"/><stop offset="1" stop-color="#eef0f6"/></radialGradient></defs><g id="Layer_2" data-name="Layer 2"><g id="Layer_4" data-name="Layer 4"><rect class="cls-1" x="57.3" y="57.3" width="189.57" height="189.57" rx="94.78"/><rect class="cls-2" x="57.3" y="57.3" width="189.57" height="189.57" rx="94.78"/><rect class="cls-3" x="0.5" y="0.5" width="303.16" height="303.16" rx="151.58" transform="translate(304.16 304.16) rotate(-180)"/><circle class="cls-4" cx="227.04" cy="93.02" r="3.86"/><circle class="cls-5" cx="203.6" cy="74.5" r="11.27"/><path class="cls-6" d="M211.84,114.17h0a39.41,39.41,0,0,0-59.76-4.7h0a39.41,39.41,0,0,0-59.76,4.7A44.13,44.13,0,0,0,90,163c9.4,15.34,27,33.57,59.76,47.74a5.82,5.82,0,0,0,4.56,0c32.8-14.17,50.36-32.4,59.76-47.74A44.13,44.13,0,0,0,211.84,114.17Z"/><path class="cls-7" d="M211.84,114.17h0a39.41,39.41,0,0,0-59.76-4.7h0a39.41,39.41,0,0,0-59.76,4.7A44.13,44.13,0,0,0,90,163c9.4,15.34,27,33.57,59.76,47.74a5.82,5.82,0,0,0,4.56,0c32.8-14.17,50.36-32.4,59.76-47.74A44.13,44.13,0,0,0,211.84,114.17Z"/><path class="cls-8" d="M211.84,114.17h0a39.41,39.41,0,0,0-59.76-4.7h0a39.41,39.41,0,0,0-59.76,4.7A44.13,44.13,0,0,0,90,163c9.4,15.34,27,33.57,59.76,47.74a5.82,5.82,0,0,0,4.56,0c32.8-14.17,50.36-32.4,59.76-47.74A44.13,44.13,0,0,0,211.84,114.17Z"/><path class="cls-9" d="M211.84,114.17h0a39.41,39.41,0,0,0-59.76-4.7h0a39.41,39.41,0,0,0-59.76,4.7A44.13,44.13,0,0,0,90,163c9.4,15.34,27,33.57,59.76,47.74a5.82,5.82,0,0,0,4.56,0c32.8-14.17,50.36-32.4,59.76-47.74A44.13,44.13,0,0,0,211.84,114.17Z"/></g></g></svg>