<svg xmlns="http://www.w3.org/2000/svg" xmlns:xlink="http://www.w3.org/1999/xlink" viewBox="0 0 283.13 258.09"><defs><style>.cls-1,.cls-7{fill:none;}.cls-2{clip-path:url(#clip-path);}.cls-3{fill:#452c82;}.cls-4{fill:url(#linear-gradient);}.cls-5{fill:url(#linear-gradient-2);}.cls-6{fill:url(#radial-gradient);}.cls-7{stroke-miterlimit:10;stroke-width:5px;stroke:url(#linear-gradient-3);}.cls-8{clip-path:url(#clip-path-2);}.cls-9{fill:url(#linear-gradient-4);}.cls-10{fill:url(#linear-gradient-5);}.cls-11{fill:url(#linear-gradient-6);}.cls-12{fill:url(#linear-gradient-7);}.cls-13{fill:url(#linear-gradient-8);}.cls-14{fill:url(#linear-gradient-9);}.cls-15{fill:url(#linear-gradient-10);}.cls-16{fill:url(#linear-gradient-11);}.cls-17{fill:url(#linear-gradient-12);}.cls-18{fill:url(#linear-gradient-13);}.cls-19{fill:url(#linear-gradient-14);}.cls-20{fill:url(#linear-gradient-15);}.cls-21{fill:url(#linear-gradient-16);}.cls-22{fill:url(#linear-gradient-17);}.cls-23{fill:#fef9c7;}.cls-24{fill:url(#linear-gradient-18);}.cls-25{fill:url(#linear-gradient-19);}</style><clipPath id="clip-path"><rect class="cls-1" width="283.13" height="258.09" transform="translate(283.13 258.09) rotate(-180)"/></clipPath><linearGradient id="linear-gradient" x1="-734.08" y1="134.92" x2="-766.93" y2="255.89" gradientTransform="matrix(1, 0, 0, -1, 963.67, 389.32)" gradientUnits="userSpaceOnUse"><stop offset="0" stop-color="#571d68"/><stop offset="0.18" stop-color="#1347c8"/><stop offset="0.39" stop-color="#7c74f8"/><stop offset="1" stop-color="#e76470"/></linearGradient><linearGradient id="linear-gradient-2" x1="-714.58" y1="137.24" x2="-746.16" y2="253.51" gradientTransform="matrix(1, 0, 0, -1, 923.41, 389.32)" gradientUnits="userSpaceOnUse"><stop offset="0" stop-color="#e76470"/><stop offset="0.61" stop-color="#7c74f8"/><stop offset="0.82" stop-color="#1347c8"/><stop offset="1" stop-color="#571d68"/></linearGradient><radialGradient id="radial-gradient" cx="4368.52" cy="-16239.29" r="194.42" gradientTransform="matrix(1, 0, 0, -1, -4334.01, -16243.06)" gradientUnits="userSpaceOnUse"><stop offset="0" stop-color="#3ce5d1"/><stop offset="0.28" stop-color="#7c74f8"/><stop offset="0.33" stop-color="#8972e5"/><stop offset="0.46" stop-color="#af6db1"/><stop offset="0.58" stop-color="#ca6a8a"/><stop offset="0.67" stop-color="#db6873"/><stop offset="0.73" stop-color="#e1676a"/><stop offset="0.76" stop-color="#da646a"/><stop offset="0.8" stop-color="#c65d6c"/><stop offset="0.85" stop-color="#a5516d"/><stop offset="0.9" stop-color="#784070"/><stop offset="0.96" stop-color="#432c73"/></radialGradient><linearGradient id="linear-gradient-3" x1="2721.2" y1="4723.45" x2="2584.8" y2="4548.69" gradientTransform="matrix(-0.82, 0.31, 0.25, 0.67, 1118.29, -3841.52)" gradientUnits="userSpaceOnUse"><stop offset="0" stop-color="#571d68"/><stop offset="0.18" stop-color="#fef9c7"/><stop offset="0.53" stop-color="#7c74f8"/><stop offset="1" stop-color="#e76470"/></linearGradient><clipPath id="clip-path-2"><path class="cls-1" d="M196.41,18.69C211.57,66.15,2.21,108.6-9.16,83.32-22.06,54.66-48.93,4.18,18.25-38.81S175.21-47.68,196.41,18.69Z"/></clipPath><linearGradient id="linear-gradient-4" x1="-543.19" y1="54.53" x2="-596.43" y2="250.6" gradientTransform="matrix(1, 0, 0, -1, 602.03, 302.73)" xlink:href="#linear-gradient"/><linearGradient id="linear-gradient-5" x1="-517.58" y1="58.88" x2="-569.89" y2="251.51" gradientTransform="matrix(-1, 0, 0, 1, -536.94, 0)" gradientUnits="userSpaceOnUse"><stop offset="0" stop-color="#ef397d"/><stop offset="0.61" stop-color="#7c74f8"/><stop offset="0.82" stop-color="#1347c8"/><stop offset="1" stop-color="#571d68"/></linearGradient><linearGradient id="linear-gradient-6" x1="-645.94" y1="106.6" x2="-653.34" y2="97.12" gradientTransform="matrix(-1, 0, 0, 1, -536.94, 0)" gradientUnits="userSpaceOnUse"><stop offset="0.03" stop-color="#423270"/><stop offset="1" stop-color="#fef9c7"/></linearGradient><linearGradient id="linear-gradient-7" x1="-651.89" y1="93.62" x2="-641.2" y2="93.62" gradientTransform="matrix(-1, 0, 0, 1, -536.94, 0)" gradientUnits="userSpaceOnUse"><stop offset="0" stop-color="#ef397d"/><stop offset="1" stop-color="#febbc7"/></linearGradient><linearGradient id="linear-gradient-8" x1="-662.59" y1="93.62" x2="-651.89" y2="93.62" gradientTransform="matrix(-1, 0, 0, 1, -536.94, 0)" gradientUnits="userSpaceOnUse"><stop offset="0" stop-color="#7c74f8"/><stop offset="0.71" stop-color="#2b4cc4"/><stop offset="1" stop-color="#4a1d68"/></linearGradient><linearGradient id="linear-gradient-9" x1="-619.41" y1="87.08" x2="-631.49" y2="71.59" gradientTransform="matrix(-1, 0, 0, 1, -536.94, 0)" gradientUnits="userSpaceOnUse"><stop offset="0" stop-color="#571d68"/><stop offset="0.09" stop-color="#fef9c7"/><stop offset="0.53" stop-color="#7c74f8"/><stop offset="1" stop-color="#e76470"/></linearGradient><linearGradient id="linear-gradient-10" x1="-626.95" y1="68.37" x2="-653.41" y2="78.47" xlink:href="#linear-gradient-5"/><linearGradient id="linear-gradient-11" x1="-769.67" y1="240.71" x2="-578.37" y2="239.32" gradientTransform="matrix(-1, 0, 0, 1, -536.94, 0)" gradientUnits="userSpaceOnUse"><stop offset="0" stop-color="#4a1d68"/><stop offset="0.29" stop-color="#2b4cc4"/><stop offset="0.62" stop-color="#7c74f8"/><stop offset="0.78" stop-color="#e16c61"/></linearGradient><linearGradient id="linear-gradient-12" x1="-672.66" y1="240.2" x2="-559.16" y2="240.2" gradientTransform="matrix(-1, 0, 0, 1, -536.94, 0)" gradientUnits="userSpaceOnUse"><stop offset="0" stop-color="#ef397d"/><stop offset="1" stop-color="#7c74f8"/></linearGradient><linearGradient id="linear-gradient-13" x1="-653.36" y1="196.79" x2="-584.52" y2="196.79" xlink:href="#linear-gradient-12"/><linearGradient id="linear-gradient-14" x1="-629.14" y1="173.61" x2="-728.26" y2="222.43" gradientTransform="matrix(-1, 0, 0, 1, -536.94, 0)" gradientUnits="userSpaceOnUse"><stop offset="0" stop-color="#e16c61"/><stop offset="0.03" stop-color="#c56e8b"/><stop offset="0.07" stop-color="#ab70b2"/><stop offset="0.1" stop-color="#9672d0"/><stop offset="0.14" stop-color="#8873e6"/><stop offset="0.17" stop-color="#7f74f4"/><stop offset="0.2" stop-color="#7c74f8"/><stop offset="0.71" stop-color="#2b4cc4"/><stop offset="1" stop-color="#4a1d68"/></linearGradient><linearGradient id="linear-gradient-15" x1="-629.87" y1="161.96" x2="-682.89" y2="148.27" gradientTransform="matrix(-1, 0, 0, 1, -536.94, 0)" gradientUnits="userSpaceOnUse"><stop offset="0" stop-color="#4a1d68"/><stop offset="0.29" stop-color="#2b4cc4"/><stop offset="0.64" stop-color="#7c74f8"/><stop offset="1" stop-color="#ef397d"/></linearGradient><linearGradient id="linear-gradient-16" x1="-639.83" y1="162.66" x2="-621.47" y2="150.22" xlink:href="#linear-gradient-12"/><linearGradient id="linear-gradient-17" x1="-809.11" y1="281.2" x2="-877.98" y2="23.81" gradientTransform="matrix(-1, 0, 0, 1, -536.94, 0)" gradientUnits="userSpaceOnUse"><stop offset="0" stop-color="#7d74f6"/><stop offset="0.96" stop-color="#432c73"/></linearGradient><linearGradient id="linear-gradient-18" x1="-769.73" y1="13.95" x2="-764.79" y2="0.61" gradientTransform="matrix(-1, 0, 0, 1, -536.94, 0)" gradientUnits="userSpaceOnUse"><stop offset="0" stop-color="#fef9c7"/><stop offset="0.53" stop-color="#7c74f8"/><stop offset="1" stop-color="#e76470"/></linearGradient><linearGradient id="linear-gradient-19" x1="-732.05" y1="122.73" x2="-729.47" y2="116.68" xlink:href="#linear-gradient-18"/></defs><g id="Layer_2" data-name="Layer 2"><g id="Layer_4" data-name="Layer 4"><g class="cls-2"><rect class="cls-3" width="454.09" height="257.41" transform="translate(454.09 257.41) rotate(-180)"/><rect class="cls-4" x="196.71" y="131.92" width="33.31" height="125.49" transform="translate(426.73 389.32) rotate(-180)"/><rect class="cls-5" x="186.2" y="131.92" width="14.07" height="125.49" transform="translate(386.47 389.32) rotate(-180)"/><circle class="cls-6" cx="97.73" cy="70.16" r="100.82"/><path class="cls-7" d="M-27.44,117.47c9.65,25.55,73.52,25.08,142.65-1s117.36-68,107.7-93.56S149.39-2.22,80.25,23.91s-117.35,68-107.69,93.56"/><g class="cls-8"><circle class="cls-6" cx="97.73" cy="70.16" r="100.82"/></g><rect class="cls-9" x="21.56" y="45.33" width="21.98" height="212.08" transform="translate(65.1 302.73) rotate(-180)"/><polygon class="cls-10" points="21.56 45.33 12.27 45.33 -10.14 257.03 21.56 257.03 21.56 45.33"/><polygon class="cls-11" points="104.26 98.96 114.95 109.66 125.65 98.96 104.26 98.96"/><polygon class="cls-12" points="104.26 98.96 114.95 98.96 114.95 88.27 104.26 98.96"/><polygon class="cls-13" points="114.95 88.27 114.95 98.96 125.65 98.96 114.95 88.27"/><polygon class="cls-14" points="74.73 74.61 92.2 92.07 109.66 74.61 74.73 74.61"/><polygon class="cls-15" points="74.73 74.61 109.66 74.61 92.2 57.15 74.73 74.61"/><polygon class="cls-16" points="101.29 218.49 101.29 261.9 240.34 261.9 221.9 218.49 101.29 218.49"/><polygon class="cls-17" points="-12.21 261.9 101.29 261.9 101.29 218.49 6.23 218.49 -12.21 261.9"/><polygon class="cls-18" points="32.45 218.49 101.29 218.49 101.29 175.09 50.88 175.09 32.45 218.49"/><polygon class="cls-19" points="101.29 175.09 101.29 218.49 195.68 218.49 177.25 175.09 101.29 175.09"/><polygon class="cls-20" points="101.29 131.68 101.29 175.09 151.03 175.09 132.59 131.68 101.29 131.68"/><polygon class="cls-21" points="77.1 175.09 101.29 175.09 101.29 131.68 95.54 131.68 77.1 175.09"/><path class="cls-3" d="M213.39,211.68c4,0,8.07-2.66,8.58-5.28.7-3.61-4.52-7.74-9.24-8.91-7.09-1.77-10.06,3.85-16.51,2.31-7.34-1.76-7.58-10-12.87-10.24-7-.28-10.12,14.18-17.83,13.87-3.5-.14-3.53-3.14-9.24-4.62-1.55-.4-10.89-1.75-16.19,2.3-3.78,2.89-5.08,9.73-.4,10.49C145.24,212.51,209.41,211.68,213.39,211.68Z"/><path class="cls-22" d="M266.33,1.46c-23.12,13-54,35.31-61,69.48C198,106.39,222.14,127.1,220,165.85c-1.33,24.15-13,57.65-60.31,96.44h83.05c100.52-18.62,130.42-48.23,137.13-73.85,9.71-37.08-29.13-63.92-13.56-96,17.42-35.92,80.76-28.52,99.42-75.7a65.12,65.12,0,0,0,4-15.25Z"/><path class="cls-3" d="M47.78,113.72c-11,.06-18.76-.24-20.3-.78-2.22-.77-4.17-3.11-3.81-5,.39-2.07,3.35-2.21,7.8-4.68,7.32-4,6.91-7.84,11.28-8.41,2.63-.35,5.57,1.32,11.45,4.67,6.45,3.67,7.23,5.48,11.1,5.92,3.68.42,5.53-.92,7.46.47s2.65,4.6,1.22,6.23c-.33.37-1,.89-3,1.25C67.27,114.09,59.23,113.66,47.78,113.72Z"/><path class="cls-23" d="M217,60.82c11.15,1,12,1.86,13,13,1-11.15,1.86-12,13-13-11.15-1-12-1.86-13-13C229,59,228.16,59.8,217,60.82Z"/><path class="cls-23" d="M266.15,14.39c3.24.3,3.49.54,3.78,3.79.3-3.25.55-3.49,3.79-3.79-3.24-.3-3.49-.54-3.79-3.79C269.64,13.85,269.39,14.09,266.15,14.39Z"/><path class="cls-24" d="M217,6.46c11.15,1,12,1.86,13,13,1-11.15,1.86-12,13-13-11.15-1-12-1.86-13-13C229,4.6,228.16,5.44,217,6.46Z"/><path class="cls-23" d="M218.53,228.35c1.49.35,1.77.64,2.12,2.13.36-1.49.64-1.78,2.13-2.13-1.49-.35-1.77-.63-2.13-2.12C220.3,227.72,220,228,218.53,228.35Z"/><path class="cls-25" d="M190.53,120.76c2.63.62,3.13,1.12,3.75,3.75.61-2.63,1.12-3.13,3.74-3.75-2.62-.62-3.13-1.12-3.74-3.75C193.66,119.64,193.16,120.14,190.53,120.76Z"/><path class="cls-23" d="M19.06,30.52c7.3.67,7.85,1.22,8.52,8.52.67-7.3,1.22-7.85,8.52-8.52-7.3-.67-7.85-1.22-8.52-8.52C26.91,29.3,26.36,29.85,19.06,30.52Z"/></g><path class="cls-23" d="M168.83,19.87c-3.25.3-3.49.54-3.79,3.79-.3-3.25-.54-3.49-3.79-3.79,3.25-.3,3.49-.54,3.79-3.79C165.34,19.33,165.58,19.57,168.83,19.87Z"/></g></g></svg>