<svg width="1524" height="2146" fill="none" xmlns="http://www.w3.org/2000/svg"><g clip-path="url(#a)" filter="url(#b)"><circle cx="1198.99" cy="1630.99" r="1178" transform="rotate(-179.463 1198.99 1630.99)" fill="url(#c)"/><circle cx="690.1" cy="1152.1" r="849.077" transform="rotate(-89.728 690.1 1152.1)" fill="url(#d)"/><path d="M-185.578 124.879c523.381 4.903 943.69 433.162 938.786 956.541-4.904 523.38-433.163 943.69-956.544 938.79-523.38-4.91-943.684-433.17-938.784-956.55 4.9-523.377 433.162-943.685 956.542-938.781Z" fill="url(#e)"/><circle cx="883.771" cy="847.836" r="776" transform="rotate(-89.463 883.771 847.836)" fill="url(#f)"/><circle cx="1459.85" cy="522.219" r="776" transform="rotate(-89.463 1459.85 522.219)" fill="url(#g)"/><circle cx="1491.24" cy="1114.24" r="776" transform="rotate(-89.463 1491.24 1114.24)" fill="url(#h)"/></g><defs><radialGradient id="c" cx="0" cy="0" r="1" gradientUnits="userSpaceOnUse" gradientTransform="rotate(145.763 190.583 1067.059) scale(609.643)"><stop stop-color="#607EF4"/><stop offset="1" stop-color="#2B2B2B" stop-opacity="0"/></radialGradient><radialGradient id="d" cx="0" cy="0" r="1" gradientUnits="userSpaceOnUse" gradientTransform="rotate(88.524 -256.98 918.88) scale(849.359)"><stop stop-color="#627AF6"/><stop offset="1" stop-color="#2B2B2B" stop-opacity="0"/></radialGradient><radialGradient id="e" cx="0" cy="0" r="1" gradientUnits="userSpaceOnUse" gradientTransform="rotate(-.94 66796.676 12420.577) scale(948.021)"><stop stop-color="#627AF6"/><stop offset="1" stop-color="#2B2B2B" stop-opacity="0"/></radialGradient><radialGradient id="f" cx="0" cy="0" r="1" gradientUnits="userSpaceOnUse" gradientTransform="rotate(90 17.968 865.804) scale(776)"><stop stop-color="#19E8A6"/><stop offset="1" stop-color="#2B2B2B" stop-opacity="0"/></radialGradient><radialGradient id="g" cx="0" cy="0" r="1" gradientUnits="userSpaceOnUse" gradientTransform="rotate(88.524 452 999.828) scale(776.258)"><stop stop-color="#627AF6"/><stop offset="1" stop-color="#2B2B2B" stop-opacity="0"/></radialGradient><radialGradient id="h" cx="0" cy="0" r="1" gradientUnits="userSpaceOnUse" gradientTransform="rotate(90 188.5 1302.74) scale(776)"><stop stop-color="#19E8A6"/><stop offset="1" stop-color="#2B2B2B" stop-opacity="0"/></radialGradient><clipPath id="a"><path fill="#fff" transform="rotate(90.537 723.126 761.453)" d="M0 0h2068.55v1440H0z"/></clipPath><filter id="b" x="0" y="0" width="1523.32" height="2145.96" filterUnits="userSpaceOnUse" color-interpolation-filters="sRGB"><feFlood flood-opacity="0" result="BackgroundImageFix"/><feBlend in="SourceGraphic" in2="BackgroundImageFix" result="shape"/><feGaussianBlur stdDeviation="16" result="effect1_foregroundBlur_773_13274"/></filter></defs></svg>