<svg width="1440" height="3186" fill="none" xmlns="http://www.w3.org/2000/svg"><path d="M2500 2124C3082.5 3349.5 393.5 1954.5 825.183-145.551" stroke="#FF4E4E" stroke-width="145.979" stroke-linecap="round" stroke-linejoin="round"/><path d="M2500 2124C3082.5 3349.5 393.5 1954.5 825.183-145.551" stroke="url(#a)" stroke-width="145.979" stroke-linecap="round" stroke-linejoin="round"/><path d="M2500 2124C3082.5 3349.5 393.5 1954.5 825.183-145.551" stroke="url(#b)" stroke-width="145.979" stroke-linecap="round" stroke-linejoin="round"/><path d="M2500 2124C3082.5 3349.5 393.5 1954.5 825.183-145.551" stroke="url(#c)" stroke-width="145.979" stroke-linecap="round" stroke-linejoin="round"/><path d="M-18.5 3074.61c2167.5 192 1945-2366.499 2527.5-1141" stroke="#FF4E4E" stroke-width="145.979" stroke-linecap="round" stroke-linejoin="round"/><path d="M-18.5 3074.61c2167.5 192 1945-2366.499 2527.5-1141" stroke="url(#d)" stroke-width="145.979" stroke-linecap="round" stroke-linejoin="round"/><path d="M-18.5 3074.61c2167.5 192 1945-2366.499 2527.5-1141" stroke="url(#e)" stroke-width="145.979" stroke-linecap="round" stroke-linejoin="round"/><path d="M-18.5 3074.61c2167.5 192 1945-2366.499 2527.5-1141" stroke="url(#f)" stroke-width="145.979" stroke-linecap="round" stroke-linejoin="round"/><defs><linearGradient id="a" x1="317.602" y1="1253.44" x2="-393.938" y2="2067.54" gradientUnits="userSpaceOnUse"><stop stop-color="#F38844"/><stop offset=".27" stop-color="#EE3183"/><stop offset=".796" stop-color="#FEB82A"/><stop offset="1" stop-color="#635AA7"/></linearGradient><linearGradient id="b" x1="283.112" y1="2238.97" x2="665.447" y2="2553.79" gradientUnits="userSpaceOnUse"><stop stop-color="#FE5366"/><stop offset="1" stop-color="#FCBD03"/></linearGradient><linearGradient id="c" x1="2133" y1="3896.5" x2="4738.72" y2="1868.61" gradientUnits="userSpaceOnUse"><stop stop-color="#FEB115"/><stop offset=".315" stop-color="#EE3183"/><stop offset="1" stop-color="#7C71FD"/></linearGradient><linearGradient id="d" x1="137.919" y1="1540.6" x2="-573.621" y2="2354.7" gradientUnits="userSpaceOnUse"><stop stop-color="#F38844"/><stop offset=".27" stop-color="#EE3183"/><stop offset=".796" stop-color="#FEB82A"/><stop offset="1" stop-color="#635AA7"/></linearGradient><linearGradient id="e" x1="103.43" y1="2526.13" x2="485.764" y2="2840.95" gradientUnits="userSpaceOnUse"><stop stop-color="#FE5366"/><stop offset="1" stop-color="#FCBD03"/></linearGradient><linearGradient id="f" x1="761.499" y1="4247.11" x2="3653.27" y2="2697.51" gradientUnits="userSpaceOnUse"><stop stop-color="#FEB115"/><stop offset=".315" stop-color="#EE3183"/><stop offset="1" stop-color="#7C71FD"/></linearGradient></defs></svg>