<svg width="1614" height="1005" fill="none" xmlns="http://www.w3.org/2000/svg"><g clip-path="url(#a)"><path d="M1302.98 317.969C1435.07 126.532 1577.55 72.891 1632.28 70L1656 985H-657.936c-14.574-274.645 2.046-833.001 185.114-869.27C-289.753 79.461-132.049 317.18-76.08 440.573c5.581 15.243 28.837 48.569 77.209 59.922 60.464 14.193 64.185 108.413 104.185 125.365 39.999 16.951 124.65-28.385 165.115-42.577 40.465-14.192 201.394 79.634 262.324 99.739 60.929 20.106 221.858 14.193 248.835-37.057 21.581-40.999 125.58-74.114 174.882-85.547 60.46-1.051 214.42-51.013 346.51-242.449Z" fill="url(#b)"/><path d="M464.677 451.218C343.783 588.668 104.52 579.557 0 557.82v393.609h1746.64V557.82c-66.12-35.534-219.14-100.667-302.24-76.925-103.87 29.677-174.54 153.851-212.81 186.651-38.27 32.801-133.55-12.105-162.83-50.372-29.29-38.268-62.48-35.534-162.835-59.354-80.284-19.056-151.899-100.615-177.671-139.013-37.486-46.467-142.683-105.04-263.577 32.411Z" fill="url(#c)"/><path d="m109.341 466.84 6.638-44.125 8.591 49.591 3.905 17.572 5.857 17.182 10.543 26.553-6.638-3.515-3.905-2.733-3.905-4.296 3.905 14.448 3.905 14.839 2.343 6.248 1.952 3.514 4.686 5.076-4.686-1.171-3.124-1.562-3.514-3.905 2.343 13.276 8.981 23.43-62.087 1.171 3.905-10.934 3.124-11.714 3.124-15.229-1.953 3.905-2.343 2.733-5.857 3.905-5.467 2.733 5.467-9.371 5.857-12.105 4.296-9.372 6.247-19.915-3.905 4.296-4.295 2.733-4.295 1.172 8.59-21.868 7.42-23.038 4.295-19.524Z" fill="url(#d)"/><path d="m422.505 442.627 6.638-44.125 8.591 49.592 3.905 17.571 5.857 17.182 10.543 26.553-6.638-3.515-3.905-2.733-3.905-4.295 3.905 14.448 3.905 14.838 2.343 6.248 1.952 3.514 4.686 5.076-4.686-1.171-3.124-1.562-3.514-3.905 2.343 13.277 8.981 23.429-62.087 1.171 3.905-10.933 3.124-11.715 3.124-15.229-1.953 3.905-2.343 2.733-5.857 3.905-5.467 2.734 5.467-9.372 5.857-12.105 4.296-9.372 6.247-19.914-3.905 4.295-4.295 2.733-4.295 1.172 8.59-21.867 7.42-23.039 4.295-19.524Z" fill="url(#e)"/><path d="m1493.07 516.586-5.45-36.084-7.05 40.555-3.21 14.37-4.81 14.05-8.65 21.715 5.45-2.874 3.2-2.236 3.21-3.512-3.21 11.815-3.2 12.134-1.92 5.11-1.61 2.874-3.84 4.151 3.84-.958 2.57-1.277 2.88-3.194-1.92 10.858-7.37 19.159 50.96.958-3.21-8.941-2.56-9.58-2.56-12.454 1.6 3.194 1.92 2.235 4.81 3.193 4.49 2.236-4.49-7.664-4.81-9.9-3.52-7.663-5.13-16.286 3.2 3.512 3.53 2.236 3.52.958-7.05-17.883-6.09-18.84-3.52-15.967Z" fill="url(#f)"/><path d="m263.409 426.497 9.133-60.794 11.818 68.326 5.372 24.21 8.058 23.672 14.504 36.585-9.132-4.842-5.372-3.766-5.372-5.919 5.372 19.907 5.372 20.444 3.223 8.608 2.686 4.842 6.446 6.994-6.446-1.614-4.298-2.152-4.834-5.38 3.223 18.292 12.355 32.28-85.414 1.614 5.372-15.064 4.297-16.14 4.298-20.982-2.686 5.38-3.223 3.766-8.058 5.38-7.521 3.766 7.521-12.912 8.058-16.678 5.909-12.912 8.595-27.439-5.372 5.919-5.909 3.766-5.909 1.614 11.818-30.129 10.207-31.742 5.909-26.9Z" fill="url(#g)"/><path d="m523.898 637.652 5.909-39.222 7.647 44.081 3.476 15.619 5.214 15.273 9.386 23.602-5.91-3.123-3.476-2.43-3.476-3.818 3.476 12.842 3.476 13.19 2.086 5.554 1.738 3.124 4.171 4.512-4.171-1.041-2.781-1.389-3.128-3.471 2.085 11.802 7.995 20.825-55.268 1.042 3.476-9.719 2.781-10.413 2.78-13.537-1.738 3.471-2.085 2.43-5.214 3.471-4.867 2.43 4.867-8.331 5.214-10.76 3.823-8.33 5.562-17.702-3.476 3.818-3.824 2.43-3.823 1.041 7.647-19.438 6.604-20.478 3.824-17.355Z" fill="url(#h)"/><path d="m612.925 664.982 5.91-39.222 7.647 44.081 3.476 15.62 5.214 15.272 9.385 23.603-5.909-3.124-3.476-2.43-3.476-3.818 3.476 12.842 3.476 13.19 2.085 5.554 1.738 3.124 4.171 4.512-4.171-1.041-2.78-1.389-3.129-3.471 2.086 11.802 7.994 20.825-55.268 1.042 3.476-9.719 2.781-10.413 2.781-13.537-1.738 3.471-2.086 2.43-5.214 3.471-4.866 2.43 4.866-8.331 5.214-10.76 3.824-8.33 5.561-17.702-3.476 3.818-3.823 2.43-3.824 1.041 7.647-19.438 6.605-20.478 3.823-17.355Z" fill="url(#i)"/><path d="m448.016 680.046 6.753-44.909 8.74 50.473 3.972 17.884 5.959 17.487 10.726 27.025-6.753-3.577-3.973-2.782-3.972-4.372 3.972 14.705 3.973 15.102 2.383 6.359 1.986 3.577 4.768 5.167-4.768-1.193-3.178-1.589-3.575-3.975 2.384 13.513 9.137 23.846-63.164 1.192 3.972-11.128 3.178-11.923 3.178-15.5-1.986 3.975-2.383 2.782-5.959 3.974-5.562 2.782 5.562-9.538 5.959-12.321 4.369-9.538 6.357-20.269-3.973 4.372-4.37 2.782-4.37 1.192 8.74-22.256 7.548-23.448 4.37-19.871Z" fill="url(#j)"/><path d="m562.16 535.347 5.909-39.222 7.647 44.081 3.476 15.62 5.214 15.272 9.385 23.603-5.909-3.124-3.476-2.43-3.476-3.818 3.476 12.843 3.476 13.189 2.086 5.554 1.738 3.124 4.171 4.512-4.171-1.041-2.781-1.389-3.129-3.471 2.086 11.802 7.995 20.826-55.268 1.041 3.476-9.719 2.78-10.413 2.781-13.537-1.738 3.471-2.085 2.43-5.214 3.471-4.867 2.43 4.867-8.331 5.214-10.76 3.823-8.33 5.562-17.702-3.476 3.818-3.824 2.43-3.823 1.041 7.647-19.437 6.604-20.479 3.824-17.355Z" fill="url(#k)"/><path d="m703.875 652.823 4.067-27.063 5.264 30.416 2.392 10.777 3.589 10.538 6.46 16.286-4.067-2.155-2.393-1.677-2.392-2.634 2.392 8.861 2.393 9.101 1.435 3.832 1.197 2.155 2.871 3.114-2.871-.719-1.914-.958-2.154-2.395 1.436 8.143 5.503 14.37-38.042.719 2.393-6.706 1.914-7.185 1.914-9.341-1.197 2.395-1.435 1.677-3.589 2.395-3.35 1.676 3.35-5.748 3.589-7.424 2.632-5.748 3.828-12.214-2.393 2.634-2.632 1.677-2.631.718 5.263-13.412 4.546-14.13 2.632-11.975Z" fill="url(#l)"/><path d="m764.789 632.522 4.067-27.063 5.264 30.416 2.393 10.778 3.588 10.537 6.46 16.286-4.067-2.155-2.393-1.677-2.392-2.634 2.392 8.861 2.393 9.101 1.436 3.832 1.196 2.156 2.871 3.113-2.871-.718-1.914-.958-2.154-2.395 1.436 8.142 5.503 14.37-38.042.719 2.393-6.706 1.914-7.185 1.914-9.34-1.197 2.395-1.435 1.676-3.589 2.395-3.35 1.676 3.35-5.747 3.589-7.425 2.632-5.748 3.828-12.214-2.393 2.634-2.632 1.677-2.631.718 5.263-13.412 4.546-14.13 2.632-11.975Z" fill="url(#m)"/><path d="m463.336 564.579 4.067-27.063 5.264 30.416 2.392 10.777 3.589 10.538 6.46 16.286-4.067-2.156-2.393-1.676-2.392-2.635 2.392 8.862 2.393 9.101 1.435 3.832 1.197 2.155 2.871 3.114-2.871-.719-1.914-.958-2.154-2.395 1.436 8.143 5.503 14.37-38.042.718 2.393-6.705 1.914-7.185 1.914-9.341-1.197 2.395-1.435 1.677-3.589 2.395-3.35 1.676 3.35-5.748 3.589-7.424 2.632-5.748 3.828-12.215-2.393 2.635-2.632 1.676-2.631.719 5.263-13.412 4.546-14.13 2.632-11.975Z" fill="url(#n)"/><path d="m1229.89 707.16 5.91-39.222 7.65 44.081 3.47 15.619 5.22 15.273 9.38 23.602-5.91-3.124-3.47-2.429-3.48-3.818 3.48 12.842 3.47 13.19 2.09 5.554 1.74 3.123 4.17 4.513-4.17-1.042-2.78-1.388-3.13-3.471 2.08 11.801 8 20.826-55.27 1.041 3.48-9.718L1214.6 804l2.78-13.537-1.74 3.471-2.09 2.43-5.21 3.471-4.87 2.429 4.87-8.33 5.21-10.76 3.83-8.33 5.56-17.702-3.48 3.818-3.82 2.429-3.82 1.042 7.64-19.438 6.61-20.479 3.82-17.354Z" fill="url(#o)"/><path d="m1290.03 663.423 5.91-39.222 7.64 44.082 3.48 15.619 5.21 15.272 9.39 23.603-5.91-3.124-3.48-2.43-3.47-3.818 3.47 12.843 3.48 13.19 2.08 5.553 1.74 3.124 4.17 4.512-4.17-1.041-2.78-1.388-3.13-3.471 2.09 11.801 7.99 20.826-55.26 1.041 3.47-9.719 2.78-10.413 2.78-13.536-1.73 3.471-2.09 2.429-5.21 3.471-4.87 2.43 4.87-8.33 5.21-10.76 3.82-8.331 5.56-17.702-3.47 3.818-3.82 2.43-3.83 1.041 7.65-19.437 6.6-20.479 3.83-17.355Z" fill="url(#p)"/><path d="m575.115 651.842 3.913-26.082 5.065 29.314 2.303 10.387 3.453 10.156 6.216 15.696-3.914-2.078-2.302-1.615-2.302-2.54 2.302 8.541 2.302 8.771 1.382 3.693 1.151 2.077 2.763 3.001-2.763-.692-1.842-.924-2.072-2.308 1.381 7.848 5.296 13.849-36.607.693 2.303-6.463 1.841-6.925 1.842-9.002-1.151 2.308-1.381 1.616-3.454 2.308-3.223 1.616 3.223-5.54 3.454-7.155 2.532-5.54 3.684-11.772-2.302 2.54-2.533 1.615-2.532.693 5.065-12.926 4.374-13.619 2.533-11.541Z" fill="url(#q)"/><path d="m634.466 581.561 3.914-26.082 5.065 29.314 2.302 10.387 3.454 10.156 6.216 15.695-3.914-2.077-2.302-1.616-2.303-2.539 2.303 8.541 2.302 8.771 1.381 3.693 1.151 2.077 2.763 3.001-2.763-.693-1.841-.923-2.072-2.308 1.381 7.848 5.295 13.849-36.606.692 2.302-6.462 1.842-6.925 1.842-9.002-1.151 2.308-1.382 1.616-3.453 2.308-3.223 1.616 3.223-5.54 3.453-7.155 2.533-5.54 3.684-11.772-2.303 2.539-2.532 1.616-2.533.692 5.065-12.925 4.375-13.619 2.532-11.541Z" fill="url(#r)"/><path d="m1181.14 698.706 3.92-26.083 5.06 29.314 2.3 10.387 3.46 10.156 6.21 15.696-3.91-2.077-2.3-1.616-2.31-2.539 2.31 8.54 2.3 8.771 1.38 3.693 1.15 2.078 2.76 3-2.76-.692-1.84-.923-2.07-2.309 1.38 7.848 5.29 13.85-36.6.692 2.3-6.463 1.84-6.925 1.84-9.002-1.15 2.309-1.38 1.615-3.45 2.309-3.23 1.615 3.23-5.539 3.45-7.156 2.53-5.539 3.69-11.772-2.3 2.539-2.54 1.616-2.53.692 5.07-12.926 4.37-13.618 2.53-11.541Z" fill="url(#s)"/><path d="m1352.17 745.561 3.91-26.082 5.07 29.314 2.3 10.387 3.45 10.156 6.22 15.695-3.91-2.077-2.31-1.616-2.3-2.539 2.3 8.541 2.31 8.771 1.38 3.693 1.15 2.077 2.76 3.001-2.76-.693-1.84-.923-2.08-2.308 1.39 7.848 5.29 13.849-36.6.692 2.3-6.462 1.84-6.925 1.84-9.002-1.15 2.308-1.38 1.616-3.45 2.308-3.23 1.616 3.23-5.54 3.45-7.155 2.53-5.54 3.68-11.772-2.3 2.539-2.53 1.616-2.53.692 5.06-12.925 4.38-13.619 2.53-11.541Z" fill="url(#t)"/><path d="m674.286 641.696 3.914-26.083 5.065 29.314 2.303 10.387 3.453 10.156 6.216 15.696-3.914-2.077-2.302-1.616-2.302-2.539 2.302 8.54 2.302 8.771 1.382 3.694 1.151 2.077 2.763 3.001-2.763-.693-1.842-.923-2.072-2.308 1.381 7.848 5.296 13.849-36.607.692 2.303-6.463 1.841-6.924 1.842-9.002-1.151 2.308-1.381 1.616-3.454 2.308-3.223 1.616 3.223-5.54 3.454-7.156 2.532-5.539 3.684-11.772-2.302 2.539-2.533 1.616-2.532.692 5.065-12.926 4.374-13.618 2.532-11.541Z" fill="url(#u)"/><path d="m1623.15 502.98-7.44-49.812-9.63 55.983-4.38 19.837-6.57 19.396-11.82 29.975 7.44-3.967 4.38-3.086 4.38-4.849-4.38 16.31-4.38 16.751-2.63 7.053-2.19 3.968-5.25 5.73 5.25-1.322 3.51-1.764 3.94-4.408-2.63 14.988-10.07 26.449 69.62 1.322-4.38-12.343-3.5-13.224-3.5-17.192 2.19 4.408 2.62 3.086 6.57 4.408 6.13 3.086-6.13-10.58-6.57-13.665-4.81-10.579-7.01-22.482 4.38 4.849 4.82 3.086 4.81 1.322-9.63-24.685-8.32-26.008-4.82-22.041Z" fill="url(#v)"/><path d="m170.472 477.259 9.132-60.794 11.818 68.326 5.372 24.21 8.058 23.672 14.505 36.584-9.133-4.842-5.372-3.766-5.372-5.918 5.372 19.906 5.372 20.444 3.224 8.608 2.686 4.842 6.446 6.994-6.446-1.614-4.298-2.152-4.835-5.38 3.223 18.292 12.356 32.28-85.415 1.614 5.372-15.064 4.298-16.14 4.297-20.982-2.686 5.38-3.223 3.766-8.058 5.38-7.52 3.766 7.52-12.912 8.058-16.678 5.909-12.912 8.596-27.438-5.372 5.918-5.91 3.766-5.909 1.614 11.819-30.128 10.206-31.742 5.91-26.9Z" fill="url(#w)"/><path d="m228.992 615.764 11.742-78.248 15.195 87.942 6.907 31.161 10.36 30.468 18.648 47.087-11.741-6.232-6.907-4.847-6.907-7.617 6.907 25.621 6.907 26.313 4.144 11.08 3.453 6.232 8.288 9.002-8.288-2.078-5.525-2.769-6.216-6.925 4.144 23.544 15.885 41.547-109.818 2.078 6.906-19.389 5.526-20.774 5.525-27.006-3.453 6.925-4.144 4.847-10.36 6.924-9.67 4.848 9.67-16.619 10.36-21.467 7.597-16.619 11.051-35.315-6.907 7.617-7.597 4.847-7.598 2.077 15.195-38.777 13.123-40.855 7.598-34.623Z" fill="url(#x)"/><path d="m1418.74 564.157-9.67-64.128-12.51 72.073-5.69 25.538-8.53 24.97-15.36 38.591 9.67-5.108 5.69-3.972 5.69-6.243-5.69 20.998-5.69 21.565-3.41 9.08-2.84 5.107-6.83 7.378 6.83-1.703 4.55-2.27 5.12-5.675-3.42 19.296-13.08 34.05 90.44 1.702-5.69-15.89-4.55-17.025-4.55-22.133 2.84 5.675 3.42 3.973 8.53 5.675 7.96 3.973-7.96-13.621-8.53-17.592-6.26-13.62-9.1-28.943 5.69 6.243 6.25 3.972 6.26 1.703-12.51-31.781-10.81-33.482-6.26-28.376Z" fill="url(#y)"/><path d="m1602.27 722.696-9.67-64.128-12.52 72.073-5.68 25.538-8.54 24.97-15.35 38.591 9.67-5.108 5.68-3.972 5.69-6.243-5.69 20.998-5.68 21.565-3.42 9.08-2.84 5.108-6.83 7.377 6.83-1.702 4.55-2.27 5.12-5.676-3.41 19.296-13.09 34.05 90.44 1.702-5.69-15.89-4.55-17.025-4.55-22.133 2.85 5.676 3.41 3.972 8.53 5.675 7.97 3.973-7.97-13.62-8.53-17.593-6.26-13.62-9.1-28.943 5.69 6.243 6.26 3.972 6.25 1.703-12.51-31.781-10.81-33.482-6.25-28.376Z" fill="url(#z)"/><path d="m325.151 516.308 6.523-60.794 8.441 68.326 3.837 24.21 5.756 23.672 10.36 36.584-6.523-4.842-3.837-3.766-3.837-5.918 3.837 19.906 3.837 20.444 2.303 8.608 1.918 4.842 4.605 6.994-4.605-1.614-3.07-2.152-3.453-5.38 2.302 18.292 8.826 32.28-61.011 1.614 3.837-15.064 3.07-16.14 3.07-20.982-1.919 5.38-2.302 3.766-5.756 5.38-5.372 3.766 5.372-12.912 5.756-16.678 4.221-12.912 6.139-27.438-3.837 5.918-4.221 3.766-4.221 1.614 8.442-30.128 7.291-31.742 4.221-26.9Z" fill="url(#A)"/><path d="m744.935 398.193 2.072-19.218 2.682 21.6 1.219 7.653 1.828 7.483 3.291 11.566-2.072-1.531-1.219-1.191-1.219-1.87 1.219 6.293 1.219 6.462.731 2.722.609 1.53 1.463 2.211-1.463-.51-.975-.68-1.097-1.701.732 5.783 2.803 10.204-19.38.511 1.219-4.763.975-5.102.975-6.633-.609 1.701-.731 1.19-1.829 1.701-1.706 1.191 1.706-4.082 1.829-5.273 1.34-4.081 1.95-8.674-1.218 1.87-1.341 1.191-1.341.51 2.682-9.524 2.315-10.035 1.341-8.504Z" fill="url(#B)"/><path d="m829.283 477.074 2.072-19.219 2.681 21.6 1.219 7.654 1.828 7.483 3.291 11.566-2.072-1.531-1.219-1.191-1.218-1.871 1.218 6.293 1.219 6.463.732 2.722.609 1.53 1.463 2.211-1.463-.51-.975-.68-1.097-1.701.731 5.783 2.804 10.204-19.38.511 1.219-4.763.975-5.102.975-6.633-.609 1.701-.732 1.19-1.828 1.701-1.706 1.191 1.706-4.082 1.828-5.273 1.341-4.082 1.95-8.674-1.219 1.871-1.34 1.191-1.341.51 2.681-9.524 2.316-10.035 1.341-8.504Z" fill="url(#C)"/><path d="m1343.94 499.721 2.07-19.219 2.68 21.6 1.22 7.653 1.83 7.484 3.29 11.565-2.08-1.531-1.21-1.19-1.22-1.871 1.22 6.293 1.21 6.463.74 2.721.61 1.531 1.46 2.211-1.46-.51-.98-.681-1.1-1.701.73 5.783 2.81 10.205-19.38.51 1.22-4.762.97-5.103.98-6.633-.61 1.701-.73 1.191-1.83 1.701-1.71 1.19 1.71-4.082 1.83-5.272 1.34-4.082 1.95-8.674-1.22 1.871-1.34 1.19-1.34.511 2.68-9.525 2.31-10.034 1.35-8.504Z" fill="url(#D)"/><path d="m1368.15 480.979 2.07-19.219 2.68 21.6 1.22 7.653 1.83 7.484 3.29 11.565-2.07-1.531-1.22-1.19-1.22-1.871 1.22 6.293 1.22 6.463.73 2.721.61 1.531 1.46 2.211-1.46-.511-.97-.68-1.1-1.701.73 5.783 2.8 10.205-19.38.51 1.22-4.762.98-5.103.97-6.633-.61 1.701-.73 1.191-1.83 1.7-1.7 1.191 1.7-4.082 1.83-5.272 1.34-4.082 1.95-8.674-1.22 1.871-1.34 1.19-1.34.51 2.68-9.524 2.32-10.035 1.34-8.503Z" fill="url(#E)"/><path d="m1328.32 537.988 2.07-19.218 2.69 21.599 1.21 7.654 1.83 7.483 3.29 11.566-2.07-1.531-1.22-1.191-1.22-1.87 1.22 6.292 1.22 6.463.73 2.722.61 1.53 1.46 2.211-1.46-.51-.97-.68-1.1-1.701.73 5.783 2.8 10.204-19.38.511 1.22-4.763.98-5.102.97-6.633-.61 1.701-.73 1.19-1.83 1.701-1.7 1.191 1.7-4.082 1.83-5.273 1.34-4.081 1.95-8.674-1.21 1.87-1.35 1.191-1.34.51 2.69-9.524 2.31-10.035 1.34-8.504Z" fill="url(#F)"/><path d="m1548.55 440.369 2.07-19.219 2.69 21.6 1.21 7.654 1.83 7.483 3.29 11.566-2.07-1.531-1.22-1.191-1.22-1.871 1.22 6.293 1.22 6.463.73 2.721.61 1.531 1.47 2.211-1.47-.51-.97-.68-1.1-1.701.73 5.783 2.81 10.204-19.38.51 1.21-4.762.98-5.102.97-6.633-.6 1.701-.74 1.19-1.82 1.701-1.71 1.191 1.71-4.082 1.82-5.273 1.34-4.082 1.95-8.674-1.21 1.871-1.34 1.191-1.35.51 2.69-9.524 2.31-10.035 1.34-8.504Z" fill="url(#G)"/><path d="m1422.04 442.709 2.07-19.219 2.68 21.6 1.22 7.654 1.83 7.483 3.29 11.565-2.07-1.53-1.22-1.191-1.22-1.871 1.22 6.293 1.22 6.463.73 2.721.61 1.531 1.46 2.211-1.46-.51-.98-.68-1.1-1.701.74 5.782 2.8 10.205-19.38.51 1.22-4.762.97-5.102.98-6.633-.61 1.701-.73 1.19-1.83 1.701-1.71 1.19 1.71-4.081 1.83-5.273 1.34-4.082 1.95-8.674-1.22 1.871-1.34 1.191-1.34.51 2.68-9.524 2.32-10.035 1.34-8.504Z" fill="url(#H)"/><path d="m1471.24 438.807 2.07-19.219 2.68 21.6 1.22 7.653 1.83 7.484 3.29 11.565-2.07-1.531-1.22-1.19-1.22-1.871 1.22 6.293 1.22 6.463.73 2.721.61 1.531 1.46 2.211-1.46-.511-.98-.68-1.1-1.701.74 5.783 2.8 10.205-19.38.51 1.22-4.762.97-5.103.98-6.633-.61 1.701-.73 1.191-1.83 1.7-1.71 1.191 1.71-4.082 1.83-5.272 1.34-4.082 1.95-8.674-1.22 1.871-1.34 1.19-1.34.511 2.68-9.525 2.32-10.034 1.34-8.504Z" fill="url(#I)"/><path d="m1450.15 434.121 2.08-19.219 2.68 21.6 1.22 7.654 1.82 7.483 3.3 11.565-2.08-1.53-1.22-1.191-1.21-1.871 1.21 6.293 1.22 6.463.73 2.721.61 1.531 1.47 2.211-1.47-.51-.97-.68-1.1-1.701.73 5.782 2.81 10.205-19.38.51 1.22-4.762.97-5.102.98-6.633-.61 1.701-.73 1.19-1.83 1.701-1.71 1.19 1.71-4.081 1.83-5.273 1.34-4.082 1.95-8.674-1.22 1.871-1.34 1.191-1.34.51 2.68-9.524 2.31-10.035 1.34-8.504Z" fill="url(#J)"/><path d="m1032.33 542.676 2.08-19.219 2.68 21.6 1.22 7.653 1.82 7.484 3.3 11.565-2.08-1.531-1.22-1.19-1.21-1.871 1.21 6.293 1.22 6.463.73 2.721.61 1.531 1.47 2.211-1.47-.51-.97-.681-1.1-1.7.73 5.782 2.81 10.205-19.38.51 1.22-4.762.97-5.102.98-6.633-.61 1.7-.74 1.191-1.82 1.701-1.71 1.19 1.71-4.082 1.82-5.272 1.35-4.082 1.95-8.674-1.22 1.871-1.34 1.19-1.34.511 2.68-9.525 2.31-10.034 1.34-8.504Z" fill="url(#K)"/><path d="m1299.43 548.143 2.07-19.219 2.68 21.6 1.22 7.653 1.83 7.484 3.29 11.565-2.07-1.531-1.22-1.19-1.22-1.871 1.22 6.293 1.22 6.463.73 2.721.61 1.531 1.46 2.211-1.46-.511-.98-.68-1.09-1.701.73 5.783 2.8 10.205-19.38.51 1.22-4.762.97-5.103.98-6.633-.61 1.701-.73 1.191-1.83 1.7-1.71 1.191 1.71-4.082 1.83-5.272 1.34-4.082 1.95-8.674-1.22 1.871-1.34 1.19-1.34.51 2.68-9.524 2.32-10.034 1.34-8.504Z" fill="url(#L)"/><path d="m766.029 423.969 2.072-19.219 2.681 21.6 1.219 7.653 1.829 7.484 3.29 11.565-2.072-1.531-1.218-1.19-1.219-1.871 1.219 6.293 1.218 6.463.732 2.721.609 1.531 1.463 2.211-1.463-.51-.975-.681-1.097-1.701.731 5.783 2.804 10.205-19.38.51 1.219-4.762.975-5.102.975-6.634-.609 1.701-.732 1.191-1.828 1.701-1.706 1.19 1.706-4.082 1.828-5.272 1.341-4.082 1.95-8.674-1.219 1.871-1.34 1.19-1.341.511 2.681-9.525 2.316-10.034 1.341-8.504Z" fill="url(#M)"/><path d="m474.716 400.537 2.072-19.219 2.682 21.6 1.219 7.654 1.828 7.483 3.291 11.565-2.072-1.53-1.219-1.191-1.219-1.871 1.219 6.293 1.219 6.463.731 2.721.61 1.531 1.462 2.211-1.462-.51-.975-.68-1.097-1.701.731 5.783 2.803 10.204-19.379.51 1.218-4.762.975-5.102.976-6.633-.61 1.701-.731 1.19-1.828 1.701-1.707 1.191 1.707-4.082 1.828-5.273 1.341-4.082 1.95-8.674-1.219 1.871-1.341 1.191-1.341.51 2.682-9.524 2.316-10.035 1.34-8.504Z" fill="url(#N)"/><path d="m545.005 340.406 2.073-19.218 2.681 21.599 1.219 7.654 1.828 7.483 3.291 11.566-2.072-1.531-1.219-1.191-1.219-1.87 1.219 6.292 1.219 6.463.731 2.722.61 1.53 1.462 2.211-1.462-.51-.975-.68-1.097-1.701.731 5.783 2.803 10.204-19.379.511 1.218-4.763.976-5.102.975-6.633-.61 1.701-.731 1.19-1.828 1.701-1.707 1.191 1.707-4.082 1.828-5.273 1.341-4.082 1.95-8.673-1.219 1.87-1.341 1.191-1.341.51 2.682-9.524 2.316-10.035 1.34-8.504Z" fill="url(#O)"/><path d="m450.509 429.434 2.072-19.219 2.682 21.6 1.219 7.653 1.828 7.484 3.291 11.565-2.072-1.531-1.219-1.19-1.219-1.871 1.219 6.293 1.219 6.463.731 2.721.61 1.531 1.462 2.211-1.462-.511-.975-.68-1.097-1.701.731 5.783 2.803 10.205-19.38.51 1.219-4.762.975-5.103.976-6.633-.61 1.701-.731 1.191-1.829 1.7-1.706 1.191 1.706-4.082 1.829-5.272 1.341-4.082 1.95-8.674-1.219 1.871-1.341 1.19-1.341.51 2.682-9.524 2.316-10.034 1.34-8.504Z" fill="url(#P)"/><path d="m360.701 477.074 2.072-19.219 2.681 21.6 1.219 7.654 1.828 7.483 3.291 11.566-2.072-1.531-1.219-1.191-1.218-1.871 1.218 6.293 1.219 6.463.732 2.722.609 1.53 1.463 2.211-1.463-.51-.975-.68-1.097-1.701.731 5.783 2.804 10.204-19.38.511 1.219-4.763.975-5.102.975-6.633-.61 1.701-.731 1.19-1.828 1.701-1.706 1.191 1.706-4.082 1.828-5.273 1.341-4.082 1.95-8.674-1.219 1.871-1.341 1.191-1.34.51 2.681-9.524 2.316-10.035 1.341-8.504Z" fill="url(#Q)"/><path d="m388.814 460.672 2.072-19.219 2.682 21.6 1.218 7.654 1.829 7.483 3.291 11.565-2.072-1.53-1.219-1.191-1.219-1.871 1.219 6.293 1.219 6.463.731 2.721.609 1.531 1.463 2.211-1.463-.51-.975-.681-1.097-1.7.732 5.782 2.803 10.205-19.38.51 1.219-4.762.975-5.102.975-6.633-.609 1.7-.732 1.191-1.828 1.701-1.706 1.19 1.706-4.082 1.828-5.272 1.341-4.082 1.95-8.674-1.218 1.871-1.341 1.191-1.341.51 2.682-9.525 2.315-10.034 1.341-8.504Z" fill="url(#R)"/><path d="m306.029 491.912 2.072-19.219 2.681 21.6 1.219 7.654 1.829 7.483 3.29 11.565-2.072-1.53-1.218-1.191-1.219-1.871 1.219 6.293 1.218 6.463.732 2.721.609 1.531 1.463 2.211-1.463-.51-.975-.68-1.097-1.701.731 5.783 2.804 10.204-19.38.51 1.219-4.762.975-5.102.975-6.633-.609 1.701-.732 1.19-1.828 1.701-1.706 1.191 1.706-4.082 1.828-5.273 1.341-4.082 1.95-8.674-1.219 1.871-1.34 1.191-1.341.51 2.681-9.524 2.316-10.035 1.341-8.504Z" fill="url(#S)"/><path d="m787.48 455.181 1.458-13.728 1.887 15.429.857 5.466 1.287 5.346 2.316 8.261-1.458-1.094-.858-.85-.858-1.336.858 4.494.858 4.617.514 1.944.429 1.093 1.029 1.579-1.029-.364-.686-.486-.772-1.215.515 4.131 1.972 7.289-13.637.364.857-3.402.687-3.644.686-4.738-.429 1.215-.515.85-1.286 1.215-1.201.851 1.201-2.916 1.286-3.766.944-2.916 1.372-6.195-.858 1.336-.943.85-.944.365 1.887-6.803 1.63-7.168.944-6.074Z" fill="url(#T)"/><path d="m496.187 384.896 1.458-13.728 1.887 15.428.857 5.467 1.287 5.346 2.316 8.26-1.458-1.093-.858-.85-.858-1.337.858 4.495.858 4.617.514 1.943.429 1.094 1.029 1.579-1.029-.364-.686-.486-.772-1.215.515 4.13 1.972 7.289-13.637.365.857-3.402.687-3.644.686-4.738-.429 1.215-.515.85-1.286 1.215-1.201.85 1.201-2.915 1.286-3.766.944-2.916 1.372-6.196-.858 1.337-.943.85-.944.365 1.887-6.804 1.63-7.167.944-6.074Z" fill="url(#U)"/><path d="m853.87 509.853 1.458-13.728 1.887 15.428.858 5.467 1.287 5.346 2.315 8.261-1.458-1.094-.857-.85-.858-1.337.858 4.495.857 4.617.515 1.943.429 1.094 1.029 1.579-1.029-.364-.686-.486-.772-1.215.514 4.13 1.973 7.289-13.638.365.858-3.402.686-3.644.686-4.738-.428 1.215-.515.85-1.287 1.215-1.2.85 1.2-2.915 1.287-3.766.943-2.916 1.373-6.196-.858 1.337-.943.85-.944.365 1.887-6.804 1.63-7.167.943-6.074Z" fill="url(#V)"/><path d="m511.026 376.308 1.459-13.728 1.887 15.429.857 5.466 1.287 5.346 2.316 8.261-1.459-1.094-.857-.85-.858-1.336.858 4.494.857 4.617.515 1.944.429 1.093 1.029 1.579-1.029-.364-.686-.486-.772-1.215.514 4.13 1.973 7.29-13.637.364.857-3.402.686-3.644.687-4.738-.429 1.215-.515.85-1.286 1.215-1.201.85 1.201-2.915 1.286-3.766.944-2.916 1.372-6.195-.858 1.336-.943.85-.944.365 1.887-6.803 1.63-7.168.943-6.074Z" fill="url(#W)"/><path d="m1523.94 448.157 1.46-13.727 1.89 15.428.86 5.467 1.28 5.345 2.32 8.261-1.46-1.093-.86-.851-.85-1.336.85 4.495.86 4.616.52 1.944.42 1.094 1.03 1.579-1.03-.365-.68-.486-.77-1.214.51 4.13 1.97 7.289-13.63.365.85-3.402.69-3.645.69-4.737-.43 1.214-.52.851-1.28 1.215-1.2.85 1.2-2.916 1.28-3.766.95-2.915 1.37-6.196-.86 1.336-.94.851-.95.364 1.89-6.803 1.63-7.167.94-6.075Z" fill="url(#X)"/><path d="m1504.42 456.745 1.46-13.727 1.88 15.428.86 5.467 1.29 5.345 2.31 8.261-1.46-1.093-.85-.851-.86-1.336.86 4.495.85 4.616.52 1.944.43 1.093 1.03 1.58-1.03-.365-.69-.486-.77-1.215.51 4.131 1.98 7.289-13.64.364.86-3.401.68-3.645.69-4.738-.43 1.215-.51.851-1.29 1.215-1.2.85 1.2-2.916 1.29-3.766.94-2.915 1.37-6.196-.86 1.336-.94.851-.94.364 1.88-6.803 1.63-7.167.95-6.075Z" fill="url(#Y)"/><path d="m985.858 541.87 1.459-13.727 1.887 15.428.857 5.467 1.287 5.345 2.316 8.261-1.458-1.093-.858-.851-.858-1.336.858 4.495.858 4.616.514 1.944.429 1.093 1.029 1.58-1.029-.365-.686-.486-.772-1.215.515 4.131 1.972 7.289-13.637.364.857-3.401.687-3.645.686-4.738-.429 1.215-.515.851-1.286 1.215-1.201.85 1.201-2.916 1.286-3.766.944-2.915 1.372-6.196-.858 1.336-.943.851-.944.364 1.887-6.803 1.63-7.167.943-6.075Z" fill="url(#Z)"/><path d="m1050.68 569.206 1.46-13.727 1.88 15.428.86 5.467 1.29 5.345 2.31 8.261-1.45-1.093-.86-.851-.86-1.336.86 4.495.86 4.616.51 1.944.43 1.093 1.03 1.58-1.03-.365-.69-.486-.77-1.215.52 4.131 1.97 7.289-13.64.364.86-3.401.68-3.645.69-4.738-.43 1.215-.51.851-1.29 1.215-1.2.85 1.2-2.916 1.29-3.766.94-2.915 1.37-6.196-.85 1.336-.95.851-.94.364 1.89-6.803 1.63-7.168.94-6.074Z" fill="url(#aa)"/><path d="m1204.13 659.772.84-8.237 1.09 9.257.5 3.28.74 3.208 1.34 4.956-.84-.656-.5-.51-.49-.802.49 2.697.5 2.77.3 1.166.25.656.59.948-.59-.219-.4-.292-.45-.728.3 2.478 1.14 4.373-7.89.219.49-2.041.4-2.187.4-2.842-.25.728-.3.511-.74.729-.7.51.7-1.75.74-2.259.55-1.75.79-3.717-.49.802-.55.51-.55.219 1.1-4.082.94-4.301.55-3.644Z" fill="url(#ab)"/><path d="m1212.72 654.305.84-8.237 1.09 9.257.5 3.281.74 3.207 1.34 4.956-.84-.656-.5-.51-.49-.802.49 2.697.5 2.77.3 1.166.25.656.59.948-.59-.219-.4-.291-.45-.729.3 2.478 1.14 4.373-7.89.219.49-2.041.4-2.187.4-2.842-.25.729-.3.51-.74.729-.7.51.7-1.749.74-2.26.55-1.749.79-3.718-.49.802-.55.51-.55.219 1.1-4.082.94-4.3.55-3.645Z" fill="url(#ac)"/><path d="m526.243 373.157.844-8.237 1.092 9.257.497 3.28.745 3.207 1.34 4.957-.844-.656-.496-.51-.497-.802.497 2.697.496 2.77.298 1.166.249.656.595.947-.595-.218-.398-.292-.447-.729.298 2.479 1.142 4.373-7.895.219.497-2.041.397-2.187.397-2.843-.248.729-.298.51-.745.729-.695.511.695-1.75.745-2.259.546-1.75.795-3.717-.497.802-.546.51-.546.218 1.092-4.081.943-4.301.547-3.644Z" fill="url(#ad)"/><path d="m565.297 356.758.845-8.237 1.092 9.258.497 3.28.744 3.207 1.341 4.956-.844-.656-.497-.51-.496-.802.496 2.697.497 2.77.298 1.166.248.656.596.948-.596-.219-.397-.291-.447-.729.298 2.478 1.142 4.374-7.895.218.496-2.041.397-2.186.398-2.843-.249.729-.298.51-.744.729-.696.51.696-1.749.744-2.26.547-1.749.794-3.718-.496.802-.547.51-.546.219 1.093-4.082.943-4.3.546-3.645Z" fill="url(#ae)"/><path d="m1008.5 548.118 1.46-13.727 1.89 15.428.86 5.467 1.28 5.345 2.32 8.261-1.46-1.093-.86-.851-.86-1.336.86 4.495.86 4.616.51 1.944.43 1.093 1.03 1.58-1.03-.365-.68-.486-.77-1.214.51 4.13 1.97 7.289-13.63.365.85-3.402.69-3.645.69-4.737-.43 1.214-.52.851-1.28 1.215-1.21.85 1.21-2.916 1.28-3.766.95-2.915 1.37-6.196-.86 1.336-.94.851-.95.364 1.89-6.803 1.63-7.167.94-6.075Z" fill="url(#af)"/><path d="m1225.61 637.929 1.46-13.728 1.89 15.429.86 5.466 1.28 5.346 2.32 8.261-1.46-1.094-.86-.85-.86-1.336.86 4.495.86 4.616.51 1.944.43 1.093 1.03 1.579-1.03-.364-.68-.486-.78-1.215.52 4.131 1.97 7.289-13.64.364.86-3.402.69-3.644.68-4.738-.42 1.215-.52.85-1.29 1.215-1.2.851 1.2-2.916 1.29-3.766.94-2.916 1.38-6.195-.86 1.336-.94.85-.95.365 1.89-6.803 1.63-7.168.94-6.074Z" fill="url(#ag)"/><path d="m1489.59 444.249 1.45-13.728 1.89 15.429.86 5.467 1.28 5.345 2.32 8.261-1.46-1.093-.86-.851-.85-1.336.85 4.495.86 4.616.52 1.944.43 1.093 1.02 1.58-1.02-.365-.69-.486-.77-1.215.51 4.131 1.97 7.289-13.63.364.85-3.401.69-3.645.69-4.738-.43 1.215-.52.851-1.28 1.214-1.2.851 1.2-2.916 1.28-3.766.95-2.915 1.37-6.196-.86 1.336-.94.851-.95.364 1.89-6.803 1.63-7.168.95-6.074Z" fill="url(#ah)"/><path d="m1318.55 537.185 1.46-13.728 1.88 15.429.86 5.466 1.29 5.346 2.32 8.261-1.46-1.094-.86-.85-.86-1.337.86 4.495.86 4.617.51 1.944.43 1.093 1.03 1.579-1.03-.364-.69-.486-.77-1.215.52 4.13 1.97 7.289-13.64.365.86-3.402.69-3.644.68-4.738-.43 1.215-.51.85-1.29 1.215-1.2.85 1.2-2.915 1.29-3.766.94-2.916 1.37-6.196-.85 1.337-.95.85-.94.365 1.89-6.803 1.63-7.168.94-6.074Z" fill="url(#ai)"/><path d="m1572.63 576.392-5.29-49.812-6.86 55.983-3.11 19.837-4.67 19.396-8.41 29.975 5.29-3.967 3.12-3.086 3.11-4.849-3.11 16.31-3.12 16.751-1.87 7.053-1.55 3.968-3.74 5.73 3.74-1.322 2.49-1.763 2.8-4.409-1.87 14.988-7.16 26.449 49.52 1.322-3.11-12.342-2.49-13.225-2.49-17.192 1.55 4.409 1.87 3.085 4.67 4.408 4.36 3.086-4.36-10.579-4.67-13.666-3.42-10.579-4.99-22.482 3.12 4.849 3.42 3.086 3.43 1.322-6.85-24.685-5.92-26.008-3.43-22.041Z" fill="url(#aj)"/></g><defs><linearGradient id="b" x1="497" y1="70" x2="497" y2="791.435" gradientUnits="userSpaceOnUse"><stop stop-color="#20DDAE"/><stop offset="1" stop-color="#16355C" stop-opacity="0"/></linearGradient><linearGradient id="c" x1="873.32" y1="365.703" x2="873.32" y2="951.429" gradientUnits="userSpaceOnUse"><stop stop-color="#20DDAE"/><stop offset="1" stop-color="#052A60" stop-opacity="0"/></linearGradient><linearGradient id="d" x1="113.441" y1="422.715" x2="113.441" y2="598.433" gradientUnits="userSpaceOnUse"><stop stop-color="#20DDAE"/><stop offset="1" stop-color="#0D124C" stop-opacity="0"/></linearGradient><linearGradient id="e" x1="426.605" y1="398.502" x2="426.605" y2="574.22" gradientUnits="userSpaceOnUse"><stop stop-color="#20DDAE"/><stop offset="1" stop-color="#0D124C" stop-opacity="0"/></linearGradient><linearGradient id="f" x1="1489.7" y1="480.502" x2="1489.7" y2="624.2" gradientUnits="userSpaceOnUse"><stop stop-color="#20DDAE"/><stop offset="1" stop-color="#0D124C" stop-opacity="0"/></linearGradient><linearGradient id="g" x1="269.05" y1="365.703" x2="269.05" y2="607.804" gradientUnits="userSpaceOnUse"><stop stop-color="#20DDAE"/><stop offset="1" stop-color="#0D124C" stop-opacity="0"/></linearGradient><linearGradient id="h" x1="527.548" y1="598.43" x2="527.548" y2="754.624" gradientUnits="userSpaceOnUse"><stop stop-color="#20DDAE"/><stop offset="1" stop-color="#094371" stop-opacity="0"/></linearGradient><linearGradient id="i" x1="616.575" y1="625.76" x2="616.575" y2="781.954" gradientUnits="userSpaceOnUse"><stop stop-color="#20DDAE"/><stop offset="1" stop-color="#094371" stop-opacity="0"/></linearGradient><linearGradient id="j" x1="452.187" y1="635.137" x2="452.187" y2="813.979" gradientUnits="userSpaceOnUse"><stop stop-color="#20DDAE"/><stop offset="1" stop-color="#094371" stop-opacity="0"/></linearGradient><linearGradient id="k" x1="565.81" y1="496.125" x2="565.81" y2="652.319" gradientUnits="userSpaceOnUse"><stop stop-color="#20DDAE"/><stop offset="1" stop-color="#094371" stop-opacity="0"/></linearGradient><linearGradient id="l" x1="706.387" y1="625.76" x2="706.387" y2="733.534" gradientUnits="userSpaceOnUse"><stop stop-color="#20DDAE"/><stop offset="1" stop-color="#094371" stop-opacity="0"/></linearGradient><linearGradient id="m" x1="767.301" y1="605.459" x2="767.301" y2="713.233" gradientUnits="userSpaceOnUse"><stop stop-color="#20DDAE"/><stop offset="1" stop-color="#094371" stop-opacity="0"/></linearGradient><linearGradient id="n" x1="465.848" y1="537.516" x2="465.848" y2="645.289" gradientUnits="userSpaceOnUse"><stop stop-color="#20DDAE"/><stop offset="1" stop-color="#094371" stop-opacity="0"/></linearGradient><linearGradient id="o" x1="1233.54" y1="667.938" x2="1233.54" y2="824.131" gradientUnits="userSpaceOnUse"><stop stop-color="#20DDAE"/><stop offset="1" stop-color="#094371" stop-opacity="0"/></linearGradient><linearGradient id="p" x1="1293.68" y1="624.201" x2="1293.68" y2="780.395" gradientUnits="userSpaceOnUse"><stop stop-color="#20DDAE"/><stop offset="1" stop-color="#094371" stop-opacity="0"/></linearGradient><linearGradient id="q" x1="577.532" y1="625.76" x2="577.532" y2="729.629" gradientUnits="userSpaceOnUse"><stop stop-color="#20DDAE"/><stop offset="1" stop-color="#094371" stop-opacity="0"/></linearGradient><linearGradient id="r" x1="636.883" y1="555.479" x2="636.883" y2="659.347" gradientUnits="userSpaceOnUse"><stop stop-color="#20DDAE"/><stop offset="1" stop-color="#094371" stop-opacity="0"/></linearGradient><linearGradient id="s" x1="1183.56" y1="672.623" x2="1183.56" y2="776.492" gradientUnits="userSpaceOnUse"><stop stop-color="#20DDAE"/><stop offset="1" stop-color="#094371" stop-opacity="0"/></linearGradient><linearGradient id="t" x1="1354.59" y1="719.479" x2="1354.59" y2="823.347" gradientUnits="userSpaceOnUse"><stop stop-color="#20DDAE"/><stop offset="1" stop-color="#094371" stop-opacity="0"/></linearGradient><linearGradient id="u" x1="676.704" y1="615.613" x2="676.704" y2="719.482" gradientUnits="userSpaceOnUse"><stop stop-color="#20DDAE"/><stop offset="1" stop-color="#094371" stop-opacity="0"/></linearGradient><linearGradient id="v" x1="1618.56" y1="453.168" x2="1618.56" y2="651.534" gradientUnits="userSpaceOnUse"><stop stop-color="#20DDAE"/><stop offset="1" stop-color="#0D124C" stop-opacity="0"/></linearGradient><linearGradient id="w" x1="176.112" y1="416.465" x2="176.112" y2="658.565" gradientUnits="userSpaceOnUse"><stop stop-color="#20DDAE"/><stop offset="1" stop-color="#0D124C" stop-opacity="0"/></linearGradient><linearGradient id="x" x1="236.244" y1="537.516" x2="236.244" y2="849.123" gradientUnits="userSpaceOnUse"><stop stop-color="#20DDAE"/><stop offset="1" stop-color="#0D124C" stop-opacity="0"/></linearGradient><linearGradient id="y" x1="1412.77" y1="500.029" x2="1412.77" y2="755.406" gradientUnits="userSpaceOnUse"><stop stop-color="#20DDAE"/><stop offset="1" stop-color="#0D124C" stop-opacity="0"/></linearGradient><linearGradient id="z" x1="1596.29" y1="658.568" x2="1596.29" y2="913.945" gradientUnits="userSpaceOnUse"><stop stop-color="#20DDAE"/><stop offset="1" stop-color="#0D124C" stop-opacity="0"/></linearGradient><linearGradient id="A" x1="329.179" y1="455.514" x2="329.179" y2="697.614" gradientUnits="userSpaceOnUse"><stop stop-color="#20DDAE"/><stop offset="1" stop-color="#0D124C" stop-opacity="0"/></linearGradient><linearGradient id="B" x1="746.215" y1="378.975" x2="746.215" y2="455.51" gradientUnits="userSpaceOnUse"><stop stop-color="#20DDAE"/><stop offset="1" stop-color="#062B61" stop-opacity="0"/></linearGradient><linearGradient id="C" x1="830.563" y1="457.855" x2="830.563" y2="534.391" gradientUnits="userSpaceOnUse"><stop stop-color="#20DDAE"/><stop offset="1" stop-color="#062B61" stop-opacity="0"/></linearGradient><linearGradient id="D" x1="1345.21" y1="480.502" x2="1345.21" y2="557.037" gradientUnits="userSpaceOnUse"><stop stop-color="#20DDAE"/><stop offset="1" stop-color="#062B61" stop-opacity="0"/></linearGradient><linearGradient id="E" x1="1369.43" y1="461.76" x2="1369.43" y2="538.295" gradientUnits="userSpaceOnUse"><stop stop-color="#20DDAE"/><stop offset="1" stop-color="#062B61" stop-opacity="0"/></linearGradient><linearGradient id="F" x1="1329.6" y1="518.77" x2="1329.6" y2="595.305" gradientUnits="userSpaceOnUse"><stop stop-color="#20DDAE"/><stop offset="1" stop-color="#062B61" stop-opacity="0"/></linearGradient><linearGradient id="G" x1="1549.83" y1="421.15" x2="1549.83" y2="497.685" gradientUnits="userSpaceOnUse"><stop stop-color="#20DDAE"/><stop offset="1" stop-color="#062B61" stop-opacity="0"/></linearGradient><linearGradient id="H" x1="1423.32" y1="423.49" x2="1423.32" y2="500.025" gradientUnits="userSpaceOnUse"><stop stop-color="#20DDAE"/><stop offset="1" stop-color="#062B61" stop-opacity="0"/></linearGradient><linearGradient id="I" x1="1472.52" y1="419.588" x2="1472.52" y2="496.123" gradientUnits="userSpaceOnUse"><stop stop-color="#20DDAE"/><stop offset="1" stop-color="#062B61" stop-opacity="0"/></linearGradient><linearGradient id="J" x1="1451.43" y1="414.902" x2="1451.43" y2="491.437" gradientUnits="userSpaceOnUse"><stop stop-color="#20DDAE"/><stop offset="1" stop-color="#062B61" stop-opacity="0"/></linearGradient><linearGradient id="K" x1="1033.61" y1="523.457" x2="1033.61" y2="599.992" gradientUnits="userSpaceOnUse"><stop stop-color="#20DDAE"/><stop offset="1" stop-color="#062B61" stop-opacity="0"/></linearGradient><linearGradient id="L" x1="1300.71" y1="528.924" x2="1300.71" y2="605.459" gradientUnits="userSpaceOnUse"><stop stop-color="#20DDAE"/><stop offset="1" stop-color="#062B61" stop-opacity="0"/></linearGradient><linearGradient id="M" x1="767.309" y1="404.75" x2="767.309" y2="481.285" gradientUnits="userSpaceOnUse"><stop stop-color="#20DDAE"/><stop offset="1" stop-color="#062B61" stop-opacity="0"/></linearGradient><linearGradient id="N" x1="475.996" y1="381.318" x2="475.996" y2="457.853" gradientUnits="userSpaceOnUse"><stop stop-color="#20DDAE"/><stop offset="1" stop-color="#062B61" stop-opacity="0"/></linearGradient><linearGradient id="O" x1="546.285" y1="321.188" x2="546.285" y2="397.723" gradientUnits="userSpaceOnUse"><stop stop-color="#20DDAE"/><stop offset="1" stop-color="#062B61" stop-opacity="0"/></linearGradient><linearGradient id="P" x1="451.789" y1="410.215" x2="451.789" y2="486.75" gradientUnits="userSpaceOnUse"><stop stop-color="#20DDAE"/><stop offset="1" stop-color="#062B61" stop-opacity="0"/></linearGradient><linearGradient id="Q" x1="361.981" y1="457.855" x2="361.981" y2="534.391" gradientUnits="userSpaceOnUse"><stop stop-color="#20DDAE"/><stop offset="1" stop-color="#062B61" stop-opacity="0"/></linearGradient><linearGradient id="R" x1="390.094" y1="441.453" x2="390.094" y2="517.988" gradientUnits="userSpaceOnUse"><stop stop-color="#20DDAE"/><stop offset="1" stop-color="#062B61" stop-opacity="0"/></linearGradient><linearGradient id="S" x1="307.309" y1="472.693" x2="307.309" y2="549.228" gradientUnits="userSpaceOnUse"><stop stop-color="#20DDAE"/><stop offset="1" stop-color="#062B61" stop-opacity="0"/></linearGradient><linearGradient id="T" x1="788.38" y1="441.453" x2="788.38" y2="496.121" gradientUnits="userSpaceOnUse"><stop stop-color="#20DDAE"/><stop offset="1" stop-color="#062B61" stop-opacity="0"/></linearGradient><linearGradient id="U" x1="497.087" y1="371.168" x2="497.087" y2="425.836" gradientUnits="userSpaceOnUse"><stop stop-color="#20DDAE"/><stop offset="1" stop-color="#062B61" stop-opacity="0"/></linearGradient><linearGradient id="V" x1="854.771" y1="496.125" x2="854.771" y2="550.793" gradientUnits="userSpaceOnUse"><stop stop-color="#20DDAE"/><stop offset="1" stop-color="#062B61" stop-opacity="0"/></linearGradient><linearGradient id="W" x1="511.927" y1="362.58" x2="511.927" y2="417.248" gradientUnits="userSpaceOnUse"><stop stop-color="#20DDAE"/><stop offset="1" stop-color="#062B61" stop-opacity="0"/></linearGradient><linearGradient id="X" x1="1524.84" y1="434.43" x2="1524.84" y2="489.098" gradientUnits="userSpaceOnUse"><stop stop-color="#20DDAE"/><stop offset="1" stop-color="#062B61" stop-opacity="0"/></linearGradient><linearGradient id="Y" x1="1505.32" y1="443.018" x2="1505.32" y2="497.685" gradientUnits="userSpaceOnUse"><stop stop-color="#20DDAE"/><stop offset="1" stop-color="#062B61" stop-opacity="0"/></linearGradient><linearGradient id="Z" x1="986.759" y1="528.143" x2="986.759" y2="582.81" gradientUnits="userSpaceOnUse"><stop stop-color="#20DDAE"/><stop offset="1" stop-color="#062B61" stop-opacity="0"/></linearGradient><linearGradient id="aa" x1="1051.58" y1="555.479" x2="1051.58" y2="610.146" gradientUnits="userSpaceOnUse"><stop stop-color="#20DDAE"/><stop offset="1" stop-color="#062B61" stop-opacity="0"/></linearGradient><linearGradient id="ab" x1="1204.65" y1="651.535" x2="1204.65" y2="684.336" gradientUnits="userSpaceOnUse"><stop stop-color="#20DDAE"/><stop offset="1" stop-color="#062B61" stop-opacity="0"/></linearGradient><linearGradient id="ac" x1="1213.24" y1="646.068" x2="1213.24" y2="678.869" gradientUnits="userSpaceOnUse"><stop stop-color="#20DDAE"/><stop offset="1" stop-color="#062B61" stop-opacity="0"/></linearGradient><linearGradient id="ad" x1="526.764" y1="364.92" x2="526.764" y2="397.721" gradientUnits="userSpaceOnUse"><stop stop-color="#20DDAE"/><stop offset="1" stop-color="#062B61" stop-opacity="0"/></linearGradient><linearGradient id="ae" x1="565.819" y1="348.521" x2="565.819" y2="381.322" gradientUnits="userSpaceOnUse"><stop stop-color="#20DDAE"/><stop offset="1" stop-color="#062B61" stop-opacity="0"/></linearGradient><linearGradient id="af" x1="1009.4" y1="534.391" x2="1009.4" y2="589.059" gradientUnits="userSpaceOnUse"><stop stop-color="#20DDAE"/><stop offset="1" stop-color="#062B61" stop-opacity="0"/></linearGradient><linearGradient id="ag" x1="1226.51" y1="624.201" x2="1226.51" y2="678.869" gradientUnits="userSpaceOnUse"><stop stop-color="#20DDAE"/><stop offset="1" stop-color="#062B61" stop-opacity="0"/></linearGradient><linearGradient id="ah" x1="1490.49" y1="430.521" x2="1490.49" y2="485.189" gradientUnits="userSpaceOnUse"><stop stop-color="#20DDAE"/><stop offset="1" stop-color="#062B61" stop-opacity="0"/></linearGradient><linearGradient id="ai" x1="1319.45" y1="523.457" x2="1319.45" y2="578.125" gradientUnits="userSpaceOnUse"><stop stop-color="#20DDAE"/><stop offset="1" stop-color="#062B61" stop-opacity="0"/></linearGradient><linearGradient id="aj" x1="1569.36" y1="526.58" x2="1569.36" y2="724.946" gradientUnits="userSpaceOnUse"><stop stop-color="#20DDAE"/><stop offset="1" stop-color="#0D124C" stop-opacity="0"/></linearGradient><clipPath id="a"><path fill="#fff" d="M0 0h1614v1005H0z"/></clipPath></defs></svg>