<svg width="48" height="48" viewBox="0 0 48 48" fill="none" xmlns="http://www.w3.org/2000/svg">
<path d="M43.3154 23.5516C43.3154 20.9645 40.0755 18.5127 35.1082 16.9923C36.2545 11.9295 35.745 7.90153 33.5002 6.61194C32.9828 6.30945 32.3778 6.16616 31.7171 6.16616V7.94133C32.0833 7.94133 32.3778 8.01297 32.6246 8.1483C33.7072 8.76921 34.1768 11.1334 33.8107 14.1743C33.7231 14.9226 33.5798 15.7107 33.4047 16.5147C31.8444 16.1326 30.1409 15.838 28.3498 15.647C27.2752 14.1743 26.1607 12.837 25.0383 11.6668C27.6334 9.25479 30.0693 7.93337 31.725 7.93337V6.1582C29.5359 6.1582 26.6702 7.71844 23.7726 10.425C20.875 7.73436 18.0093 6.19004 15.8202 6.19004V7.96521C17.468 7.96521 19.9118 9.27867 22.5069 11.6747C21.3925 12.8449 20.278 14.1743 19.2193 15.647C17.4202 15.838 15.7167 16.1326 14.1565 16.5226C13.9734 15.7266 13.8381 14.9544 13.7425 14.2141C13.3684 11.1732 13.8301 8.80901 14.9048 8.18014C15.1436 8.03685 15.454 7.97317 15.8202 7.97317V6.19801C15.1515 6.19801 14.5465 6.34129 14.0211 6.64379C11.7843 7.93337 11.2828 11.9534 12.437 17.0002C7.48567 18.5286 4.26172 20.9725 4.26172 23.5516C4.26172 26.1388 7.50159 28.5906 12.4689 30.111C11.3226 35.1738 11.832 39.2017 14.0769 40.4913C14.5943 40.7938 15.1993 40.9371 15.868 40.9371C18.0571 40.9371 20.9228 39.3769 23.8204 36.6703C26.718 39.361 29.5837 40.9053 31.7728 40.9053C32.4415 40.9053 33.0465 40.762 33.5719 40.4595C35.8087 39.1699 36.3102 35.1499 35.156 30.103C40.0914 28.5826 43.3154 26.1308 43.3154 23.5516ZM32.9509 18.2421C32.6564 19.269 32.2902 20.3277 31.8763 21.3864C31.5499 20.7496 31.2076 20.1128 30.8335 19.4759C30.4673 18.8391 30.0772 18.2182 29.6872 17.6132C30.8176 17.7804 31.9081 17.9873 32.9509 18.2421ZM29.3051 26.7199C28.6842 27.7945 28.0473 28.8135 27.3866 29.7607C26.2005 29.8642 24.9985 29.9199 23.7885 29.9199C22.5865 29.9199 21.3845 29.8642 20.2064 29.7687C19.5457 28.8214 18.9009 27.8104 18.28 26.7438C17.675 25.7009 17.1257 24.6422 16.6242 23.5755C17.1177 22.5088 17.675 21.4421 18.272 20.3993C18.8929 19.3247 19.5297 18.3057 20.1904 17.3585C21.3765 17.255 22.5786 17.1993 23.7885 17.1993C24.9906 17.1993 26.1926 17.255 27.3707 17.3505C28.0314 18.2978 28.6762 19.3088 29.2971 20.3754C29.9021 21.4183 30.4514 22.477 30.9529 23.5437C30.4514 24.6104 29.9021 25.6771 29.3051 26.7199ZM31.8763 25.685C32.3061 26.7517 32.6723 27.8184 32.9748 28.8533C31.932 29.108 30.8335 29.3229 29.6951 29.4901C30.0852 28.8771 30.4753 28.2483 30.8414 27.6035C31.2076 26.9666 31.5499 26.3219 31.8763 25.685ZM23.8045 34.1787C23.0641 33.4146 22.3238 32.5628 21.5915 31.6314C22.3079 31.6633 23.0403 31.6871 23.7806 31.6871C24.5289 31.6871 25.2692 31.6712 25.9936 31.6314C25.2771 32.5628 24.5368 33.4146 23.8045 34.1787ZM17.8819 29.4901C16.7516 29.3229 15.661 29.1159 14.6182 28.8612C14.9127 27.8343 15.2789 26.7756 15.6928 25.7169C16.0192 26.3537 16.3615 26.9905 16.7356 27.6274C17.1098 28.2642 17.4919 28.8851 17.8819 29.4901ZM23.7647 12.9245C24.505 13.6887 25.2453 14.5405 25.9776 15.4719C25.2612 15.44 24.5289 15.4161 23.7885 15.4161C23.0403 15.4161 22.2999 15.432 21.5756 15.4719C22.292 14.5405 23.0323 13.6887 23.7647 12.9245ZM17.874 17.6132C17.4839 18.2261 17.0939 18.855 16.7277 19.4998C16.3615 20.1366 16.0192 20.7735 15.6928 21.4103C15.263 20.3436 14.8968 19.2769 14.5943 18.2421C15.6371 17.9953 16.7356 17.7804 17.874 17.6132ZM10.6698 27.5796C7.85185 26.3776 6.02892 24.8014 6.02892 23.5516C6.02892 22.3019 7.85185 20.7177 10.6698 19.5237C11.3544 19.2292 12.1027 18.9665 12.8749 18.7197C13.3286 20.2799 13.9256 21.9038 14.6659 23.5676C13.9336 25.2233 13.3445 26.8393 12.8987 28.3915C12.1107 28.1448 11.3624 27.8741 10.6698 27.5796ZM14.9525 38.955C13.8699 38.3341 13.4002 35.9698 13.7664 32.929C13.854 32.1807 13.9973 31.3926 14.1724 30.5886C15.7326 30.9707 17.4362 31.2652 19.2272 31.4563C20.3019 32.929 21.4163 34.2663 22.5388 35.4365C19.9437 37.8485 17.5078 39.1699 15.852 39.1699C15.4938 39.1619 15.1913 39.0903 14.9525 38.955ZM33.8345 32.8892C34.2087 35.93 33.747 38.2943 32.6723 38.9231C32.4335 39.0664 32.1231 39.1301 31.7569 39.1301C30.1091 39.1301 27.6652 37.8166 25.0702 35.4206C26.1846 34.2504 27.2991 32.921 28.3578 31.4483C30.1568 31.2573 31.8604 30.9628 33.4206 30.5727C33.6037 31.3767 33.747 32.1488 33.8345 32.8892ZM36.8993 27.5796C36.2147 27.8741 35.4664 28.1368 34.6943 28.3836C34.2405 26.8234 33.6435 25.1994 32.9032 23.5357C33.6355 21.88 34.2246 20.264 34.6704 18.7117C35.4585 18.9585 36.2067 19.2292 36.9072 19.5237C39.7252 20.7257 41.5482 22.3019 41.5482 23.5516C41.5402 24.8014 39.7173 26.3855 36.8993 27.5796Z" fill="#BBBBBB"/>
<path d="M23.552 27.1899C25.5611 27.1899 27.1899 25.5611 27.1899 23.552C27.1899 21.5428 25.5611 19.9141 23.552 19.9141C21.5428 19.9141 19.9141 21.5428 19.9141 23.552C19.9141 25.5611 21.5428 27.1899 23.552 27.1899Z" fill="#BBBBBB"/>
</svg>
