<svg width="537" height="479" fill="none" xmlns="http://www.w3.org/2000/svg"><path d="M69.117 414.054c-5.698-22.905 10.39-59.828 41.753-91.191 31.363-31.364 68.286-47.452 91.191-41.753 5.699 22.905-10.389 59.828-41.752 91.191-31.363 31.364-68.287 47.452-91.192 41.753Z" fill="#F5A622"/><path d="M99.028 384.139c-5.994-15.459.77-37.849 18.02-55.099 17.249-17.249 39.64-24.014 55.099-18.02 5.994 15.46-.771 37.85-18.02 55.099-17.249 17.25-39.64 24.014-55.1 18.02Z" fill="#F08214"/><path d="M56.536 285.443a20.294 20.294 0 0 1-3.555-24.523l31.444-55.868 144.654-20.89 64.116 62.169-16.422 145.229-54.871 33.152a20.299 20.299 0 0 1-24.623-2.798c21.773-39.139 15.594-89.487-18.093-122.151-33.685-32.663-84.2-37.287-122.65-14.32Z" fill="#EE3183"/><path d="M52.83 280.568c40.83-24.744 94.716-19.963 130.595 14.827 35.879 34.789 42.319 88.503 18.845 130.076a20.284 20.284 0 0 1-4.991-3.554c21.772-39.14 15.593-89.488-18.093-122.151-33.687-32.664-84.201-37.288-122.652-14.321a20.287 20.287 0 0 1-3.704-4.877Z" fill="#C13472"/><path d="m81.358 210.509 3.071-5.455 144.654-20.89 64.116 62.169-16.422 145.229-5.359 3.238 16.129-142.638-64.116-62.17-142.073 20.517Z" fill="#C13472"/><path d="m207.64 192.277 15.785-2.28 64.116 62.17-9.535 84.324c-19.875 17.39-41.083 30.786-61.955 39.761.977-29.281-9.939-58.853-32.628-80.854-12.247-11.874-26.59-20.253-41.795-25.154 10.515-19.437 24.601-38.755 41.969-56.666 7.408-7.64 15.514-14.759 24.043-21.301ZM144.821 201.35c-18.351 20.354-32.58 42.239-42.285 63.871a108.022 108.022 0 0 0-18.246 2.588c9.326-21.485 23.139-43.285 41.04-63.645l19.491-2.814Z" fill="#C13472"/><path d="m195.258 354.935-71.706-69.529c8.674-33.19 29.068-69.035 59.606-100.529 54.458-56.162 146.551-84.077 168.408-62.882 21.858 21.194-3.205 114.103-57.662 170.266-30.538 31.494-65.739 52.982-98.646 62.674Z" fill="#E7EEFF"/><path d="M330.241 242.673c-9.899 17.747-22.117 34.919-36.336 49.584a273.865 273.865 0 0 1-20.835 19.379l-54.32-52.67 62.17-64.116 49.321 47.823Z" fill="#C8D2F4"/><path d="M264.479 153.472c-19.372 10.995-38.202 24.84-53.903 41.032-30.538 31.494-50.931 67.34-59.606 100.529l16.911 16.397-8.478 8.743-35.854-34.766c8.675-33.188 29.068-69.034 59.606-100.528 18.731-19.318 41.917-35.293 65.162-47.078l16.162 15.671Z" fill="#fff" fill-opacity=".4"/><path d="M244.701 318.053c13.965-9.569 27.625-21.038 40.461-34.275 18.731-19.318 33.985-42.984 45.047-66.583l8.743 8.478c-11.062 23.599-26.316 47.264-45.047 66.582-12.835 13.237-26.496 24.707-40.461 34.275l-8.743-8.477Z" fill="#C8D2F4"/><path d="M253.442 326.539c-12.883 8.828-26.031 16.037-39.031 21.525l-84.582-82.014c5.085-13.164 11.888-26.525 20.314-39.675l103.299 100.164Z" fill="#EE3183"/><path d="m145.858 281.592-16.029-15.542c5.085-13.164 11.887-26.526 20.314-39.675l16.029 15.542c-8.427 13.149-15.229 26.512-20.314 39.675ZM205.671 339.584l-7.286-7.065c13-5.489 26.147-12.699 39.03-21.527l7.286 7.065c-12.883 8.828-26.03 16.038-39.03 21.527Z" fill="#C13472"/><path d="M248.317 137.801c44.339-22.477 88.905-29.711 103.245-15.806 14.34 13.905 8.485 58.673-12.614 103.685l-90.631-87.879Z" fill="#EE3183"/><path d="m264.554 153.542-16.096-15.607.402-.414c24.119-12.16 48.271-19.801 67.551-21.974-18.421 10.224-36.443 23.032-51.857 37.995Z" fill="#fff" fill-opacity=".5"/><path d="M321.389 208.655c10.634-14.32 19.661-29.847 26.882-45.333-3.144 16.445-9.285 35.141-18.068 53.88l-8.814-8.547Z" fill="#C13472"/><path d="m118.955 303.57 58.287 56.518-8.566 3.003-52.458-50.866 2.737-8.655Z" fill="#191E24"/><path d="m127.342 289.088 64.116 62.169-14.218 8.832-58.287-56.518 8.389-14.483Z" fill="#252F3B"/><path d="m127.342 289.088 64.116 62.169-5.332 3.312-61.93-60.05 3.146-5.431Z" fill="#000" fill-opacity=".4"/><path d="m127.699 312.046 8.743 8.477 7.065-7.286-8.743-8.477-7.065 7.286Z" fill="#fff" fill-opacity=".3"/><path d="m123.507 319.287 8.743 8.477 4.194-7.241-8.743-8.478-4.194 7.242Z" fill="#fff" fill-opacity=".1"/><path d="M338.852 135.105a2.03 2.03 0 0 1 2.826-2.915 2.03 2.03 0 0 1-2.826 2.915Zm-11.304 11.657a2.03 2.03 0 1 1 2.829-2.914 2.03 2.03 0 0 1-2.829 2.914Zm-11.303 11.658a2.03 2.03 0 1 1 2.826-2.913 2.03 2.03 0 0 1-2.826 2.913Zm-11.304 11.657a2.03 2.03 0 1 1 2.829-2.914 2.03 2.03 0 0 1-2.829 2.914Z" fill="#F8F8F8"/><path d="M217.375 263.298c17.705 17.168 45.975 16.732 63.143-.973 17.167-17.705 16.731-45.975-.974-63.143-17.704-17.167-45.975-16.731-63.142.974-17.168 17.704-16.732 45.975.973 63.142Z" fill="#9FBFFF"/><path d="M218.75 258.966c17.705 17.168 45.975 16.732 63.143-.973 17.167-17.705 16.731-45.975-.974-63.143-17.704-17.167-45.975-16.731-63.142.974-17.168 17.704-16.732 45.975.973 63.142Z" fill="#fff"/><path d="M280.92 194.85c17.705 17.167 18.14 45.438.973 63.142-17.167 17.705-45.438 18.141-63.143.974l62.17-64.116Z" fill="#EBF1FF"/><path d="M220.729 201.525a2.03 2.03 0 1 1 2.828-2.915 2.03 2.03 0 0 1-2.828 2.915Zm55.373 53.692a2.029 2.029 0 1 1 2.826-2.914 2.03 2.03 0 0 1-2.826 2.914Zm-54.533.841a2.03 2.03 0 1 1 2.829-2.914 2.03 2.03 0 0 1-2.829 2.914Zm53.692-55.373a2.03 2.03 0 0 1 2.826-2.914 2.03 2.03 0 0 1-2.826 2.914Z" fill="#959FB4"/><path d="M227.232 250.219c12.877 12.487 33.437 12.168 45.922-.707 12.484-12.876 12.169-33.436-.708-45.922-12.876-12.485-33.437-12.168-45.922.707-12.485 12.876-12.168 33.438.708 45.922Z" fill="#2D2D2E"/><path d="M217.753 221.871a32.332 32.332 0 0 1 8.771-17.574c12.485-12.875 33.045-13.194 45.922-.707 6.862 6.653 10.157 15.602 9.849 24.458-18.94-14.034-43.901-16.04-64.542-6.177Z" fill="#3A3A3A"/><path d="M230.057 247.305c11.267 10.925 29.257 10.648 40.182-.619s10.648-29.257-.619-40.182-29.257-10.648-40.182.619-10.647 29.257.619 40.182Zm-2.825 2.914c-12.876-12.484-13.193-33.046-.708-45.922 12.485-12.875 33.046-13.192 45.922-.707 12.877 12.486 13.192 33.046.708 45.922-12.485 12.875-33.045 13.194-45.922.707Z" fill="#222"/><path d="m195.102 354.791 1.368-24.118 2.582-45.56-5.009-4.857a4.062 4.062 0 0 0-4.969-.535l-18.067 11.223a4.112 4.112 0 0 0-.993.867l-6.049 7.343 8.153 7.906-12.716 13.114 35.7 34.617Z" fill="#000" fill-opacity=".2"/><path d="m194.391 280.587 3.496 3.389a4.062 4.062 0 0 1 .729 4.875l-10.689 19.395-52.859 45.671a6.047 6.047 0 0 1-8.649-8.386l44.022-54.24 19.055-11.283a4.06 4.06 0 0 1 4.895.579Z" fill="#C13472"/><path d="m187.93 308.246-52.859 45.673a6.047 6.047 0 0 1-8.649-8.387l44.021-54.241 17.487 16.955Z" fill="#EE3183"/><path stroke="#627AF6" stroke-width="3.447" d="m377.143 88.561 12.33 353.08-353.08 12.33-12.33-353.08z"/><path fill="#fff" d="m395.68 446.598-.36-10.334-10.334.361.361 10.334z"/><path stroke="#627AF6" stroke-width="3.447" d="m395.68 446.598-.36-10.334-10.334.361.361 10.334z"/><path fill="#fff" d="m381.629 93.579-.361-10.334-10.334.36.361 10.335z"/><path stroke="#627AF6" stroke-width="3.447" d="m381.629 93.579-.361-10.334-10.334.36.361 10.335z"/><path fill="#fff" d="m30.273 105.848-.36-10.334-10.335.361.361 10.334z"/><path stroke="#627AF6" stroke-width="3.447" d="m30.273 105.848-.36-10.334-10.335.361.361 10.334z"/><path fill="#fff" d="m42.601 458.928-.36-10.334-10.335.361.361 10.334z"/><path stroke="#627AF6" stroke-width="3.447" d="m42.601 458.928-.36-10.334-10.335.361.361 10.334z"/></svg>