<svg width="1520" height="469" viewBox="0 0 1520 469" fill="none" xmlns="http://www.w3.org/2000/svg">
<g style="mix-blend-mode:overlay">
<g opacity="0.7">
<path d="M1300.75 199.189C1302.49 199.189 1303.91 200.681 1303.91 202.521C1303.91 204.361 1302.49 205.854 1300.75 205.854C1299.01 205.854 1297.59 204.361 1297.59 202.521C1297.59 200.681 1299.01 199.189 1300.75 199.189Z" fill="white"/>
<path d="M806.255 147.097C807.999 147.097 809.413 148.589 809.413 150.429C809.413 152.269 807.999 153.762 806.255 153.762C804.512 153.762 803.098 152.269 803.098 150.429C803.098 148.589 804.512 147.097 806.255 147.097Z" fill="white"/>
<path d="M963.888 96.4954C965.632 96.4954 967.046 97.9877 967.046 99.8278C967.046 101.668 965.632 103.16 963.888 103.16C962.145 103.16 960.73 101.668 960.73 99.8278C960.73 97.9877 962.145 96.4954 963.888 96.4954Z" fill="white"/>
<path d="M436.861 96.4954C438.604 96.4954 440.018 97.9877 440.018 99.8278C440.018 101.668 438.604 103.16 436.861 103.16C435.117 103.16 433.703 101.668 433.703 99.8278C433.703 97.9877 435.117 96.4954 436.861 96.4954Z" fill="white"/>
<path d="M1121.39 82.1536C1123.14 82.1536 1124.55 83.6459 1124.55 85.486C1124.55 87.326 1123.14 88.8184 1121.39 88.8184C1119.65 88.8184 1118.23 87.326 1118.23 85.486C1118.23 83.6459 1119.65 82.1536 1121.39 82.1536Z" fill="white"/>
<path d="M1215.31 230.2C1217.06 230.2 1218.47 231.693 1218.47 233.533C1218.47 235.373 1217.06 236.865 1215.31 236.865C1213.57 236.865 1212.16 235.373 1212.16 233.533C1212.16 231.693 1213.57 230.2 1215.31 230.2Z" fill="white"/>
<path d="M594.365 82.1536C596.108 82.1536 597.522 83.6459 597.522 85.486C597.522 87.326 596.108 88.8184 594.365 88.8184C592.621 88.8184 591.207 87.326 591.207 85.486C591.207 83.6459 592.621 82.1536 594.365 82.1536Z" fill="white"/>
<path d="M751.997 31.5501C753.741 31.5501 755.155 33.0424 755.155 34.8825C755.155 36.7225 753.741 38.2148 751.997 38.2148C750.254 38.2148 748.84 36.7225 748.84 34.8825C748.84 33.0424 750.254 31.5501 751.997 31.5501Z" fill="white"/>
<path d="M224.97 31.5501C226.714 31.5501 228.128 33.0424 228.128 34.8825C228.128 36.7225 226.714 38.2148 224.97 38.2148C223.227 38.2148 221.812 36.7225 221.812 34.8825C221.812 33.0424 223.227 31.5501 224.97 31.5501Z" fill="white"/>
<path d="M1265.53 414.67C1269.01 414.67 1271.84 417.655 1271.84 421.335C1271.84 425.015 1269.01 428 1265.53 428C1262.04 428 1259.21 425.015 1259.21 421.335C1259.21 417.655 1262.04 414.67 1265.53 414.67Z" fill="white"/>
<path d="M1134.52 247.426C1138.01 247.426 1140.84 250.411 1140.84 254.091C1140.84 257.771 1138.01 260.756 1134.52 260.756C1131.04 260.756 1128.21 257.771 1128.21 254.091C1128.21 250.411 1131.04 247.426 1134.52 247.426Z" fill="white"/>
<path d="M738.499 414.67C741.986 414.67 744.814 417.655 744.814 421.335C744.814 425.015 741.986 428 738.499 428C735.012 428 732.184 425.015 732.184 421.335C732.184 417.655 735.012 414.67 738.499 414.67Z" fill="white"/>
<path d="M896.128 364.069C899.615 364.069 902.443 367.054 902.443 370.734C902.443 374.414 899.615 377.398 896.128 377.398C892.641 377.398 889.812 374.414 889.812 370.734C889.812 367.054 892.641 364.069 896.128 364.069Z" fill="white"/>
<path d="M252.78 111.678C256.267 111.678 259.095 114.663 259.095 118.343C259.095 122.023 256.267 125.008 252.78 125.008C249.293 125.008 246.465 122.023 246.465 118.343C246.465 114.663 249.293 111.678 252.78 111.678Z" fill="white"/>
<path d="M1257.19 204.683C1259.63 204.683 1261.61 206.772 1261.61 209.348C1261.61 211.924 1259.63 214.014 1257.19 214.014C1254.75 214.014 1252.77 211.924 1252.77 209.348C1252.77 206.772 1254.75 204.683 1257.19 204.683Z" fill="white"/>
<path d="M588.069 212.052C590.51 212.052 592.49 214.141 592.49 216.717C592.49 219.294 590.51 221.383 588.069 221.383C585.628 221.383 583.648 219.294 583.648 216.717C583.648 214.141 585.628 212.052 588.069 212.052Z" fill="white"/>
<path d="M745.702 161.451C748.143 161.451 750.122 163.54 750.122 166.116C750.122 168.692 748.143 170.781 745.702 170.781C743.261 170.781 741.281 168.692 741.281 166.116C741.281 163.54 743.261 161.451 745.702 161.451Z" fill="white"/>
<path d="M397.932 370.646C400.373 370.646 402.353 372.735 402.353 375.311C402.353 377.887 400.373 379.977 397.932 379.977C395.491 379.977 393.512 377.887 393.512 375.311C393.512 372.735 395.491 370.646 397.932 370.646Z" fill="white"/>
<path d="M1196.82 303.09C1198.21 303.09 1199.34 304.284 1199.34 305.756C1199.34 307.228 1198.21 308.422 1196.82 308.422C1195.42 308.422 1194.29 307.228 1194.29 305.756C1194.29 304.284 1195.42 303.09 1196.82 303.09Z" fill="white"/>
<path d="M669.788 303.09C671.183 303.09 672.314 304.284 672.314 305.756C672.314 307.228 671.183 308.422 669.788 308.422C668.393 308.422 667.262 307.228 667.262 305.756C667.262 304.284 668.393 303.09 669.788 303.09Z" fill="white"/>
<path d="M827.421 252.488C828.816 252.488 829.947 253.682 829.947 255.154C829.947 256.627 828.816 257.82 827.421 257.82C826.026 257.82 824.895 256.627 824.895 255.154C824.895 253.682 826.026 252.488 827.421 252.488Z" fill="white"/>
<path d="M300.393 252.488C301.788 252.488 302.919 253.682 302.919 255.154C302.919 256.627 301.788 257.82 300.393 257.82C298.998 257.82 297.867 256.627 297.867 255.154C297.867 253.682 298.998 252.488 300.393 252.488Z" fill="white"/>
<path d="M1159.61 410.508C1161.01 410.508 1162.14 411.702 1162.14 413.174C1162.14 414.646 1161.01 415.84 1159.61 415.84C1158.22 415.84 1157.09 414.646 1157.09 413.174C1157.09 411.702 1158.22 410.508 1159.61 410.508Z" fill="white"/>
<path d="M632.585 410.508C633.98 410.508 635.111 411.702 635.111 413.174C635.111 414.646 633.98 415.84 632.585 415.84C631.19 415.84 630.059 414.646 630.059 413.174C630.059 411.702 631.19 410.508 632.585 410.508Z" fill="white"/>
<path d="M790.217 359.905C791.613 359.905 792.744 361.098 792.744 362.57C792.744 364.043 791.613 365.236 790.217 365.236C788.822 365.236 787.691 364.043 787.691 362.57C787.691 361.098 788.822 359.905 790.217 359.905Z" fill="white"/>
<path d="M232.335 186.643C233.73 186.643 234.861 187.836 234.861 189.309C234.861 190.781 233.73 191.975 232.335 191.975C230.94 191.975 229.809 190.781 229.809 189.309C229.809 187.836 230.94 186.643 232.335 186.643Z" fill="white"/>
<path d="M1397.29 177.016C1398.69 177.016 1399.82 178.209 1399.82 179.682C1399.82 181.154 1398.69 182.348 1397.29 182.348C1395.9 182.348 1394.77 181.154 1394.77 179.682C1394.77 178.209 1395.9 177.016 1397.29 177.016Z" fill="white"/>
<path d="M870.264 177.016C871.659 177.016 872.79 178.209 872.79 179.682C872.79 181.154 871.659 182.348 870.264 182.348C868.869 182.348 867.738 181.154 867.738 179.682C867.738 178.209 868.869 177.016 870.264 177.016Z" fill="white"/>
<path d="M1027.9 126.414C1029.29 126.414 1030.42 127.608 1030.42 129.08C1030.42 130.552 1029.29 131.746 1027.9 131.746C1026.5 131.746 1025.37 130.552 1025.37 129.08C1025.37 127.608 1026.5 126.414 1027.9 126.414Z" fill="white"/>
<path d="M500.87 126.414C502.265 126.414 503.396 127.608 503.396 129.08C503.396 130.552 502.265 131.746 500.87 131.746C499.475 131.746 498.344 130.552 498.344 129.08C498.344 127.608 499.475 126.414 500.87 126.414Z" fill="white"/>
<path d="M1060.48 177.016C1061.87 177.016 1063.01 178.209 1063.01 179.682C1063.01 181.154 1061.87 182.348 1060.48 182.348C1059.08 182.348 1057.95 181.154 1057.95 179.682C1057.95 178.209 1059.08 177.016 1060.48 177.016Z" fill="white"/>
<path d="M533.452 177.016C534.847 177.016 535.978 178.209 535.978 179.682C535.978 181.154 534.847 182.348 533.452 182.348C532.057 182.348 530.926 181.154 530.926 179.682C530.926 178.209 532.057 177.016 533.452 177.016Z" fill="white"/>
<path d="M691.085 126.414C692.48 126.414 693.611 127.608 693.611 129.08C693.611 130.552 692.48 131.746 691.085 131.746C689.69 131.746 688.559 130.552 688.559 129.08C688.559 127.608 689.69 126.414 691.085 126.414Z" fill="white"/>
<path d="M164.057 126.414C165.452 126.414 166.583 127.608 166.583 129.08C166.583 130.552 165.452 131.746 164.057 131.746C162.662 131.746 161.531 130.552 161.531 129.08C161.531 127.608 162.662 126.414 164.057 126.414Z" fill="white"/>
<path d="M1263.92 244.905C1264.74 244.905 1265.4 245.602 1265.4 246.461C1265.4 247.319 1264.74 248.016 1263.92 248.016C1263.11 248.016 1262.45 247.319 1262.45 246.461C1262.45 245.602 1263.11 244.905 1263.92 244.905Z" fill="white"/>
<path d="M707.677 334.193C708.49 334.193 709.15 334.889 709.15 335.748C709.15 336.606 708.49 337.303 707.677 337.303C706.863 337.303 706.203 336.606 706.203 335.748C706.203 334.889 706.863 334.193 707.677 334.193Z" fill="white"/>
<path d="M865.309 283.591C866.123 283.591 866.783 284.288 866.783 285.146C866.783 286.004 866.123 286.701 865.309 286.701C864.496 286.701 863.836 286.004 863.836 285.146C863.836 284.288 864.496 283.591 865.309 283.591Z" fill="white"/>
<path d="M338.282 283.591C339.096 283.591 339.756 284.288 339.756 285.146C339.756 286.004 339.096 286.701 338.282 286.701C337.469 286.701 336.809 286.004 336.809 285.146C336.809 284.288 337.469 283.591 338.282 283.591Z" fill="white"/>
<path d="M897.895 334.193C898.709 334.193 899.369 334.889 899.369 335.748C899.369 336.606 898.709 337.303 897.895 337.303C897.082 337.303 896.422 336.606 896.422 335.748C896.422 334.889 897.082 334.193 897.895 334.193Z" fill="white"/>
<path d="M370.868 334.193C371.681 334.193 372.342 334.889 372.342 335.748C372.342 336.606 371.681 337.303 370.868 337.303C370.055 337.303 369.395 336.606 369.395 335.748C369.395 334.889 370.055 334.193 370.868 334.193Z" fill="white"/>
<path d="M528.501 283.591C529.314 283.591 529.974 284.288 529.974 285.146C529.974 286.004 529.314 286.701 528.501 286.701C527.687 286.701 527.027 286.004 527.027 285.146C527.027 284.288 527.687 283.591 528.501 283.591Z" fill="white"/>
<path d="M1.47355 283.591C2.28694 283.591 2.94709 284.288 2.94709 285.146C2.94709 286.004 2.28694 286.701 1.47355 286.701C0.660149 286.701 -3.0453e-08 286.004 -6.79754e-08 285.146C-1.05498e-07 284.288 0.660149 283.591 1.47355 283.591Z" fill="white"/>
<path d="M1377.85 405.284C1378.67 405.284 1379.33 405.981 1379.33 406.839C1379.33 407.698 1378.67 408.395 1377.85 408.395C1377.04 408.395 1376.38 407.698 1376.38 406.839C1376.38 405.981 1377.04 405.284 1377.85 405.284Z" fill="white"/>
<path d="M850.821 405.284C851.635 405.284 852.295 405.981 852.295 406.839C852.295 407.698 851.635 408.395 850.821 408.395C850.008 408.395 849.348 407.698 849.348 406.839C849.348 405.981 850.008 405.284 850.821 405.284Z" fill="white"/>
<path d="M1008.45 354.683C1009.27 354.683 1009.93 355.379 1009.93 356.238C1009.93 357.096 1009.27 357.793 1008.45 357.793C1007.64 357.793 1006.98 357.096 1006.98 356.238C1006.98 355.379 1007.64 354.683 1008.45 354.683Z" fill="white"/>
<path d="M481.427 354.683C482.24 354.683 482.9 355.379 482.9 356.238C482.9 357.096 482.24 357.793 481.427 357.793C480.613 357.793 479.953 357.096 479.953 356.238C479.953 355.379 480.613 354.683 481.427 354.683Z" fill="white"/>
<path d="M1041.04 405.284C1041.85 405.284 1042.51 405.981 1042.51 406.839C1042.51 407.698 1041.85 408.395 1041.04 408.395C1040.23 408.395 1039.57 407.698 1039.57 406.839C1039.57 405.981 1040.23 405.284 1041.04 405.284Z" fill="white"/>
<path d="M514.013 405.284C514.826 405.284 515.486 405.981 515.486 406.839C515.486 407.698 514.826 408.395 514.013 408.395C513.199 408.395 512.539 407.698 512.539 406.839C512.539 405.981 513.199 405.284 514.013 405.284Z" fill="white"/>
<path d="M671.645 354.683C672.459 354.683 673.119 355.379 673.119 356.238C673.119 357.096 672.459 357.793 671.645 357.793C670.832 357.793 670.172 357.096 670.172 356.238C670.172 355.379 670.832 354.683 671.645 354.683Z" fill="white"/>
<path d="M144.618 354.683C145.431 354.683 146.092 355.379 146.092 356.238C146.092 357.096 145.431 357.793 144.618 357.793C143.805 357.793 143.145 357.096 143.145 356.238C143.145 355.379 143.805 354.683 144.618 354.683Z" fill="white"/>
<path d="M1211.55 192.453C1212.71 192.453 1213.66 193.448 1213.66 194.675C1213.66 195.902 1212.71 196.896 1211.55 196.896C1210.39 196.896 1209.45 195.902 1209.45 194.675C1209.45 193.448 1210.39 192.453 1211.55 192.453Z" fill="white"/>
<path d="M684.523 192.453C685.685 192.453 686.628 193.448 686.628 194.675C686.628 195.902 685.685 196.896 684.523 196.896C683.361 196.896 682.418 195.902 682.418 194.675C682.418 193.448 683.361 192.453 684.523 192.453Z" fill="white"/>
<path d="M842.156 141.854C843.318 141.854 844.261 142.848 844.261 144.075C844.261 145.302 843.318 146.297 842.156 146.297C840.993 146.297 840.051 145.302 840.051 144.075C840.051 142.848 840.993 141.854 842.156 141.854Z" fill="white"/>
<path d="M315.129 141.854C316.291 141.854 317.234 142.848 317.234 144.075C317.234 145.302 316.291 146.297 315.129 146.297C313.966 146.297 313.023 145.302 313.023 144.075C313.023 142.848 313.966 141.854 315.129 141.854Z" fill="white"/>
<path d="M1146.21 201.594C1147.37 201.594 1148.31 202.588 1148.31 203.816C1148.31 205.043 1147.37 206.037 1146.21 206.037C1145.04 206.037 1144.1 205.043 1144.1 203.816C1144.1 202.588 1145.04 201.594 1146.21 201.594Z" fill="white"/>
<path d="M696.75 108.262C697.912 108.262 698.855 109.256 698.855 110.483C698.855 111.711 697.912 112.705 696.75 112.705C695.587 112.705 694.645 111.711 694.645 110.483C694.645 109.256 695.587 108.262 696.75 108.262Z" fill="white"/>
<path d="M854.379 57.6603C855.541 57.6603 856.484 58.6547 856.484 59.8819C856.484 61.1091 855.541 62.1035 854.379 62.1035C853.216 62.1035 852.273 61.1091 852.273 59.8819C852.273 58.6547 853.216 57.6603 854.379 57.6603Z" fill="white"/>
<path d="M327.355 57.6603C328.517 57.6603 329.46 58.6547 329.46 59.8819C329.46 61.1091 328.517 62.1035 327.355 62.1035C326.193 62.1035 325.25 61.1091 325.25 59.8819C325.25 58.6547 326.193 57.6603 327.355 57.6603Z" fill="white"/>
<path d="M1396.94 326.998C1398.1 326.998 1399.05 327.993 1399.05 329.22C1399.05 330.447 1398.1 331.441 1396.94 331.441C1395.78 331.441 1394.84 330.447 1394.84 329.22C1394.84 327.993 1395.78 326.998 1396.94 326.998Z" fill="white"/>
<path d="M869.914 326.998C871.076 326.998 872.019 327.993 872.019 329.22C872.019 330.447 871.076 331.441 869.914 331.441C868.751 331.441 867.809 330.447 867.809 329.22C867.809 327.993 868.751 326.998 869.914 326.998Z" fill="white"/>
<path d="M1027.55 276.395C1028.71 276.395 1029.65 277.389 1029.65 278.616C1029.65 279.844 1028.71 280.838 1027.55 280.838C1026.38 280.838 1025.44 279.844 1025.44 278.616C1025.44 277.389 1026.38 276.395 1027.55 276.395Z" fill="white"/>
<path d="M500.519 276.395C501.682 276.395 502.624 277.389 502.624 278.616C502.624 279.844 501.682 280.838 500.519 280.838C499.357 280.838 498.414 279.844 498.414 278.616C498.414 277.389 499.357 276.395 500.519 276.395Z" fill="white"/>
<path d="M1060.13 326.998C1061.29 326.998 1062.24 327.993 1062.24 329.22C1062.24 330.447 1061.29 331.441 1060.13 331.441C1058.97 331.441 1058.03 330.447 1058.03 329.22C1058.03 327.993 1058.97 326.998 1060.13 326.998Z" fill="white"/>
<path d="M533.105 326.998C534.268 326.998 535.21 327.993 535.21 329.22C535.21 330.447 534.268 331.441 533.105 331.441C531.943 331.441 531 330.447 531 329.22C531 327.993 531.943 326.998 533.105 326.998Z" fill="white"/>
<path d="M690.738 276.395C691.9 276.395 692.843 277.389 692.843 278.616C692.843 279.844 691.9 280.838 690.738 280.838C689.575 280.838 688.633 279.844 688.633 278.616C688.633 277.389 689.575 276.395 690.738 276.395Z" fill="white"/>
<path d="M163.707 276.395C164.869 276.395 165.812 277.389 165.812 278.616C165.812 279.844 164.869 280.838 163.707 280.838C162.544 280.838 161.602 279.844 161.602 278.616C161.602 277.389 162.544 276.395 163.707 276.395Z" fill="white"/>
<path d="M1292.07 84.7076C1292.36 84.7076 1292.6 84.9564 1292.6 85.263C1292.6 85.5695 1292.36 85.8184 1292.07 85.8184C1291.78 85.8184 1291.54 85.5695 1291.54 85.263C1291.54 84.9564 1291.78 84.7076 1292.07 84.7076Z" fill="white"/>
<path d="M1248.39 178.013C1248.97 178.013 1249.44 178.51 1249.44 179.124C1249.44 179.737 1248.97 180.234 1248.39 180.234C1247.81 180.234 1247.34 179.737 1247.34 179.124C1247.34 178.51 1247.81 178.013 1248.39 178.013Z" fill="white"/>
<path d="M765.042 84.7076C765.332 84.7076 765.568 84.9564 765.568 85.263C765.568 85.5695 765.332 85.8184 765.042 85.8184C764.751 85.8184 764.516 85.5695 764.516 85.263C764.516 84.9564 764.751 84.7076 765.042 84.7076Z" fill="white"/>
<path d="M721.361 178.013C721.942 178.013 722.414 178.51 722.414 179.124C722.414 179.737 721.942 180.234 721.361 180.234C720.78 180.234 720.309 179.737 720.309 179.124C720.309 178.51 720.78 178.013 721.361 178.013Z" fill="white"/>
<path d="M922.675 34.106C922.965 34.106 923.201 34.3548 923.201 34.6614C923.201 34.968 922.965 35.2168 922.675 35.2168C922.384 35.2168 922.148 34.968 922.148 34.6614C922.148 34.3548 922.384 34.106 922.675 34.106Z" fill="white"/>
<path d="M878.994 127.411C879.575 127.411 880.047 127.909 880.047 128.522C880.047 129.135 879.575 129.633 878.994 129.633C878.413 129.633 877.941 129.135 877.941 128.522C877.941 127.909 878.413 127.411 878.994 127.411Z" fill="white"/>
<path d="M395.647 34.106C395.938 34.106 396.174 34.3548 396.174 34.6614C396.174 34.968 395.938 35.2168 395.647 35.2168C395.357 35.2168 395.121 34.968 395.121 34.6614C395.121 34.3548 395.357 34.106 395.647 34.106Z" fill="white"/>
<path d="M351.967 127.411C352.548 127.411 353.019 127.909 353.019 128.522C353.019 129.135 352.548 129.633 351.967 129.633C351.386 129.633 350.914 129.135 350.914 128.522C350.914 127.909 351.386 127.411 351.967 127.411Z" fill="white"/>
<path d="M993.736 318.845C994.317 318.845 994.789 319.342 994.789 319.956C994.789 320.569 994.317 321.066 993.736 321.066C993.155 321.066 992.684 320.569 992.684 319.956C992.684 319.342 993.155 318.845 993.736 318.845Z" fill="white"/>
<path d="M466.709 318.845C467.29 318.845 467.761 319.342 467.761 319.956C467.761 320.569 467.29 321.066 466.709 321.066C466.128 321.066 465.656 320.569 465.656 319.956C465.656 319.342 466.128 318.845 466.709 318.845Z" fill="white"/>
<path d="M624.342 268.243C624.923 268.243 625.394 268.741 625.394 269.354C625.394 269.967 624.923 270.465 624.342 270.465C623.761 270.465 623.289 269.967 623.289 269.354C623.289 268.741 623.761 268.243 624.342 268.243Z" fill="white"/>
<path d="M97.3143 268.243C97.8952 268.243 98.3668 268.741 98.3668 269.354C98.3668 269.967 97.8952 270.465 97.3143 270.465C96.7333 270.465 96.2617 269.967 96.2617 269.354C96.2617 268.741 96.7333 268.243 97.3143 268.243Z" fill="white"/>
<path d="M1192.27 217.79C1192.85 217.79 1193.32 218.288 1193.32 218.901C1193.32 219.514 1192.85 220.012 1192.27 220.012C1191.69 220.012 1191.22 219.514 1191.22 218.901C1191.22 218.288 1191.69 217.79 1192.27 217.79Z" fill="white"/>
<path d="M864.506 249.105C865.087 249.105 865.558 249.602 865.558 250.215C865.558 250.829 865.087 251.326 864.506 251.326C863.925 251.326 863.453 250.829 863.453 250.215C863.453 249.602 863.925 249.105 864.506 249.105Z" fill="white"/>
<path d="M1022.14 198.503C1022.72 198.503 1023.19 199.001 1023.19 199.614C1023.19 200.227 1022.72 200.725 1022.14 200.725C1021.56 200.725 1021.09 200.227 1021.09 199.614C1021.09 199.001 1021.56 198.503 1022.14 198.503Z" fill="white"/>
<path d="M495.111 198.503C495.692 198.503 496.164 199.001 496.164 199.614C496.164 200.227 495.692 200.725 495.111 200.725C494.53 200.725 494.059 200.227 494.059 199.614C494.059 199.001 494.53 198.503 495.111 198.503Z" fill="white"/>
<path d="M1054.72 249.105C1055.31 249.105 1055.78 249.602 1055.78 250.215C1055.78 250.829 1055.31 251.326 1054.72 251.326C1054.14 251.326 1053.67 250.829 1053.67 250.215C1053.67 249.602 1054.14 249.105 1054.72 249.105Z" fill="white"/>
<path d="M527.697 249.107C528.278 249.107 528.75 249.604 528.75 250.217C528.75 250.83 528.278 251.328 527.697 251.328C527.116 251.328 526.645 250.83 526.645 250.217C526.645 249.604 527.116 249.107 527.697 249.107Z" fill="white"/>
<path d="M685.33 198.503C685.911 198.503 686.382 199.001 686.382 199.614C686.382 200.227 685.911 200.725 685.33 200.725C684.749 200.725 684.277 200.227 684.277 199.614C684.277 199.001 684.749 198.503 685.33 198.503Z" fill="white"/>
<path d="M158.303 198.503C158.884 198.503 159.355 199.001 159.355 199.614C159.355 200.227 158.884 200.725 158.303 200.725C157.722 200.725 157.25 200.227 157.25 199.614C157.25 199.001 157.722 198.503 158.303 198.503Z" fill="white"/>
<path d="M1244.06 269.449C1244.99 269.449 1245.74 270.245 1245.74 271.227C1245.74 272.208 1244.99 273.004 1244.06 273.004C1243.13 273.004 1242.37 272.208 1242.37 271.227C1242.37 270.245 1243.13 269.449 1244.06 269.449Z" fill="white"/>
<path d="M797.145 292.869C798.075 292.869 798.829 293.665 798.829 294.647C798.829 295.628 798.075 296.424 797.145 296.424C796.215 296.424 795.461 295.628 795.461 294.647C795.461 293.665 796.215 292.869 797.145 292.869Z" fill="white"/>
<path d="M954.778 242.268C955.708 242.268 956.462 243.063 956.462 244.045C956.462 245.026 955.708 245.822 954.778 245.822C953.848 245.822 953.094 245.026 953.094 244.045C953.094 243.063 953.848 242.268 954.778 242.268Z" fill="white"/>
<path d="M427.75 242.268C428.68 242.268 429.435 243.063 429.435 244.045C429.435 245.026 428.68 245.822 427.75 245.822C426.82 245.822 426.066 245.026 426.066 244.045C426.066 243.063 426.82 242.268 427.75 242.268Z" fill="white"/>
<path d="M1403.66 74.6017C1404.59 74.6017 1405.34 75.3975 1405.34 76.379C1405.34 77.3605 1404.59 78.1562 1403.66 78.1562C1402.73 78.1562 1401.98 77.3605 1401.98 76.379C1401.98 75.3975 1402.73 74.6017 1403.66 74.6017Z" fill="white"/>
<path d="M876.633 74.6017C877.563 74.6017 878.317 75.3975 878.317 76.379C878.317 77.3605 877.563 78.1562 876.633 78.1562C875.703 78.1562 874.949 77.3605 874.949 76.379C874.949 75.3975 875.703 74.6017 876.633 74.6017Z" fill="white"/>
<path d="M1034.27 24.0001C1035.2 24.0001 1035.95 24.7959 1035.95 25.7774C1035.95 26.7589 1035.2 27.5547 1034.27 27.5547C1033.34 27.5547 1032.58 26.7589 1032.58 25.7774C1032.58 24.7959 1033.34 24.0001 1034.27 24.0001Z" fill="white"/>
<path d="M507.239 24.0001C508.169 24.0001 508.923 24.7959 508.923 25.7774C508.923 26.7589 508.169 27.5547 507.239 27.5547C506.309 27.5547 505.555 26.7589 505.555 25.7774C505.555 24.7959 506.309 24.0001 507.239 24.0001Z" fill="white"/>
<path d="M1467.32 363.963C1468.25 363.963 1469 364.759 1469 365.74C1469 366.722 1468.25 367.518 1467.32 367.518C1466.39 367.518 1465.63 366.722 1465.63 365.74C1465.63 364.759 1466.39 363.963 1467.32 363.963Z" fill="white"/>
<path d="M940.289 363.963C941.219 363.963 941.974 364.759 941.974 365.74C941.974 366.722 941.219 367.518 940.289 367.518C939.359 367.518 938.605 366.722 938.605 365.74C938.605 364.759 939.359 363.963 940.289 363.963Z" fill="white"/>
<path d="M1097.92 313.36C1098.85 313.36 1099.61 314.155 1099.61 315.137C1099.61 316.118 1098.85 316.914 1097.92 316.914C1096.99 316.914 1096.24 316.118 1096.24 315.137C1096.24 314.155 1096.99 313.36 1097.92 313.36Z" fill="white"/>
<path d="M1174.59 246.74C1175.52 246.74 1176.27 247.536 1176.27 248.518C1176.27 249.499 1175.52 250.295 1174.59 250.295C1173.66 250.295 1172.91 249.499 1172.91 248.518C1172.91 247.536 1173.66 246.74 1174.59 246.74Z" fill="white"/>
<path d="M570.895 313.359C571.825 313.359 572.579 314.155 572.579 315.137C572.579 316.118 571.825 316.914 570.895 316.914C569.965 316.914 569.211 316.118 569.211 315.137C569.211 314.155 569.965 313.359 570.895 313.359Z" fill="white"/>
<path d="M1130.5 363.963C1131.43 363.963 1132.19 364.759 1132.19 365.74C1132.19 366.722 1131.43 367.518 1130.5 367.518C1129.57 367.518 1128.82 366.722 1128.82 365.74C1128.82 364.759 1129.57 363.963 1130.5 363.963Z" fill="white"/>
<path d="M603.477 363.963C604.407 363.963 605.161 364.759 605.161 365.74C605.161 366.722 604.407 367.518 603.477 367.518C602.547 367.518 601.793 366.722 601.793 365.74C601.793 364.759 602.547 363.963 603.477 363.963Z" fill="white"/>
<path d="M761.11 313.36C762.04 313.36 762.794 314.155 762.794 315.137C762.794 316.118 762.04 316.914 761.11 316.914C760.18 316.914 759.426 316.118 759.426 315.137C759.426 314.155 760.18 313.36 761.11 313.36Z" fill="white"/>
<path d="M234.082 313.36C235.013 313.36 235.767 314.155 235.767 315.137C235.767 316.118 235.013 316.914 234.082 316.914C233.152 316.914 232.398 316.118 232.398 315.137C232.398 314.155 233.152 313.36 234.082 313.36Z" fill="white"/>
<path d="M1282.07 349.632C1282.94 349.632 1283.65 350.378 1283.65 351.299C1283.65 352.219 1282.94 352.965 1282.07 352.965C1281.2 352.965 1280.49 352.219 1280.49 351.299C1280.49 350.378 1281.2 349.632 1282.07 349.632Z" fill="white"/>
<path d="M755.044 349.632C755.916 349.632 756.622 350.378 756.622 351.299C756.622 352.219 755.916 352.965 755.044 352.965C754.172 352.965 753.465 352.219 753.465 351.299C753.465 350.378 754.172 349.632 755.044 349.632Z" fill="white"/>
<path d="M912.676 299.029C913.549 299.029 914.255 299.775 914.255 300.695C914.255 301.615 913.549 302.361 912.676 302.361C911.804 302.361 911.098 301.615 911.098 300.695C911.098 299.775 911.804 299.029 912.676 299.029Z" fill="white"/>
<path d="M385.649 299.029C386.521 299.029 387.228 299.775 387.228 300.695C387.228 301.615 386.521 302.361 385.649 302.361C384.777 302.361 384.07 301.615 384.07 300.695C384.07 299.775 384.777 299.029 385.649 299.029Z" fill="white"/>
<path d="M1454.91 151.457C1455.78 151.457 1456.49 152.203 1456.49 153.123C1456.49 154.043 1455.78 154.789 1454.91 154.789C1454.03 154.789 1453.33 154.043 1453.33 153.123C1453.33 152.203 1454.03 151.457 1454.91 151.457Z" fill="white"/>
<path d="M927.88 151.457C928.752 151.457 929.458 152.203 929.458 153.123C929.458 154.043 928.752 154.789 927.88 154.789C927.008 154.789 926.301 154.043 926.301 153.123C926.301 152.203 927.008 151.457 927.88 151.457Z" fill="white"/>
<path d="M1085.51 100.855C1086.38 100.855 1087.09 101.601 1087.09 102.521C1087.09 103.442 1086.38 104.187 1085.51 104.187C1084.64 104.187 1083.93 103.442 1083.93 102.521C1083.93 101.601 1084.64 100.855 1085.51 100.855Z" fill="white"/>
<path d="M558.485 100.855C559.357 100.855 560.064 101.601 560.064 102.521C560.064 103.442 559.357 104.187 558.485 104.187C557.613 104.187 556.906 103.442 556.906 102.521C556.906 101.601 557.613 100.855 558.485 100.855Z" fill="white"/>
<path d="M1425.22 420.724C1426.09 420.724 1426.79 421.47 1426.79 422.39C1426.79 423.311 1426.09 424.057 1425.22 424.057C1424.34 424.057 1423.64 423.311 1423.64 422.39C1423.64 421.47 1424.34 420.724 1425.22 420.724Z" fill="white"/>
<path d="M898.188 420.724C899.06 420.724 899.767 421.47 899.767 422.39C899.767 423.311 899.06 424.057 898.188 424.057C897.316 424.057 896.609 423.311 896.609 422.39C896.609 421.47 897.316 420.724 898.188 420.724Z" fill="white"/>
<path d="M1055.82 370.121C1056.69 370.121 1057.4 370.867 1057.4 371.787C1057.4 372.707 1056.69 373.453 1055.82 373.453C1054.95 373.453 1054.24 372.707 1054.24 371.787C1054.24 370.867 1054.95 370.121 1055.82 370.121Z" fill="white"/>
<path d="M528.794 370.121C529.666 370.121 530.372 370.867 530.372 371.787C530.372 372.707 529.666 373.453 528.794 373.453C527.922 373.453 527.215 372.707 527.215 371.787C527.215 370.867 527.922 370.121 528.794 370.121Z" fill="white"/>
<path d="M1088.4 420.724C1089.27 420.724 1089.98 421.47 1089.98 422.39C1089.98 423.311 1089.27 424.057 1088.4 424.057C1087.53 424.057 1086.82 423.311 1086.82 422.39C1086.82 421.47 1087.53 420.724 1088.4 420.724Z" fill="white"/>
<path d="M561.376 420.724C562.248 420.724 562.955 421.47 562.955 422.39C562.955 423.311 562.248 424.057 561.376 424.057C560.504 424.057 559.797 423.311 559.797 422.39C559.797 421.47 560.504 420.724 561.376 420.724Z" fill="white"/>
<path d="M719.008 370.121C719.88 370.121 720.587 370.867 720.587 371.787C720.587 372.707 719.88 373.453 719.008 373.453C718.136 373.453 717.43 372.707 717.43 371.787C717.43 370.867 718.136 370.121 719.008 370.121Z" fill="white"/>
<path d="M191.981 370.121C192.853 370.121 193.56 370.867 193.56 371.787C193.56 372.707 192.853 373.453 191.981 373.453C191.109 373.453 190.402 372.707 190.402 371.787C190.402 370.867 191.109 370.121 191.981 370.121Z" fill="white"/>
<path d="M1322.07 215.336C1322.3 215.336 1322.49 215.535 1322.49 215.78C1322.49 216.026 1322.3 216.225 1322.07 216.225C1321.83 216.225 1321.64 216.026 1321.64 215.78C1321.64 215.535 1321.83 215.336 1322.07 215.336Z" fill="white"/>
<path d="M795.038 215.336C795.271 215.336 795.459 215.535 795.459 215.78C795.459 216.026 795.271 216.225 795.038 216.225C794.806 216.225 794.617 216.026 794.617 215.78C794.617 215.535 794.806 215.336 795.038 215.336Z" fill="white"/>
<path d="M952.671 164.734C952.903 164.734 953.092 164.933 953.092 165.179C953.092 165.424 952.903 165.623 952.671 165.623C952.439 165.623 952.25 165.424 952.25 165.179C952.25 164.933 952.439 164.734 952.671 164.734Z" fill="white"/>
<path d="M425.644 164.734C425.876 164.734 426.065 164.933 426.065 165.179C426.065 165.424 425.876 165.623 425.644 165.623C425.411 165.623 425.223 165.424 425.223 165.179C425.223 164.933 425.411 164.734 425.644 164.734Z" fill="white"/>
<path d="M985.257 215.336C985.489 215.336 985.678 215.535 985.678 215.78C985.678 216.026 985.489 216.225 985.257 216.225C985.025 216.225 984.836 216.026 984.836 215.78C984.836 215.535 985.025 215.336 985.257 215.336Z" fill="white"/>
<path d="M458.23 215.336C458.462 215.336 458.651 215.535 458.651 215.78C458.651 216.026 458.462 216.225 458.23 216.225C457.997 216.225 457.809 216.026 457.809 215.78C457.809 215.535 457.997 215.336 458.23 215.336Z" fill="white"/>
<path d="M615.862 164.734C616.095 164.734 616.283 164.933 616.283 165.179C616.283 165.424 616.095 165.623 615.862 165.623C615.63 165.623 615.441 165.424 615.441 165.179C615.441 164.933 615.63 164.734 615.862 164.734Z" fill="white"/>
<path d="M88.8351 164.734C89.0675 164.734 89.2561 164.933 89.2561 165.179C89.2561 165.424 89.0675 165.623 88.8351 165.623C88.6027 165.623 88.4141 165.424 88.4141 165.179C88.4141 164.933 88.6027 164.734 88.8351 164.734Z" fill="white"/>
<path d="M1465.21 286.428C1465.44 286.428 1465.63 286.627 1465.63 286.872C1465.63 287.117 1465.44 287.316 1465.21 287.316C1464.98 287.316 1464.79 287.117 1464.79 286.872C1464.79 286.627 1464.98 286.428 1465.21 286.428Z" fill="white"/>
<path d="M938.183 286.428C938.415 286.428 938.604 286.627 938.604 286.872C938.604 287.117 938.415 287.316 938.183 287.316C937.95 287.316 937.762 287.117 937.762 286.872C937.762 286.627 937.95 286.428 938.183 286.428Z" fill="white"/>
<path d="M1095.82 235.824C1096.05 235.824 1096.24 236.023 1096.24 236.269C1096.24 236.514 1096.05 236.713 1095.82 236.713C1095.58 236.713 1095.39 236.514 1095.39 236.269C1095.39 236.023 1095.58 235.824 1095.82 235.824Z" fill="white"/>
<path d="M568.788 235.824C569.021 235.824 569.209 236.023 569.209 236.269C569.209 236.514 569.021 236.713 568.788 236.713C568.556 236.713 568.367 236.514 568.367 236.269C568.367 236.023 568.556 235.824 568.788 235.824Z" fill="white"/>
<path d="M1128.4 286.428C1128.63 286.428 1128.82 286.627 1128.82 286.872C1128.82 287.117 1128.63 287.316 1128.4 287.316C1128.17 287.316 1127.98 287.117 1127.98 286.872C1127.98 286.627 1128.17 286.428 1128.4 286.428Z" fill="white"/>
<path d="M601.374 286.428C601.607 286.428 601.795 286.627 601.795 286.872C601.795 287.117 601.607 287.316 601.374 287.316C601.142 287.316 600.953 287.117 600.953 286.872C600.953 286.627 601.142 286.428 601.374 286.428Z" fill="white"/>
<path d="M759.007 235.824C759.239 235.824 759.428 236.023 759.428 236.269C759.428 236.514 759.239 236.713 759.007 236.713C758.775 236.713 758.586 236.514 758.586 236.269C758.586 236.023 758.775 235.824 759.007 235.824Z" fill="white"/>
<path d="M231.98 235.824C232.212 235.824 232.401 236.023 232.401 236.269C232.401 236.514 232.212 236.713 231.98 236.713C231.747 236.713 231.559 236.514 231.559 236.269C231.559 236.023 231.747 235.824 231.98 235.824Z" fill="white"/>
</g>
</g>
</svg>
