<svg width="721" height="368" fill="none" xmlns="http://www.w3.org/2000/svg"><g filter="url(#a)"><rect x="28" y="15" width="1084" height="602.213" rx="16" fill="#F0F2F8" fill-opacity=".9" shape-rendering="crispEdges"/><rect x="44.413" y="71.511" width="206.589" height="241.797" rx="13.921" fill="#fff"/><g clip-path="url(#b)"><path d="M103.838 94.473v4.004c0 .556-.161.989-.482 1.3-.322.304-.752.457-1.291.457-.545 0-.986-.158-1.324-.474-.332-.316-.499-.757-.499-1.324h1.144c.006.245.063.436.172.572.114.136.278.205.49.205.207 0 .365-.066.474-.197.109-.13.164-.31.164-.539v-4.004h1.152Zm5.649 1.177v4.527h-1.152v-.572a1.54 1.54 0 0 1-.58.466 1.81 1.81 0 0 1-.768.163c-.354 0-.668-.074-.94-.221a1.644 1.644 0 0 1-.646-.662c-.152-.294-.228-.642-.228-1.046V95.65h1.144v2.492c0 .36.09.637.269.834.18.19.425.285.736.285.316 0 .564-.095.743-.285.18-.197.27-.475.27-.834V95.65h1.152Zm6.792-.066c.556 0 1.003.172 1.34.515.344.338.515.812.515 1.422v2.656h-1.144v-2.5c0-.355-.09-.625-.27-.81-.179-.19-.424-.286-.735-.286s-.558.096-.744.286c-.179.185-.269.455-.269.81v2.5h-1.144v-2.5c0-.355-.09-.625-.27-.81-.18-.19-.425-.286-.735-.286-.316 0-.567.096-.752.286-.18.185-.27.455-.27.81v2.5h-1.144V95.65h1.144v.547c.147-.19.335-.34.564-.45.234-.108.49-.163.768-.163.354 0 .67.076.948.229.278.147.493.36.646.637.147-.261.359-.47.637-.629.283-.158.588-.237.915-.237Zm4.126.72c.147-.208.348-.38.604-.516.262-.141.559-.212.891-.212a1.957 1.957 0 0 1 1.79 1.103c.185.349.278.755.278 1.218 0 .463-.093.874-.278 1.234-.18.354-.428.629-.744.825-.31.196-.659.294-1.046.294-.332 0-.626-.068-.882-.204a1.894 1.894 0 0 1-.613-.515v2.803h-1.144V95.65h1.144v.653Zm2.394 1.593c0-.273-.057-.507-.171-.703a1.16 1.16 0 0 0-1.619-.45 1.2 1.2 0 0 0-.441.458 1.473 1.473 0 0 0-.163.711c0 .273.054.51.163.711.115.202.262.357.441.466.186.103.382.155.589.155a1.178 1.178 0 0 0 1.03-.63c.114-.2.171-.44.171-.718Zm2.621-2.787a.723.723 0 0 1-.507-.188.658.658 0 0 1-.196-.482c0-.19.066-.349.196-.474a.706.706 0 0 1 .507-.196c.202 0 .368.065.499.196a.617.617 0 0 1 .204.474c0 .19-.068.352-.204.482a.692.692 0 0 1-.499.188Zm.564.54v4.527h-1.144V95.65h1.144Zm3.68-.066c.539 0 .975.172 1.307.515.333.338.499.812.499 1.422v2.656h-1.144v-2.5c0-.36-.09-.636-.27-.826-.18-.196-.425-.294-.735-.294-.316 0-.567.098-.752.294-.18.19-.27.466-.27.825v2.501h-1.144V95.65h1.144v.563c.153-.196.346-.348.58-.457.24-.115.502-.172.785-.172Zm4.708-.008c.338 0 .635.068.891.204.256.131.457.303.604.515v-.645h1.153v4.559c0 .42-.085.793-.254 1.12a1.846 1.846 0 0 1-.76.784c-.337.197-.746.295-1.225.295-.643 0-1.172-.15-1.586-.45a1.668 1.668 0 0 1-.694-1.226h1.136a.828.828 0 0 0 .384.491c.201.125.444.188.727.188.332 0 .602-.101.809-.303.207-.196.31-.495.31-.899v-.702c-.147.212-.351.39-.612.531a1.802 1.802 0 0 1-.883.212c-.381 0-.73-.098-1.046-.294a2.082 2.082 0 0 1-.752-.825 2.72 2.72 0 0 1-.269-1.234c0-.458.089-.864.269-1.218a2.04 2.04 0 0 1 .744-.817 2 2 0 0 1 1.054-.286Zm1.495 2.337c0-.278-.054-.515-.163-.71a1.119 1.119 0 0 0-.441-.458 1.156 1.156 0 0 0-.597-.164 1.16 1.16 0 0 0-.588.155c-.18.104-.327.257-.441.458-.109.196-.164.43-.164.703 0 .272.055.512.164.719.114.201.261.357.441.466.185.109.381.163.588.163.213 0 .412-.052.597-.155a1.19 1.19 0 0 0 .441-.458c.109-.201.163-.441.163-.719ZM70.228 95.843h.661c.82 0 1.156.581.745 1.292l-.332.572-.331.572c-.411.71-1.082.71-1.493 0l-.332-.572-.331-.572c-.404-.71-.07-1.292.752-1.292h.661Z" fill="#9195AD"/><path d="M89.542 99.552h-2.971c-1.189 0-1.486-.279-1.486-1.393v-1.671c0-1.115.297-1.393 1.486-1.393h2.971c1.189 0 1.486.278 1.486 1.393v1.671c0 1.114-.297 1.393-1.486 1.393Z" stroke="#9195AD" stroke-width="1.114" stroke-linecap="round" stroke-linejoin="round"/><path d="M85.085 92.866v.745M85.085 101.044v.745M82.866 95.095h.745M82.866 99.554h.745M92.519 99.554h.744M92.519 95.095h.744M91.03 92.866v.745M91.03 101.044v.745" stroke="#9195AD" stroke-width="1.114" stroke-linecap="round"/></g><g clip-path="url(#c)"><path d="M109.341 121.143c0-.563.129-1.068.389-1.516a2.806 2.806 0 0 1 1.068-1.043 2.98 2.98 0 0 1 1.483-.381c.613 0 1.157.152 1.631.455a2.54 2.54 0 0 1 1.044 1.276h-1.135a1.518 1.518 0 0 0-.621-.679 1.843 1.843 0 0 0-.919-.224c-.381 0-.721.086-1.019.257a1.814 1.814 0 0 0-.704.737c-.166.32-.248.693-.248 1.118 0 .425.082.798.248 1.118.171.32.406.569.704.745.298.172.638.257 1.019.257.348 0 .654-.074.919-.223.265-.15.472-.376.621-.68h1.135a2.535 2.535 0 0 1-1.044 1.276c-.474.298-1.018.447-1.631.447a2.997 2.997 0 0 1-1.483-.373 2.872 2.872 0 0 1-1.068-1.051 2.963 2.963 0 0 1-.389-1.516Zm8.741 2.965c-.431 0-.82-.097-1.168-.29a2.153 2.153 0 0 1-.82-.828 2.52 2.52 0 0 1-.298-1.242c0-.464.102-.876.307-1.235.204-.358.483-.634.836-.828.353-.193.748-.29 1.184-.29.437 0 .831.097 1.185.29.353.194.632.47.836.828.205.359.307.771.307 1.235a2.4 2.4 0 0 1-.315 1.234 2.21 2.21 0 0 1-.861.836 2.48 2.48 0 0 1-1.193.29Zm0-.82c.243 0 .469-.058.679-.174.215-.116.389-.29.522-.522.132-.232.199-.513.199-.844 0-.332-.064-.611-.191-.837a1.279 1.279 0 0 0-.505-.522 1.381 1.381 0 0 0-.679-.174c-.243 0-.47.058-.679.174-.205.116-.368.29-.489.522-.121.226-.182.505-.182.837 0 .491.124.872.373 1.142.254.266.571.398.952.398Zm5.646-3.893c.359 0 .679.075.961.224.287.149.51.37.671.663.16.292.24.646.24 1.06v2.691h-.936v-2.55c0-.409-.102-.721-.307-.936-.204-.221-.483-.332-.836-.332s-.635.111-.845.332c-.204.215-.306.527-.306.936v2.55h-.945v-4.563h.945v.522c.154-.188.35-.334.588-.439.243-.105.499-.158.77-.158Zm5.031.845h-.845v3.793h-.953v-3.793h-.538v-.77h.538v-.323c0-.525.138-.906.415-1.143.281-.243.72-.364 1.316-.364v.786c-.287 0-.488.056-.604.166-.116.105-.174.29-.174.555v.323h.845v.77Zm5.06 1.4c0 .171-.011.326-.033.464h-3.487c.028.364.163.657.406.878.243.22.541.331.895.331.508 0 .867-.213 1.076-.638h1.019c-.138.42-.389.765-.753 1.035-.359.265-.807.398-1.342.398-.436 0-.828-.097-1.176-.29a2.168 2.168 0 0 1-.812-.828 2.583 2.583 0 0 1-.29-1.242c0-.47.094-.881.282-1.235.193-.358.461-.634.803-.828a2.42 2.42 0 0 1 1.193-.29c.43 0 .814.094 1.151.282.337.188.599.453.787.795.188.337.281.726.281 1.168Zm-.985-.298c-.006-.348-.13-.627-.373-.837-.243-.21-.544-.315-.903-.315-.325 0-.604.105-.836.315-.232.205-.37.483-.414.837h2.526Zm3.058-1.102v2.526c0 .171.038.296.115.373.083.072.221.108.415.108h.579v.786h-.745c-.425 0-.751-.099-.977-.298-.227-.198-.34-.521-.34-.969v-2.526h-.538v-.77h.538v-1.135h.953v1.135h1.109v.77h-1.109Zm3.123 0v2.526c0 .171.038.296.115.373.083.072.221.108.415.108h.579v.786h-.745c-.425 0-.751-.099-.977-.298-.227-.198-.34-.521-.34-.969v-2.526h-.538v-.77h.538v-1.135h.953v1.135h1.109v.77h-1.109Zm2.501-1.375a.584.584 0 0 1-.43-.174.584.584 0 0 1-.174-.43c0-.171.058-.315.174-.431a.584.584 0 0 1 .43-.174c.166 0 .307.058.423.174.116.116.174.26.174.431a.584.584 0 0 1-.174.43.576.576 0 0 1-.423.174Zm.464.605v4.563h-.944v-4.563h.944Zm5.464 2.17c0 .171-.011.326-.033.464h-3.487c.027.364.163.657.406.878.243.22.541.331.894.331.508 0 .867-.213 1.077-.638h1.018c-.138.42-.389.765-.753 1.035-.359.265-.806.398-1.342.398-.436 0-.828-.097-1.176-.29a2.175 2.175 0 0 1-.812-.828 2.583 2.583 0 0 1-.29-1.242c0-.47.094-.881.282-1.235.193-.358.461-.634.803-.828a2.42 2.42 0 0 1 1.193-.29c.431 0 .815.094 1.151.282.337.188.599.453.787.795.188.337.282.726.282 1.168Zm-.986-.298c-.005-.348-.13-.627-.373-.837-.243-.21-.543-.315-.902-.315-.326 0-.605.105-.837.315-.232.205-.37.483-.414.837h2.526Zm3.613 2.766a2.37 2.37 0 0 1-.969-.191 1.744 1.744 0 0 1-.671-.53 1.335 1.335 0 0 1-.265-.753h.977a.685.685 0 0 0 .273.488c.172.127.384.191.638.191.265 0 .47-.05.613-.149.149-.105.224-.238.224-.398 0-.171-.083-.298-.249-.381-.16-.083-.417-.174-.77-.273a7.666 7.666 0 0 1-.837-.273 1.513 1.513 0 0 1-.563-.406c-.154-.182-.232-.423-.232-.721a1.1 1.1 0 0 1 .216-.662c.143-.205.348-.365.613-.481a2.33 2.33 0 0 1 .927-.174c.519 0 .936.133 1.251.398.32.259.491.616.513 1.068h-.944a.669.669 0 0 0-.248-.488c-.149-.122-.351-.183-.605-.183-.248 0-.439.047-.571.141a.435.435 0 0 0-.199.373c0 .121.044.224.132.306a.99.99 0 0 0 .323.199c.127.044.315.102.564.174.331.088.601.18.811.273.216.089.401.221.555.398.155.177.235.411.24.704 0 .259-.071.491-.215.696a1.43 1.43 0 0 1-.613.48 2.236 2.236 0 0 1-.919.174Z" fill="#9195AD"/><path d="M95.525 125.552H98.2c2.228 0 3.12-.892 3.12-3.12v-2.675c0-2.229-.892-3.12-3.12-3.12h-2.675c-2.228 0-3.12.891-3.12 3.12v2.675c0 2.228.892 3.12 3.12 3.12Z" stroke="#9195AD" stroke-width="1.113" stroke-linecap="round" stroke-linejoin="round"/><path d="m206.364 121.299-1.9 1.9a.71.71 0 0 1-.995-.001s0 0 0 0l-1.899-1.899a.708.708 0 0 1 .001-.994v-.001l1.899-1.899a.708.708 0 0 1 .994.001h.001l1.898 1.898v.001a.708.708 0 0 1 .001.994Z" stroke="#7C71FD" stroke-width=".743" stroke-linecap="round" stroke-linejoin="round"/><path d="M79.228 119.379h.661c.82 0 1.156.582.745 1.292l-.332.572-.331.572c-.411.711-1.082.711-1.493 0l-.332-.572-.331-.572c-.404-.71-.07-1.292.752-1.292h.661Z" fill="#9195AD"/></g><g clip-path="url(#d)"><path d="M110.742 143.943c.147-.218.349-.395.605-.531.261-.137.558-.205.891-.205a1.962 1.962 0 0 1 1.789 1.104c.185.348.278.754.278 1.217 0 .463-.093.875-.278 1.234-.18.354-.428.629-.744.825-.31.197-.659.295-1.045.295-.338 0-.635-.066-.891-.196a1.786 1.786 0 0 1-.605-.523v.645h-1.144v-6.047h1.144v2.182Zm2.394 1.585c0-.272-.057-.506-.171-.703a1.156 1.156 0 0 0-1.618-.449 1.19 1.19 0 0 0-.442.458 1.481 1.481 0 0 0-.163.711c0 .272.055.509.163.71.115.202.262.357.442.466.185.104.381.156.588.156a1.174 1.174 0 0 0 1.03-.63c.114-.201.171-.441.171-.719Zm4.051 2.354c-.435 0-.828-.096-1.176-.286a2.15 2.15 0 0 1-.826-.826 2.486 2.486 0 0 1-.294-1.225c0-.464.101-.872.303-1.226.207-.354.487-.627.841-.817a2.395 2.395 0 0 1 1.185-.295c.436 0 .831.098 1.185.295.354.19.632.463.834.817.207.354.31.762.31 1.226 0 .463-.106.871-.319 1.225-.207.354-.49.63-.849.826-.355.19-.752.286-1.194.286Zm0-.997a1.12 1.12 0 0 0 1.022-.605 1.53 1.53 0 0 0 .163-.735c0-.431-.114-.76-.343-.989a1.092 1.092 0 0 0-.825-.352c-.327 0-.602.117-.826.352-.217.229-.326.558-.326.989 0 .43.106.762.318.996.218.229.491.344.817.344Zm2.948-1.357c0-.457.09-.863.27-1.217.185-.355.436-.627.752-.818a2.004 2.004 0 0 1 1.895-.09c.267.126.48.295.638.507v-2.149h1.16v6.047h-1.16v-.67a1.555 1.555 0 0 1-.597.539 1.859 1.859 0 0 1-.89.205c-.382 0-.731-.098-1.046-.295a2.081 2.081 0 0 1-.752-.825 2.719 2.719 0 0 1-.27-1.234Zm3.563.017c0-.278-.055-.515-.163-.711a1.117 1.117 0 0 0-.442-.458 1.156 1.156 0 0 0-.596-.164 1.156 1.156 0 0 0-1.03.613 1.43 1.43 0 0 0-.163.703c0 .273.054.512.163.719.114.202.262.357.441.466.186.109.382.164.589.164.212 0 .411-.052.596-.156.185-.109.333-.261.442-.457.108-.202.163-.442.163-.719Zm6.641-2.264-2.802 6.668h-1.218l.981-2.255-1.815-4.413h1.283l1.169 3.162 1.185-3.162h1.217Zm3.79.654c.147-.207.349-.379.605-.515.261-.142.558-.213.891-.213.386 0 .735.096 1.046.286.316.191.563.463.743.818.186.348.278.754.278 1.217 0 .463-.092.875-.278 1.234-.18.354-.427.629-.743.825-.311.197-.66.295-1.046.295a1.842 1.842 0 0 1-1.496-.719v2.802h-1.144v-6.684h1.144v.654Zm2.395 1.593a1.38 1.38 0 0 0-.172-.703 1.156 1.156 0 0 0-1.618-.449 1.18 1.18 0 0 0-.441.458 1.47 1.47 0 0 0-.164.711c0 .272.055.509.164.71.114.202.261.357.441.466.185.104.381.156.588.156a1.174 1.174 0 0 0 1.03-.63c.114-.201.172-.441.172-.719Zm1.746 0c0-.457.09-.863.27-1.217.185-.355.433-.627.743-.818a2.01 2.01 0 0 1 1.055-.286c.337 0 .632.068.882.205.256.136.461.307.613.514v-.645h1.152v4.527h-1.152v-.662c-.147.213-.351.39-.613.531a1.86 1.86 0 0 1-.891.205c-.381 0-.73-.098-1.046-.295a2.105 2.105 0 0 1-.743-.825 2.719 2.719 0 0 1-.27-1.234Zm3.563.017c0-.278-.054-.515-.163-.711a1.11 1.11 0 0 0-.442-.458 1.156 1.156 0 0 0-.596-.164 1.156 1.156 0 0 0-1.03.613 1.43 1.43 0 0 0-.163.703c0 .273.054.512.163.719.115.202.262.357.441.466.186.109.382.164.589.164.212 0 .411-.052.596-.156.186-.109.333-.261.442-.457.109-.202.163-.442.163-.719Zm3.455-1.561c.147-.24.337-.428.572-.564.239-.136.512-.204.817-.204v1.201h-.303c-.359 0-.631.084-.817.253-.18.169-.269.463-.269.883v2.255h-1.144v-4.527h1.144v.703Zm6.409 1.462c0 .164-.011.311-.033.442h-3.31c.028.327.142.583.344.768.201.185.449.278.743.278.425 0 .728-.183.907-.548h1.234c-.13.436-.381.796-.751 1.079-.371.278-.826.417-1.365.417a2.42 2.42 0 0 1-1.177-.286 2.107 2.107 0 0 1-.809-.826 2.539 2.539 0 0 1-.286-1.225c0-.469.095-.88.286-1.234.191-.355.458-.627.801-.818.343-.19.738-.286 1.185-.286.43 0 .814.093 1.152.278.343.185.608.45.793.793.19.338.286.727.286 1.168Zm-1.185-.326a.896.896 0 0 0-.319-.703c-.207-.18-.46-.27-.76-.27-.283 0-.523.087-.719.262-.191.168-.308.405-.351.711h2.149Zm4.569-1.904c.54 0 .976.171 1.308.514.332.338.498.812.498 1.422v2.656h-1.144v-2.5c0-.36-.09-.635-.269-.826-.18-.196-.425-.294-.736-.294-.316 0-.566.098-.752.294-.179.191-.269.466-.269.826v2.5h-1.144v-4.527h1.144v.564a1.55 1.55 0 0 1 .58-.458c.24-.114.501-.171.784-.171Zm4.267 1.005v2.19c0 .152.036.264.106.335.077.065.202.098.376.098h.532v.964h-.72c-.964 0-1.446-.468-1.446-1.405v-2.182h-.539v-.94h.539v-1.12h1.152v1.12h1.014v.94h-1.014Z" fill="#9195AD"/><path d="M95.525 149.324H98.2c2.228 0 3.12-.891 3.12-3.12v-2.674c0-2.229-.892-3.12-3.12-3.12h-2.675c-2.228 0-3.12.891-3.12 3.12v2.674c0 2.229.892 3.12 3.12 3.12Z" stroke="#9195AD" stroke-width="1.113" stroke-linecap="round" stroke-linejoin="round"/><path d="m206.364 145.072-1.9 1.9a.71.71 0 0 1-.995-.001s0 0 0 0l-1.899-1.899a.71.71 0 0 1 .001-.995s0 0 0 0l1.899-1.899a.708.708 0 0 1 .994.001h.001l1.898 1.898s0 0 0 0a.71.71 0 0 1 .001.995Z" stroke="#7C71FD" stroke-width=".743" stroke-linecap="round" stroke-linejoin="round"/><path d="M79.228 143.154h.661c.82 0 1.156.582.745 1.292l-.332.572-.331.572c-.411.71-1.082.71-1.493 0l-.332-.572-.331-.572c-.404-.71-.07-1.292.752-1.292h.661Z" fill="#9195AD"/></g><g clip-path="url(#e)"><path d="M129.285 167.953h-.834v3.743h-.94v-3.743h-.531v-.76h.531v-.318c0-.518.137-.894.409-1.128.278-.24.711-.36 1.299-.36v.777c-.283 0-.482.054-.596.163-.115.104-.172.286-.172.548v.318h.834v.76Zm.556 1.471c0-.452.092-.852.278-1.201a2.066 2.066 0 0 1 1.846-1.103c.354 0 .662.071.924.212.267.136.479.308.637.515v-.654h.94v4.503h-.94v-.67a1.86 1.86 0 0 1-.645.531 1.988 1.988 0 0 1-.932.213 1.99 1.99 0 0 1-1.062-.295 2.169 2.169 0 0 1-.768-.833 2.614 2.614 0 0 1-.278-1.218Zm3.685.017c0-.311-.065-.581-.196-.809a1.31 1.31 0 0 0-1.169-.703c-.239 0-.463.06-.67.18a1.31 1.31 0 0 0-.506.514 1.608 1.608 0 0 0-.188.801c0 .311.062.583.188.817.13.235.299.414.506.54a1.345 1.345 0 0 0 1.341 0c.207-.12.373-.294.498-.523.131-.234.196-.507.196-.817Zm1.894 0c0-.463.092-.869.278-1.218.19-.354.452-.627.784-.817a2.257 2.257 0 0 1 1.144-.286c.545 0 .995.131 1.349.392.359.256.602.624.727 1.103h-1.005a1.074 1.074 0 0 0-.392-.523c-.18-.125-.406-.188-.679-.188-.381 0-.686.137-.915.409-.223.267-.335.643-.335 1.128 0 .484.112.863.335 1.136.229.272.534.408.915.408.54 0 .896-.237 1.071-.711h1.005a2.03 2.03 0 0 1-.736 1.095c-.359.267-.806.401-1.34.401-.43 0-.811-.096-1.144-.286a2.1 2.1 0 0 1-.784-.818c-.186-.354-.278-.762-.278-1.225Zm9.378-.107c0 .169-.011.322-.033.458h-3.44c.027.36.161.648.4.866.24.218.534.327.883.327.501 0 .855-.21 1.062-.629h1.005a2.042 2.042 0 0 1-.743 1.021c-.354.262-.796.393-1.324.393-.43 0-.817-.096-1.16-.286a2.141 2.141 0 0 1-.801-.818 2.539 2.539 0 0 1-.286-1.225c0-.463.092-.869.277-1.218.191-.354.455-.627.793-.817a2.38 2.38 0 0 1 1.177-.286c.425 0 .803.092 1.136.278.332.185.591.446.776.784.185.332.278.717.278 1.152Zm-.972-.294c-.006-.343-.129-.618-.368-.825-.24-.207-.537-.311-.891-.311-.321 0-.596.104-.825.311-.229.201-.365.477-.409.825h2.493Z" fill="#9195AD"/><path d="M113.549 173.099h2.674c2.229 0 3.12-.891 3.12-3.12v-2.675c0-2.228-.891-3.12-3.12-3.12h-2.674c-2.229 0-3.12.892-3.12 3.12v2.675c0 2.229.891 3.12 3.12 3.12Z" stroke="#9195AD" stroke-width="1.113" stroke-linecap="round" stroke-linejoin="round"/><path d="m206.626 169.267-1.9 1.9a1.08 1.08 0 0 1-1.519 0l-1.9-1.9a1.08 1.08 0 0 1 0-1.519l1.9-1.9a1.08 1.08 0 0 1 1.519 0l1.9 1.9a1.08 1.08 0 0 1 0 1.519ZM97.2 166.858h.662c.82 0 1.156.582.745 1.292l-.332.572-.332.572c-.41.711-1.081.711-1.492 0l-.332-.572-.332-.572c-.403-.71-.07-1.292.753-1.292h.66Z" fill="#9195AD"/></g><g clip-path="url(#f)"><rect x="58.335" y="180.523" width="178.295" height="23.773" rx="9.012" fill="#7C71FD" fill-opacity=".1"/><path d="M128.329 191.636c.158-.218.373-.395.645-.531a2 2 0 0 1 .924-.212c.397 0 .757.095 1.078.286.322.19.575.463.76.817.186.348.278.749.278 1.201 0 .452-.092.858-.278 1.218a2.095 2.095 0 0 1-.768.833 2.014 2.014 0 0 1-1.07.294c-.349 0-.66-.068-.932-.204a1.792 1.792 0 0 1-.637-.523v.654h-.932v-6.047h.932v2.214Zm2.737 1.561c0-.311-.065-.578-.196-.801a1.246 1.246 0 0 0-.507-.515 1.344 1.344 0 0 0-1.34 0 1.37 1.37 0 0 0-.506.523 1.653 1.653 0 0 0-.188.809c0 .311.062.583.188.818.13.228.299.403.506.523.213.119.436.179.67.179.24 0 .463-.06.67-.179a1.35 1.35 0 0 0 .507-.54c.131-.234.196-.506.196-.817Zm3.863 2.345c-.425 0-.809-.095-1.152-.286a2.117 2.117 0 0 1-.809-.817 2.49 2.49 0 0 1-.294-1.226c0-.457.101-.863.302-1.217.202-.354.477-.627.826-.817a2.388 2.388 0 0 1 1.168-.286c.431 0 .82.095 1.169.286.348.19.624.463.825.817.202.354.302.76.302 1.217 0 .458-.103.864-.31 1.218-.207.354-.49.629-.85.825a2.437 2.437 0 0 1-1.177.286Zm0-.809c.24 0 .463-.057.67-.171.213-.115.384-.286.515-.515.131-.229.196-.507.196-.834 0-.327-.062-.602-.188-.825a1.263 1.263 0 0 0-.498-.515 1.366 1.366 0 0 0-.67-.171c-.24 0-.463.057-.67.171a1.223 1.223 0 0 0-.482.515c-.12.223-.18.498-.18.825 0 .485.122.861.368 1.128.25.262.563.392.939.392Zm2.989-1.536c0-.452.092-.853.278-1.201a2.073 2.073 0 0 1 1.855-1.103c.294 0 .582.065.866.196.289.125.517.294.686.506v-2.173h.94v6.047h-.94v-.679a1.738 1.738 0 0 1-.637.54 1.95 1.95 0 0 1-.924.212c-.392 0-.751-.098-1.078-.294a2.169 2.169 0 0 1-.768-.833 2.614 2.614 0 0 1-.278-1.218Zm3.685.016c0-.31-.065-.58-.196-.809a1.317 1.317 0 0 0-.498-.523 1.314 1.314 0 0 0-.67-.179c-.24 0-.464.059-.671.179a1.32 1.32 0 0 0-.506.515c-.126.223-.188.49-.188.801 0 .311.062.583.188.817.131.234.299.414.506.54.213.119.436.179.671.179.239 0 .463-.06.67-.179.207-.12.373-.295.498-.523a1.65 1.65 0 0 0 .196-.818Zm6.258-2.247-2.762 6.619h-.965l.916-2.19-1.774-4.429h1.038l1.267 3.432 1.315-3.432h.965Z" fill="#7C71FD"/><path d="M113.549 196.868h2.674c2.229 0 3.12-.892 3.12-3.12v-2.675c0-2.228-.891-3.12-3.12-3.12h-2.674c-2.229 0-3.12.892-3.12 3.12v2.675c0 2.228.891 3.12 3.12 3.12Z" stroke="#7C71FD" stroke-width="1.113" stroke-linecap="round" stroke-linejoin="round"/><path d="m206.626 193.038-1.9 1.9a1.08 1.08 0 0 1-1.519 0l-1.9-1.9a1.08 1.08 0 0 1 0-1.519l1.9-1.9a1.08 1.08 0 0 1 1.519 0l1.9 1.9a1.08 1.08 0 0 1 0 1.519Z" fill="#7C71FD"/></g><rect x="58.706" y="180.895" width="177.552" height="23.03" rx="8.64" stroke="#7C71FD" stroke-width=".743"/><g clip-path="url(#g)"><path d="M129.726 214.661c.343 0 .648.074.915.221.273.147.485.365.638.653.158.289.237.638.237 1.046v2.656h-.924v-2.517c0-.403-.101-.711-.302-.923-.202-.218-.477-.327-.825-.327-.349 0-.627.109-.834.327-.202.212-.302.52-.302.923v2.517h-.932v-6.047h.932v2.068c.158-.191.356-.338.596-.442.245-.103.512-.155.801-.155Zm2.708 2.305c0-.453.093-.853.278-1.202.191-.348.447-.618.768-.809a2.06 2.06 0 0 1 1.079-.294c.354 0 .662.071.923.213.267.136.48.307.638.514v-.653h.94v4.502h-.94v-.67c-.158.213-.373.39-.646.531a1.984 1.984 0 0 1-.931.213c-.387 0-.741-.098-1.063-.294a2.194 2.194 0 0 1-.768-.834 2.619 2.619 0 0 1-.278-1.217Zm3.686.016c0-.311-.066-.58-.196-.809a1.312 1.312 0 0 0-1.169-.703c-.24 0-.463.06-.67.18a1.315 1.315 0 0 0-.507.515c-.125.223-.188.49-.188.801 0 .31.063.582.188.817.131.234.3.414.507.539a1.342 1.342 0 0 0 1.34 0c.207-.12.373-.294.499-.523.13-.234.196-.507.196-.817Zm4.476-2.321c.354 0 .67.074.948.221.283.147.504.365.662.653.158.289.237.638.237 1.046v2.656h-.924v-2.517c0-.403-.101-.711-.302-.923-.202-.218-.477-.327-.826-.327-.348 0-.626.109-.833.327-.202.212-.302.52-.302.923v2.517h-.932v-4.502h.932v.514c.152-.185.346-.329.58-.433.24-.103.493-.155.76-.155Zm2.765 2.305c0-.453.093-.853.278-1.202a2.073 2.073 0 0 1 1.855-1.103c.294 0 .583.065.866.196.289.125.518.294.687.507v-2.174h.94v6.047h-.94v-.678a1.73 1.73 0 0 1-.638.539 1.934 1.934 0 0 1-.923.213 2.06 2.06 0 0 1-1.079-.294 2.194 2.194 0 0 1-.768-.834 2.619 2.619 0 0 1-.278-1.217Zm3.686.016c0-.311-.066-.58-.196-.809a1.312 1.312 0 0 0-1.169-.703c-.24 0-.463.06-.67.18a1.315 1.315 0 0 0-.507.515c-.125.223-.188.49-.188.801 0 .31.063.582.188.817.131.234.3.414.507.539a1.342 1.342 0 0 0 1.34 0c.207-.12.373-.294.499-.523.13-.234.196-.507.196-.817Zm5.299-3.792v6.047h-.931v-6.047h.931Zm5.391 3.686c0 .169-.011.321-.033.457h-3.44c.027.36.161.649.4.866.24.218.534.327.883.327.501 0 .855-.209 1.062-.629h1.005a2.045 2.045 0 0 1-.743 1.022c-.354.261-.796.392-1.324.392a2.35 2.35 0 0 1-1.161-.286 2.143 2.143 0 0 1-.8-.817 2.543 2.543 0 0 1-.286-1.226c0-.463.092-.869.277-1.218.191-.354.455-.626.793-.817a2.38 2.38 0 0 1 1.177-.286c.425 0 .803.093 1.136.278.332.185.591.447.776.784.185.333.278.717.278 1.153Zm-.973-.295c-.005-.343-.128-.618-.367-.825-.24-.207-.537-.31-.891-.31-.321 0-.597.103-.825.31-.229.202-.365.477-.409.825h2.492Zm3.818-1.086h-.833v3.742h-.94v-3.742h-.531v-.76h.531v-.319c0-.518.136-.894.409-1.128.277-.24.711-.359 1.299-.359v.776c-.283 0-.482.054-.597.163-.114.104-.171.286-.171.548v.319h.833v.76Zm1.954 0v2.492c0 .169.038.291.114.368.082.071.218.106.409.106h.572v.776h-.736c-.419 0-.741-.098-.964-.294-.223-.196-.335-.515-.335-.956v-2.492h-.531v-.76h.531v-1.12h.94v1.12h1.095v.76h-1.095Z" fill="#9195AD"/><path d="M113.549 220.634h2.674c2.229 0 3.12-.891 3.12-3.12v-2.674c0-2.229-.891-3.12-3.12-3.12h-2.674c-2.229 0-3.12.891-3.12 3.12v2.674c0 2.229.891 3.12 3.12 3.12Z" stroke="#9195AD" stroke-width="1.113" stroke-linecap="round" stroke-linejoin="round"/><path d="m206.626 217.115-1.9 1.9a1.08 1.08 0 0 1-1.519 0l-1.9-1.9a1.08 1.08 0 0 1 0-1.519l1.9-1.9a1.08 1.08 0 0 1 1.519 0l1.9 1.9a1.08 1.08 0 0 1 0 1.519Z" fill="#7C71FD"/></g><g clip-path="url(#h)"><path d="M129.726 238.432c.343 0 .648.073.915.22.273.148.485.365.638.654.158.289.237.638.237 1.046v2.656h-.924v-2.517c0-.403-.101-.711-.302-.923-.202-.218-.477-.327-.825-.327-.349 0-.627.109-.834.327-.202.212-.302.52-.302.923v2.517h-.932v-6.047h.932v2.067c.158-.19.356-.337.596-.441.245-.103.512-.155.801-.155Zm2.708 2.304c0-.452.093-.852.278-1.201a2.08 2.08 0 0 1 1.847-1.103c.354 0 .662.071.923.212.267.136.48.308.638.515v-.654h.94v4.503h-.94v-.67a1.855 1.855 0 0 1-.646.531 1.984 1.984 0 0 1-.931.213c-.387 0-.741-.098-1.063-.295a2.184 2.184 0 0 1-.768-.833 2.626 2.626 0 0 1-.278-1.218Zm3.686.017c0-.311-.066-.581-.196-.809a1.32 1.32 0 0 0-1.839-.523 1.32 1.32 0 0 0-.507.514 1.619 1.619 0 0 0-.188.801c0 .311.063.583.188.817.131.235.3.415.507.54a1.342 1.342 0 0 0 1.34 0c.207-.12.373-.294.499-.523.13-.234.196-.507.196-.817Zm4.476-2.321c.354 0 .67.073.948.22.283.148.504.365.662.654.158.289.237.638.237 1.046v2.656h-.924v-2.517c0-.403-.101-.711-.302-.923-.202-.218-.477-.327-.826-.327-.348 0-.626.109-.833.327-.202.212-.302.52-.302.923v2.517h-.932v-4.503h.932v.515c.152-.185.346-.329.58-.433.24-.103.493-.155.76-.155Zm2.765 2.304c0-.452.093-.852.278-1.201a2.08 2.08 0 0 1 2.721-.907c.289.125.518.294.687.507v-2.174h.94v6.047h-.94v-.678a1.739 1.739 0 0 1-.638.539 1.934 1.934 0 0 1-.923.213c-.392 0-.752-.098-1.079-.295a2.184 2.184 0 0 1-.768-.833 2.626 2.626 0 0 1-.278-1.218Zm3.686.017c0-.311-.066-.581-.196-.809a1.32 1.32 0 0 0-1.839-.523 1.32 1.32 0 0 0-.507.514 1.619 1.619 0 0 0-.188.801c0 .311.063.583.188.817.131.235.3.415.507.54a1.342 1.342 0 0 0 1.34 0c.207-.12.373-.294.499-.523.13-.234.196-.507.196-.817Zm5.299-1.594c.136-.229.316-.406.54-.531.228-.131.498-.196.809-.196v.964h-.237c-.365 0-.643.093-.834.278-.185.185-.278.507-.278.964v2.37h-.931v-4.503h.931v.654Zm2.72-1.25a.574.574 0 0 1-.425-.172.574.574 0 0 1-.172-.425c0-.169.057-.31.172-.425a.578.578 0 0 1 .425-.171c.163 0 .302.057.416.171a.576.576 0 0 1 .172.425.574.574 0 0 1-.172.425.564.564 0 0 1-.416.172Zm.457.596v4.503h-.931v-4.503h.931Zm3.078-.073c.349 0 .657.071.924.212.272.136.485.308.637.515v-.654h.94v4.577c0 .414-.087.781-.261 1.103a1.88 1.88 0 0 1-.76.768c-.327.185-.72.278-1.177.278-.61 0-1.117-.145-1.52-.433a1.574 1.574 0 0 1-.687-1.161h.924c.071.235.22.423.449.564.235.147.512.221.834.221.376 0 .678-.115.907-.343.234-.229.351-.562.351-.997v-.752a1.92 1.92 0 0 1-1.561.752c-.392 0-.751-.098-1.078-.295a2.169 2.169 0 0 1-.768-.833 2.614 2.614 0 0 1-.278-1.218c0-.452.092-.852.278-1.201a2.066 2.066 0 0 1 1.846-1.103Zm1.561 2.321c0-.311-.065-.581-.196-.809a1.31 1.31 0 0 0-1.168-.703c-.24 0-.464.06-.671.18a1.317 1.317 0 0 0-.506.514 1.619 1.619 0 0 0-.188.801c0 .311.063.583.188.817.131.235.299.415.506.54a1.346 1.346 0 0 0 1.341 0c.207-.12.373-.294.498-.523.131-.234.196-.507.196-.817Zm4.533-2.321c.344 0 .649.073.916.22.272.148.485.365.637.654.158.289.237.638.237 1.046v2.656h-.923v-2.517c0-.403-.101-.711-.303-.923-.201-.218-.476-.327-.825-.327s-.627.109-.834.327c-.201.212-.302.52-.302.923v2.517h-.932v-6.047h.932v2.067a1.58 1.58 0 0 1 .597-.441c.245-.103.512-.155.8-.155Zm4.106.833v2.493c0 .169.038.291.115.367.081.071.217.107.408.107h.572v.776h-.735c-.42 0-.741-.098-.965-.294-.223-.196-.335-.515-.335-.956v-2.493h-.531v-.76h.531v-1.119h.94v1.119h1.095v.76h-1.095Z" fill="#9195AD"/><path d="M113.549 244.405h2.674c2.229 0 3.12-.891 3.12-3.12v-2.674c0-2.229-.891-3.121-3.12-3.121h-2.674c-2.229 0-3.12.892-3.12 3.121v2.674c0 2.229.891 3.12 3.12 3.12Z" stroke="#9195AD" stroke-width="1.113" stroke-linecap="round" stroke-linejoin="round"/><path d="m206.626 240.888-1.9 1.9a1.08 1.08 0 0 1-1.519 0l-1.9-1.9a1.08 1.08 0 0 1 0-1.519l1.9-1.9a1.08 1.08 0 0 1 1.519 0l1.9 1.9a1.08 1.08 0 0 1 0 1.519Z" fill="#7C71FD"/></g><g clip-path="url(#i)"><path d="M128.329 260.737v6.048h-.932v-6.048h.932Zm5.39 3.686c0 .169-.011.321-.032.458h-3.441c.028.359.161.648.401.866.239.218.534.327.882.327.502 0 .856-.21 1.063-.63h1.005a2.036 2.036 0 0 1-.744 1.022c-.354.261-.795.392-1.324.392-.43 0-.817-.095-1.16-.286a2.132 2.132 0 0 1-.801-.817 2.543 2.543 0 0 1-.286-1.226c0-.463.093-.869.278-1.217.191-.354.455-.627.793-.818.343-.19.735-.286 1.176-.286.425 0 .804.093 1.136.278.333.186.591.447.777.785.185.332.277.716.277 1.152Zm-.972-.294c-.006-.343-.128-.619-.368-.826-.24-.207-.536-.31-.891-.31-.321 0-.596.103-.825.31-.229.202-.365.477-.409.826h2.493Zm3.744-1.921c.349 0 .657.071.924.213.272.136.484.308.637.515v-.654h.94v4.576c0 .414-.087.782-.262 1.103a1.876 1.876 0 0 1-.76.769c-.327.185-.719.277-1.176.277-.611 0-1.117-.144-1.52-.433a1.57 1.57 0 0 1-.687-1.16h.924c.07.234.22.422.449.564.234.147.512.22.834.22.375 0 .678-.114.907-.343.234-.229.351-.561.351-.997v-.752a1.92 1.92 0 0 1-1.561.752 2.06 2.06 0 0 1-1.079-.294 2.187 2.187 0 0 1-.768-.834 2.619 2.619 0 0 1-.278-1.217c0-.452.093-.853.278-1.201a2.073 2.073 0 0 1 1.847-1.104Zm1.561 2.321c0-.31-.065-.58-.196-.809a1.319 1.319 0 0 0-1.839-.523 1.313 1.313 0 0 0-.506.515c-.126.223-.188.49-.188.801 0 .31.062.583.188.817.13.234.299.414.506.539a1.345 1.345 0 0 0 1.34 0c.207-.119.374-.294.499-.523.131-.234.196-.506.196-.817Zm5.299-3.792v6.048h-.931v-6.048h.931Zm5.391 3.686c0 .169-.011.321-.033.458h-3.44c.027.359.161.648.401.866.239.218.533.327.882.327.501 0 .855-.21 1.062-.63h1.006a2.042 2.042 0 0 1-.744 1.022c-.354.261-.795.392-1.324.392-.43 0-.817-.095-1.16-.286a2.132 2.132 0 0 1-.801-.817 2.543 2.543 0 0 1-.286-1.226c0-.463.092-.869.278-1.217.19-.354.455-.627.792-.818.344-.19.736-.286 1.177-.286.425 0 .804.093 1.136.278.332.186.591.447.776.785.186.332.278.716.278 1.152Zm-.972-.294c-.006-.343-.128-.619-.368-.826-.24-.207-.537-.31-.891-.31-.321 0-.596.103-.825.31-.229.202-.365.477-.409.826h2.493Zm3.817-1.087h-.833v3.743h-.94v-3.743h-.531v-.76h.531v-.319c0-.517.136-.893.409-1.127.278-.24.711-.36 1.299-.36v.776c-.283 0-.482.055-.596.164-.115.103-.172.286-.172.547v.319h.833v.76Zm1.954 0v2.492c0 .169.038.292.114.368.082.071.218.106.409.106h.572v.777h-.736c-.419 0-.741-.098-.964-.295-.223-.196-.335-.514-.335-.956v-2.492h-.531v-.76h.531v-1.12h.94v1.12h1.095v.76h-1.095Z" fill="#9195AD"/><path d="M113.549 268.178h2.674c2.229 0 3.12-.892 3.12-3.12v-2.675c0-2.228-.891-3.12-3.12-3.12h-2.674c-2.229 0-3.12.892-3.12 3.12v2.675c0 2.228.891 3.12 3.12 3.12Z" stroke="#9195AD" stroke-width="1.113" stroke-linecap="round" stroke-linejoin="round"/><path d="m206.626 264.543-1.9 1.9a1.08 1.08 0 0 1-1.519 0l-1.9-1.9a1.08 1.08 0 0 1 0-1.519l1.9-1.9a1.08 1.08 0 0 1 1.519 0l1.9 1.9a1.08 1.08 0 0 1 0 1.519Z" fill="#7C71FD"/></g><g clip-path="url(#j)"><path d="M128.329 284.512v6.047h-.932v-6.047h.932Zm5.39 3.685c0 .169-.011.322-.032.458h-3.441c.028.36.161.648.401.866.239.218.534.327.882.327.502 0 .856-.21 1.063-.629h1.005a2.038 2.038 0 0 1-.744 1.021c-.354.262-.795.393-1.324.393-.43 0-.817-.096-1.16-.286a2.141 2.141 0 0 1-.801-.818 2.539 2.539 0 0 1-.286-1.225c0-.463.093-.869.278-1.218.191-.354.455-.626.793-.817a2.376 2.376 0 0 1 1.176-.286c.425 0 .804.092 1.136.278.333.185.591.446.777.784.185.333.277.717.277 1.152Zm-.972-.294c-.006-.343-.128-.618-.368-.825-.24-.207-.536-.311-.891-.311-.321 0-.596.104-.825.311-.229.201-.365.477-.409.825h2.493Zm3.744-1.92c.349 0 .657.071.924.212.272.137.484.308.637.515v-.654h.94v4.577c0 .414-.087.781-.262 1.103a1.868 1.868 0 0 1-.76.768c-.327.185-.719.278-1.176.278-.611 0-1.117-.145-1.52-.433a1.571 1.571 0 0 1-.687-1.161h.924a.98.98 0 0 0 .449.564c.234.147.512.221.834.221.375 0 .678-.115.907-.343.234-.229.351-.562.351-.997v-.752a1.93 1.93 0 0 1-1.561.752c-.392 0-.752-.098-1.079-.295a2.184 2.184 0 0 1-.768-.833 2.626 2.626 0 0 1-.278-1.218c0-.452.093-.852.278-1.201a2.08 2.08 0 0 1 1.847-1.103Zm1.561 2.321c0-.311-.065-.581-.196-.809a1.312 1.312 0 0 0-1.169-.703c-.239 0-.463.06-.67.18a1.31 1.31 0 0 0-.506.514 1.608 1.608 0 0 0-.188.801c0 .311.062.583.188.817.13.235.299.415.506.54a1.345 1.345 0 0 0 1.34 0c.207-.12.374-.294.499-.523.131-.234.196-.507.196-.817Zm5.299-1.594a1.44 1.44 0 0 1 .54-.531 1.6 1.6 0 0 1 .809-.196v.964h-.237c-.365 0-.643.093-.834.278-.185.185-.278.507-.278.964v2.37h-.931v-4.503h.931v.654Zm2.72-1.25a.574.574 0 0 1-.425-.172.578.578 0 0 1-.172-.425.58.58 0 0 1 .172-.425.578.578 0 0 1 .425-.171.57.57 0 0 1 .417.171.58.58 0 0 1 .171.425.578.578 0 0 1-.171.425.568.568 0 0 1-.417.172Zm.458.596v4.503h-.932v-4.503h.932Zm3.078-.073c.348 0 .656.071.923.212.272.137.485.308.637.515v-.654h.94v4.577c0 .414-.087.781-.261 1.103a1.88 1.88 0 0 1-.76.768c-.327.185-.719.278-1.177.278-.61 0-1.117-.145-1.52-.433a1.57 1.57 0 0 1-.686-1.161h.923a.989.989 0 0 0 .449.564c.235.147.513.221.834.221.376 0 .678-.115.907-.343.234-.229.351-.562.351-.997v-.752a1.919 1.919 0 0 1-1.56.752 2.05 2.05 0 0 1-1.079-.295 2.176 2.176 0 0 1-.768-.833 2.626 2.626 0 0 1-.278-1.218c0-.452.093-.852.278-1.201a2.073 2.073 0 0 1 1.847-1.103Zm1.56 2.321c0-.311-.065-.581-.196-.809a1.31 1.31 0 0 0-1.168-.703c-.24 0-.463.06-.67.18a1.32 1.32 0 0 0-.507.514 1.619 1.619 0 0 0-.188.801c0 .311.063.583.188.817.131.235.3.415.507.54a1.342 1.342 0 0 0 1.34 0c.207-.12.373-.294.498-.523.131-.234.196-.507.196-.817Zm4.534-2.321c.343 0 .648.073.915.22.272.148.485.365.637.654.158.289.237.638.237 1.046v2.656h-.923v-2.517c0-.403-.101-.711-.302-.923-.202-.218-.477-.327-.826-.327-.348 0-.626.109-.833.327-.202.212-.303.52-.303.923v2.517h-.931v-6.047h.931v2.067a1.58 1.58 0 0 1 .597-.441c.245-.103.512-.155.801-.155Zm4.105.833v2.493c0 .169.038.291.115.368.081.07.218.106.408.106h.572v.776h-.735c-.42 0-.741-.098-.964-.294-.224-.196-.335-.515-.335-.956v-2.493h-.532v-.76h.532v-1.119h.939v1.119h1.095v.76h-1.095Z" fill="#9195AD"/><path d="M113.549 291.954h2.674c2.229 0 3.12-.891 3.12-3.12v-2.674c0-2.229-.891-3.12-3.12-3.12h-2.674c-2.229 0-3.12.891-3.12 3.12v2.674c0 2.229.891 3.12 3.12 3.12Z" stroke="#9195AD" stroke-width="1.113" stroke-linecap="round" stroke-linejoin="round"/><path d="m206.626 288.316-1.9 1.899c-.416.417-1.1.417-1.519 0l-1.9-1.899a1.082 1.082 0 0 1 0-1.52l1.9-1.899a1.079 1.079 0 0 1 1.519 0l1.9 1.899c.416.42.416 1.103 0 1.52Z" fill="#9195AD"/></g><rect x="44.413" y="71.511" width="206.589" height="241.797" rx="13.921" stroke="#ECECEC" stroke-width="1.114"/><g filter="url(#k)"><rect x="562.591" y="39.84" width="9.689" height="9.689" rx="4.845" stroke="#9095AF" stroke-width="1.169"/><path d="m528.272 45.448-1.818.612a1.677 1.677 0 0 0-1.07 1.069l-.613 1.814c-.524 1.57-2.732 1.536-3.222-.034l-2.063-6.622c-.401-1.313.814-2.538 2.119-2.126l6.644 2.06c1.561.489 1.584 2.704.023 3.227Z" stroke="#7C71FD" stroke-width="1.251" stroke-linecap="round" stroke-linejoin="round"/><path fill-rule="evenodd" clip-rule="evenodd" d="M579.83 42.597a3.049 3.049 0 0 1 3.049-3.048h5.011a3.049 3.049 0 0 1 3.049 3.048v5.012a3.049 3.049 0 0 1-3.049 3.049h-5.011a3.049 3.049 0 0 1-3.049-3.049v-5.012Zm3.049-1.962a1.963 1.963 0 0 0-1.963 1.962V46.6l1.697-1.91a1.378 1.378 0 0 1 2.151.115l1.207 1.69.018-.023a1.378 1.378 0 0 1 2.214.107l1.366 2.049c.18-.297.284-.645.284-1.018v-5.012a1.963 1.963 0 0 0-1.963-1.962h-5.011Zm5.881 8.735-1.46-2.19a.293.293 0 0 0-.47-.023l-1.972 2.415h3.032c.312 0 .608-.073.87-.202Zm-5.304.202 1.803-2.207-1.378-1.93a.293.293 0 0 0-.457-.024l-2.433 2.738a1.964 1.964 0 0 0 1.888 1.423h.577Zm3.056-6.557a.96.96 0 1 1 1.921 0 .96.96 0 0 1-1.921 0Zm.961.126a.125.125 0 0 0 0-.251.126.126 0 0 0-.126.125c0 .07.057.126.126.126Z" fill="#9095AF"/><path d="M585.381 48.864a3.758 3.758 0 1 1 7.516-.001 3.758 3.758 0 0 1-7.516 0Z" fill="#9095AF"/><path fill-rule="evenodd" clip-rule="evenodd" d="M584.963 48.864a4.176 4.176 0 1 1 8.353 0 4.176 4.176 0 0 1-8.353 0Zm4.176-3.341a3.341 3.341 0 1 0 0 6.682 3.341 3.341 0 0 0 0-6.682Z" fill="#FAFAFA"/><path fill-rule="evenodd" clip-rule="evenodd" d="M589.139 47.319c.162 0 .293.13.293.292v.96h.96a.292.292 0 1 1 0 .585h-.96v.96a.293.293 0 0 1-.585 0v-.96h-.961a.292.292 0 0 1 0-.584h.961v-.961c0-.161.131-.292.292-.292Z" fill="#FAFAFA"/><rect x="541.135" y="40.09" width="10.023" height="10.023" rx="2.506" stroke="#9095AF" stroke-width="1.253"/><path d="M66.463 39.803c-2.593-.408-3.312 8.316-1.604 10.85" stroke="#FF4E4E" stroke-width="1.511" stroke-linecap="round" stroke-linejoin="round"/><path d="M66.463 39.803c-2.593-.408-3.312 8.316-1.604 10.85" stroke="url(#l)" stroke-width="1.511" stroke-linecap="round" stroke-linejoin="round"/><path d="M66.463 39.803c-2.593-.408-3.312 8.316-1.604 10.85" stroke="url(#m)" stroke-width="1.511" stroke-linecap="round" stroke-linejoin="round"/><path d="M66.463 39.803c-2.593-.408-3.312 8.316-1.604 10.85" stroke="url(#n)" stroke-width="1.511" stroke-linecap="round" stroke-linejoin="round"/><path d="M62.451 50.657c4.803-5.81 5.862-10.492 4.013-10.852" stroke="#FF4E4E" stroke-width="1.511" stroke-linecap="round" stroke-linejoin="round"/><path d="M62.451 50.657c4.803-5.81 5.862-10.492 4.013-10.852" stroke="url(#o)" stroke-width="1.511" stroke-linecap="round" stroke-linejoin="round"/><path d="M62.451 50.657c4.803-5.81 5.862-10.492 4.013-10.852" stroke="url(#p)" stroke-width="1.511" stroke-linecap="round" stroke-linejoin="round"/><path d="M62.451 50.657c4.803-5.81 5.862-10.492 4.013-10.852" stroke="url(#q)" stroke-width="1.511" stroke-linecap="round" stroke-linejoin="round"/><path d="M62.451 50.657c4.803-5.81 5.862-10.492 4.013-10.852" stroke="url(#r)" stroke-width="1.511" stroke-linecap="round" stroke-linejoin="round"/><path d="M64.865 50.653c1.649 2.447 4.594 1.596 5.014-.42" stroke="#FF4E4E" stroke-width="1.511" stroke-linecap="round" stroke-linejoin="round"/><path d="M64.865 50.653c1.649 2.447 4.594 1.596 5.014-.42" stroke="url(#s)" stroke-width="1.511" stroke-linecap="round" stroke-linejoin="round"/><path d="M64.865 50.653c1.649 2.447 4.594 1.596 5.014-.42" stroke="url(#t)" stroke-width="1.511" stroke-linecap="round" stroke-linejoin="round"/><path d="M64.865 50.653c1.649 2.447 4.594 1.596 5.014-.42" stroke="url(#u)" stroke-width="1.511" stroke-linecap="round" stroke-linejoin="round"/><path d="M64.865 50.653c1.649 2.447 4.594 1.596 5.014-.42" stroke="url(#v)" stroke-width="1.511" stroke-linecap="round" stroke-linejoin="round"/><path d="M64.865 50.653c1.649 2.447 4.594 1.596 5.014-.42" stroke="url(#w)" stroke-width="1.511" stroke-linecap="round" stroke-linejoin="round"/><path d="M80.486 48.003H82.6v1.02H79.2v-6.417h1.287v5.397Zm5.194 1.103c-.49 0-.932-.107-1.324-.322a2.412 2.412 0 0 1-.928-.928c-.221-.398-.331-.858-.331-1.38 0-.52.113-.98.34-1.378.233-.398.548-.705.947-.92.398-.22.842-.33 1.333-.33.49 0 .934.11 1.333.33.398.215.71.522.937.92.233.398.35.858.35 1.379 0 .52-.12.98-.359 1.379a2.442 2.442 0 0 1-.956.928 2.785 2.785 0 0 1-1.342.322Zm0-1.121c.233 0 .45-.056.653-.166.208-.116.374-.288.496-.515.123-.227.184-.502.184-.827 0-.484-.129-.855-.386-1.112a1.233 1.233 0 0 0-.929-.396c-.367 0-.677.132-.928.395-.245.258-.368.629-.368 1.113s.12.858.359 1.122c.245.257.551.386.919.386Zm5.1-2.997v2.463c0 .172.04.298.119.377.086.074.227.11.423.11h.597v1.085h-.809c-1.085 0-1.627-.527-1.627-1.58v-2.455h-.607V43.93h.607v-1.26h1.296v1.26h1.14v1.058h-1.14Zm3.564 0v2.463c0 .172.04.298.12.377.085.074.226.11.422.11h.598v1.085h-.81c-1.084 0-1.627-.527-1.627-1.58v-2.455h-.606V43.93h.606v-1.26h1.297v1.26h1.14v1.058h-1.14Zm2.718-1.664a.81.81 0 0 1-.57-.212.737.737 0 0 1-.22-.542c0-.215.073-.392.22-.534a.79.79 0 0 1 .57-.22.76.76 0 0 1 .56.22c.154.142.23.32.23.534a.722.722 0 0 1-.23.542.777.777 0 0 1-.56.212Zm.634.606v5.093H96.41V43.93h1.287Zm6.007 2.437c0 .183-.013.349-.037.496h-3.724c.031.368.16.656.387.864.226.209.505.313.836.313.478 0 .818-.206 1.021-.616h1.388c-.147.49-.429.895-.846 1.213-.417.313-.928.47-1.535.47-.491 0-.932-.108-1.324-.323-.386-.22-.69-.53-.91-.928-.215-.398-.322-.858-.322-1.38 0-.526.107-.989.322-1.387.214-.399.515-.705.9-.92.387-.214.831-.321 1.334-.321.484 0 .916.104 1.296.312.386.209.683.506.892.892.214.38.322.818.322 1.315Zm-1.334-.368c-.006-.331-.125-.595-.358-.79a1.26 1.26 0 0 0-.855-.304c-.319 0-.588.098-.809.294-.215.19-.346.457-.395.8h2.417Zm3.56 2.004h2.114v1.02h-3.401v-6.417h1.287v5.397Zm2.602-1.544c0-.515.101-.972.303-1.37.208-.399.487-.705.837-.92.355-.214.75-.321 1.185-.321.38 0 .711.076.993.23.288.153.518.346.69.579v-.727h1.296v5.093h-1.296v-.744a1.944 1.944 0 0 1-.69.597c-.288.154-.622.23-1.002.23-.429 0-.821-.11-1.176-.33-.35-.221-.629-.53-.837-.93-.202-.404-.303-.866-.303-1.387Zm4.008.018c0-.313-.061-.58-.184-.8a1.261 1.261 0 0 0-.496-.515 1.306 1.306 0 0 0-.672-.184 1.3 1.3 0 0 0-1.158.69 1.61 1.61 0 0 0-.184.79c0 .307.062.577.184.81.129.226.294.401.497.523.208.123.429.184.661.184.239 0 .463-.058.672-.174.208-.123.373-.294.496-.515.123-.227.184-.497.184-.81Zm3.84-1.802a1.85 1.85 0 0 1 .681-.598c.294-.153.628-.23 1.002-.23a2.2 2.2 0 0 1 2.013 1.242c.208.392.312.849.312 1.37 0 .52-.104.983-.312 1.388a2.275 2.275 0 0 1-.837.928c-.349.22-.741.331-1.176.331-.38 0-.714-.073-1.002-.22a1.997 1.997 0 0 1-.681-.589v.726h-1.287V42.22h1.287v2.455Zm2.694 1.784c0-.307-.065-.57-.193-.791a1.303 1.303 0 0 0-1.82-.506 1.337 1.337 0 0 0-.497.515 1.664 1.664 0 0 0-.184.8c0 .306.062.573.184.8.129.227.294.401.497.524.208.116.429.174.661.174.239 0 .46-.06.662-.184a1.32 1.32 0 0 0 .497-.523 1.62 1.62 0 0 0 .193-.81Z" fill="#9095AF"/></g><g clip-path="url(#x)"><path fill="#fff" d="M413.814 133.582h311.529v311.529H413.814z"/><path d="M547.611 353.564c-1.575 17.869-.664 35.676 6.817 36.042 6.632.325 5.509-12.563 9.991-31.258" fill="#fff"/><path d="M547.611 353.564c-1.575 17.869-.664 35.676 6.817 36.042 6.632.325 5.509-12.563 9.991-31.258" stroke="#2B2B2B" stroke-width="6.265" stroke-linecap="round" stroke-linejoin="round"/><path d="M617.248 331.932c15.044 9.769 28.508 21.459 24.187 27.576-3.831 5.424-13.29-3.402-30.775-11.391" fill="#fff"/><path d="M617.248 331.932c15.044 9.769 28.508 21.459 24.187 27.576-3.831 5.424-13.29-3.402-30.775-11.391" stroke="#2B2B2B" stroke-width="6.265" stroke-linecap="round" stroke-linejoin="round"/><path d="M640.542 291.763c.23 26.381-9.102 63.976-61.789 70.361-48.929 5.929-74.244-19.644-80.127-50.806-2.74-14.522-18.398-72.992 50.444-88.908 82.82-19.142 91.428 63.946 91.472 69.353Z" fill="#fff"/><path d="M640.53 291.766c.228 26.381-9.103 63.976-61.789 70.36-48.928 5.927-74.242-19.644-80.125-50.806-2.741-14.521-18.402-72.991 50.443-88.906 82.819-19.145 91.425 63.944 91.471 69.352Z" stroke="#2B2B2B" stroke-width="6.265" stroke-linecap="round" stroke-linejoin="round"/><path d="M525.495 302.621s1.924-9.035 9.478-9.756c9.039-.864 10.293 8.348 10.293 8.348" stroke="#2B2B2B" stroke-width="4.654" stroke-linecap="round" stroke-linejoin="round"/><path d="M614.361 290.392s-3.545-6.407-9.974-5.493c-8.672 1.234-11.306 8.56-11.306 8.56" stroke="#2B2B2B" stroke-width="4.698" stroke-linecap="round" stroke-linejoin="round"/><path d="m559.256 294.223 17.481-2.147s1.456 22.321-5.671 23.089c-6.588.71-11.81-20.942-11.81-20.942Z" fill="#fff"/><path d="m559.256 294.223 17.481-2.147s1.456 22.321-5.671 23.089c-6.588.71-11.81-20.942-11.81-20.942Z" stroke="#2B2B2B" stroke-width="4.698" stroke-linecap="round" stroke-linejoin="round"/><path d="M444.002 295.073c2.548-1.889 4.544-1.239 5.936 1.261.705 1.267-.096 4.329-3.111 4.748-3.076.427-5.291-4.18-2.825-6.009ZM477.436 298.399c2.548-1.889 4.543-1.239 5.935 1.261.706 1.267-.096 4.329-3.111 4.748-3.076.427-5.291-4.18-2.824-6.009ZM481.198 255.391c2.547-1.889 4.543-1.239 5.935 1.261.705 1.267-.096 4.329-3.111 4.748-3.076.427-5.291-4.18-2.824-6.009ZM449.155 259.596c2.547-1.889 4.543-1.239 5.935 1.262.705 1.267-.096 4.328-3.111 4.747-3.076.427-5.291-4.18-2.824-6.009ZM447.691 284.56c1.357-1.006 2.42-.66 3.162.672.375.675-.052 2.306-1.657 2.529-1.639.228-2.819-2.227-1.505-3.201ZM457.441 290.255c1.16-.86 2.068-.564 2.702.574.321.577-.043 1.971-1.416 2.161-1.4.195-2.409-1.902-1.286-2.735ZM461.55 275.644c1.376-1.019 2.453-.668 3.205.681.38.684-.052 2.337-1.68 2.563-1.66.231-2.856-2.256-1.525-3.244ZM448.987 274.646c1.307-.969 2.332-.635 3.046.648.362.65-.05 2.221-1.597 2.436-1.578.219-2.715-2.145-1.449-3.084Z" fill="#AE54EC"/><path d="M480.042 193.555c2.547-1.889 4.543-1.239 5.935 1.262.705 1.267-.096 4.328-3.111 4.747-3.076.427-5.291-4.18-2.824-6.009ZM497.03 173.585c2.547-1.889 4.543-1.239 5.935 1.261.705 1.267-.096 4.329-3.111 4.747-3.076.427-5.291-4.18-2.824-6.008ZM481.096 217.762c2.548-1.889 4.544-1.239 5.935 1.262.706 1.267-.096 4.328-3.11 4.747-3.076.427-5.291-4.18-2.825-6.009ZM454.538 206.075c2.547-1.889 4.543-1.239 5.935 1.261.705 1.267-.096 4.329-3.111 4.748-3.076.427-5.291-4.18-2.824-6.009ZM462.818 194.09c1.127-.835 2.009-.547 2.625.558.312.561-.043 1.914-1.376 2.1-1.36.189-2.34-1.849-1.249-2.658ZM468.877 191.698c1.126-.835 2.009-.548 2.624.558.312.56-.042 1.914-1.376 2.099-1.36.189-2.339-1.848-1.248-2.657ZM462.669 197.485c1.127-.835 2.01-.548 2.625.558.312.56-.042 1.914-1.376 2.099-1.36.189-2.339-1.848-1.249-2.657ZM458.502 193.798c1.446-1.072 2.58-.703 3.37.716.401.719-.055 2.458-1.767 2.695-1.746.243-3.004-2.373-1.603-3.411Z" fill="#D8FF00"/><path d="M571.737 175.251c2.547-1.889 4.543-1.239 5.935 1.261.705 1.267-.096 4.329-3.111 4.747-3.076.427-5.291-4.18-2.824-6.008ZM588.065 187.659c2.548-1.889 4.543-1.239 5.935 1.261.705 1.267-.096 4.329-3.111 4.748-3.076.427-5.291-4.18-2.824-6.009ZM591.432 203.176c2.548-1.888 4.544-1.238 5.935 1.262.706 1.267-.096 4.328-3.111 4.747-3.075.427-5.291-4.18-2.824-6.009ZM624.03 198.553c2.547-1.888 4.543-1.239 5.935 1.262.705 1.267-.096 4.328-3.111 4.747-3.076.427-5.291-4.18-2.824-6.009ZM613.202 178.266c2.547-1.889 4.543-1.239 5.935 1.261.705 1.267-.096 4.329-3.111 4.748-3.076.427-5.291-4.18-2.824-6.009ZM600.419 183.884c1.201-.89 2.142-.584 2.798.595.332.597-.045 2.04-1.467 2.237-1.449.201-2.494-1.97-1.331-2.832Z" fill="#FF7B05"/><path d="M600.207 183.671c1.442-1.069 2.572-.701 3.36.714.399.717-.054 2.45-1.761 2.687-1.741.242-2.996-2.366-1.599-3.401Z" fill="#FF7B05"/><path d="M600.302 183.774c1.331-.987 2.374-.648 3.101.659.368.661-.05 2.262-1.626 2.481-1.607.223-2.765-2.184-1.475-3.14Z" fill="#FF7B05"/><path d="M600.311 183.791c1.317-.976 2.348-.64 3.067.652.365.654-.049 2.236-1.607 2.453-1.59.22-2.735-2.16-1.46-3.105Z" fill="#FF7B05"/><path d="M600.354 183.82c1.271-.942 2.266-.617 2.96.629.352.632-.048 2.159-1.551 2.368-1.534.213-2.639-2.085-1.409-2.997Z" fill="#FF7B05"/><path d="M637.471 175.059c2.548-1.889 4.544-1.239 5.935 1.261.706 1.267-.096 4.329-3.11 4.748-3.076.427-5.291-4.18-2.825-6.009ZM647.69 185.555c2.548-1.889 4.543-1.239 5.935 1.262.705 1.267-.096 4.328-3.111 4.747-3.076.427-5.291-4.18-2.824-6.009ZM655.733 204.842c2.548-1.888 4.543-1.238 5.935 1.262.705 1.267-.096 4.328-3.111 4.747-3.076.427-5.291-4.18-2.824-6.009ZM666.452 190.629c2.547-1.888 4.543-1.238 5.935 1.262.705 1.267-.096 4.329-3.111 4.747-3.076.427-5.291-4.18-2.824-6.009ZM675.725 178.692c2.548-1.889 4.544-1.239 5.935 1.261.706 1.267-.096 4.329-3.111 4.748-3.075.427-5.291-4.18-2.824-6.009ZM657.775 183.298c1.278-.947 2.278-.622 2.976.632.354.635-.048 2.17-1.559 2.38-1.543.214-2.654-2.095-1.417-3.012Z" fill="#16FDCE"/><path d="M657.862 183.406c1.165-.864 2.079-.567 2.716.577.322.58-.044 1.981-1.424 2.173-1.407.195-2.421-1.913-1.292-2.75Z" fill="#16FDCE"/><path d="M657.732 183.261c1.323-.981 2.36-.644 3.083.655.366.658-.051 2.248-1.616 2.466-1.598.222-2.749-2.171-1.467-3.121Z" fill="#16FDCE"/><path d="M657.786 183.318c1.258-.932 2.242-.611 2.929.623.348.625-.047 2.136-1.535 2.343-1.517.211-2.611-2.063-1.394-2.966Z" fill="#16FDCE"/><path d="M657.836 183.365c1.208-.895 2.154-.587 2.813.598.335.601-.045 2.052-1.474 2.25-1.458.203-2.508-1.981-1.339-2.848Z" fill="#16FDCE"/><path d="M690.627 204.708c2.548-1.889 4.544-1.239 5.936 1.261.705 1.267-.096 4.329-3.111 4.747-3.076.427-5.291-4.18-2.825-6.008ZM682.045 215.165c2.548-1.889 4.544-1.239 5.936 1.261.705 1.267-.096 4.329-3.111 4.747-3.076.427-5.291-4.18-2.825-6.008ZM666.335 217.54c2.547-1.889 4.543-1.239 5.935 1.261.705 1.267-.096 4.329-3.111 4.747-3.076.427-5.291-4.18-2.824-6.008ZM679.784 227.063c2.547-1.889 4.543-1.239 5.935 1.261.705 1.267-.096 4.329-3.111 4.748-3.076.427-5.291-4.18-2.824-6.009ZM687.889 243.651c2.548-1.889 4.544-1.239 5.935 1.261.706 1.267-.096 4.329-3.111 4.748-3.075.427-5.291-4.18-2.824-6.009ZM689.261 224.435c1.393-1.033 2.485-.677 3.246.69.386.693-.053 2.368-1.701 2.597-1.683.233-2.894-2.286-1.545-3.287Z" fill="#FF005A"/><path d="M689.43 224.634c1.17-.867 2.086-.568 2.726.58.324.582-.045 1.988-1.429 2.18-1.413.196-2.43-1.92-1.297-2.76Z" fill="#FF005A"/><path d="M689.286 224.462c1.36-1.008 2.426-.661 3.169.674.376.676-.051 2.311-1.661 2.534-1.642.228-2.825-2.232-1.508-3.208Z" fill="#FF005A"/><path d="M689.467 224.675c1.128-.836 2.012-.548 2.628.559.312.561-.042 1.917-1.377 2.102-1.362.189-2.343-1.851-1.251-2.661Z" fill="#FF005A"/><path d="M504.854 297.575c-10.322-13.294-27.503-18.285-31.722-9.658-4.347 8.885 17.945 6.782 29.579 31.284" fill="#fff"/><path d="M504.854 297.575c-10.322-13.294-27.503-18.285-31.722-9.658-4.347 8.885 17.945 6.782 29.579 31.284" stroke="#2B2B2B" stroke-width="6.265" stroke-linecap="round" stroke-linejoin="round"/><path d="M632.3 281.844c6.799-15.396 22.262-24.395 28.443-17.045 6.367 7.57-15.771 10.922-21.133 37.511" fill="#fff"/><path d="M632.3 281.844c6.799-15.396 22.262-24.395 28.443-17.045 6.367 7.57-15.771 10.922-21.133 37.511" stroke="#2B2B2B" stroke-width="6.265" stroke-linecap="round" stroke-linejoin="round"/><path fill="#fff" d="m639 199.549-5.04.619.618 5.041 5.042-.619z"/><path stroke="#627AF6" stroke-width="1.693" d="m639 199.549-5.04.619.618 5.041 5.042-.619z"/><path fill="#fff" d="m480.2 219.045-5.04.619.618 5.041 5.042-.619z"/><path stroke="#627AF6" stroke-width="1.693" d="m480.2 219.045-5.04.619.618 5.041 5.042-.619z"/><path fill="#fff" d="m658.404 357.512-5.042.619.62 5.041 5.04-.619z"/><path stroke="#627AF6" stroke-width="1.693" d="m658.404 357.512-5.042.619.62 5.041 5.04-.619z"/><circle cx="564.745" cy="343.499" r="2.54" fill="#627AF6"/><path stroke="#627AF6" stroke-width="1.693" d="m479.094 222.704 157.9-19.388 19.258 156.843-157.9 19.388z"/><circle cx="532.581" cy="197.893" r="2.54" fill="#627AF6"/><path d="m521.576 152.18 43.174 191.743 37.42 52.936" stroke="#627AF6" stroke-width="1.693" stroke-linejoin="round"/><circle cx="521.577" cy="152.18" r="2.54" fill="#627AF6"/></g><rect x="24.606" y="11.606" width="1090.79" height="609.001" rx="19.394" stroke="#fff" stroke-opacity=".5" stroke-width="6.788" shape-rendering="crispEdges"/></g><defs><linearGradient id="l" x1="60.751" y1="51.422" x2="68.074" y2="51.232" gradientUnits="userSpaceOnUse"><stop stop-color="#F38844"/><stop offset=".27" stop-color="#EE3183"/><stop offset=".796" stop-color="#FEB82A"/><stop offset="1" stop-color="#635AA7"/></linearGradient><linearGradient id="m" x1="65.711" y1="50.453" x2="69.87" y2="48.112" gradientUnits="userSpaceOnUse"><stop stop-color="#7A6FFB"/><stop offset="1" stop-color="#FF5367"/></linearGradient><linearGradient id="n" x1="65.198" y1="39.789" x2="64.538" y2="49.871" gradientUnits="userSpaceOnUse"><stop stop-color="#7B7E92"/><stop offset="1" stop-color="#8E93A9"/></linearGradient><linearGradient id="o" x1="60.751" y1="51.424" x2="68.075" y2="51.234" gradientUnits="userSpaceOnUse"><stop stop-color="#F38844"/><stop offset=".27" stop-color="#EE3183"/><stop offset=".796" stop-color="#FEB82A"/><stop offset="1" stop-color="#635AA7"/></linearGradient><linearGradient id="p" x1="65.629" y1="39.646" x2="60.553" y2="40.717" gradientUnits="userSpaceOnUse"><stop stop-color="#FE5366"/><stop offset="1" stop-color="#FCBD03"/></linearGradient><linearGradient id="q" x1="65.629" y1="39.646" x2="60.437" y2="39.999" gradientUnits="userSpaceOnUse"><stop stop-color="#FDB729"/><stop offset="1" stop-color="#EE3183"/></linearGradient><linearGradient id="r" x1="65.539" y1="39.795" x2="63.41" y2="39.579" gradientUnits="userSpaceOnUse"><stop stop-color="#7B7E92"/><stop offset="1" stop-color="#9095AF"/></linearGradient><linearGradient id="s" x1="60.757" y1="51.422" x2="68.081" y2="51.232" gradientUnits="userSpaceOnUse"><stop stop-color="#F38844"/><stop offset=".27" stop-color="#EE3183"/><stop offset=".796" stop-color="#FEB82A"/><stop offset="1" stop-color="#635AA7"/></linearGradient><linearGradient id="t" x1="64.854" y1="52.15" x2="69.176" y2="53.241" gradientUnits="userSpaceOnUse"><stop stop-color="#7B70FC"/><stop offset="1" stop-color="#16AAF3"/></linearGradient><linearGradient id="u" x1="64.341" y1="50.997" x2="67.287" y2="52.967" gradientUnits="userSpaceOnUse"><stop stop-color="#8253A2"/><stop offset="1" stop-color="#31BBFB"/></linearGradient><linearGradient id="v" x1="72.794" y1="44.553" x2="67.668" y2="42.969" gradientUnits="userSpaceOnUse"><stop stop-color="#FFB92A"/><stop offset=".723" stop-color="#EE3183"/><stop offset="1" stop-color="#A45BD3"/></linearGradient><linearGradient id="w" x1="65.122" y1="49.284" x2="67.102" y2="52.453" gradientUnits="userSpaceOnUse"><stop stop-color="#8E93A9"/><stop offset="1" stop-color="#7B7F92"/></linearGradient><clipPath id="b"><rect x="58.335" y="85.433" width="178.295" height="23.773" rx="5.943" fill="#fff"/></clipPath><clipPath id="c"><rect x="58.335" y="109.205" width="178.295" height="23.773" rx="5.938" fill="#fff"/></clipPath><clipPath id="d"><rect x="58.335" y="132.978" width="178.295" height="23.773" rx="5.938" fill="#fff"/></clipPath><clipPath id="e"><rect x="58.335" y="156.751" width="178.295" height="23.773" rx="9.012" fill="#fff"/></clipPath><clipPath id="f"><rect x="58.335" y="180.523" width="178.295" height="23.773" rx="9.012" fill="#fff"/></clipPath><clipPath id="g"><path fill="#fff" transform="translate(58.335 204.296)" d="M0 0h178.295v23.773H0z"/></clipPath><clipPath id="h"><path fill="#fff" transform="translate(58.335 228.069)" d="M0 0h178.295v23.773H0z"/></clipPath><clipPath id="i"><path fill="#fff" transform="translate(58.335 251.841)" d="M0 0h178.295v23.773H0z"/></clipPath><clipPath id="j"><path fill="#fff" transform="translate(58.335 275.614)" d="M0 0h178.295v23.773H0z"/></clipPath><clipPath id="x"><path fill="#fff" transform="translate(413.814 133.582)" d="M0 0h311.529v311.529H0z"/></clipPath><filter id="a" x="-33.094" y="-46.095" width="1206.19" height="724.402" filterUnits="userSpaceOnUse" color-interpolation-filters="sRGB"><feFlood flood-opacity="0" result="BackgroundImageFix"/><feGaussianBlur in="BackgroundImage" stdDeviation="27.153"/><feComposite in2="SourceAlpha" operator="in" result="effect1_backgroundBlur_1497_15510"/><feColorMatrix in="SourceAlpha" values="0 0 0 0 0 0 0 0 0 0 0 0 0 0 0 0 0 0 127 0" result="hardAlpha"/><feOffset dy="12.698"/><feGaussianBlur stdDeviation="10.159"/><feComposite in2="hardAlpha" operator="out"/><feColorMatrix values="0 0 0 0 0.564706 0 0 0 0 0.584314 0 0 0 0 0.686275 0 0 0 0.05 0"/><feBlend in2="effect1_backgroundBlur_1497_15510" result="effect2_dropShadow_1497_15510"/><feBlend in="SourceGraphic" in2="effect2_dropShadow_1497_15510" result="shape"/></filter><filter id="k" x="23.645" y="7.769" width="1085.77" height="82.526" filterUnits="userSpaceOnUse" color-interpolation-filters="sRGB"><feFlood flood-opacity="0" result="BackgroundImageFix"/><feGaussianBlur in="BackgroundImage" stdDeviation="4.588"/><feComposite in2="SourceAlpha" operator="in" result="effect1_backgroundBlur_1497_15510"/><feColorMatrix in="SourceAlpha" values="0 0 0 0 0 0 0 0 0 0 0 0 0 0 0 0 0 0 127 0" result="hardAlpha"/><feOffset dy="3.337"/><feGaussianBlur stdDeviation="10.428"/><feComposite in2="hardAlpha" operator="out"/><feColorMatrix values="0 0 0 0 0.7875 0 0 0 0 0.7875 0 0 0 0 0.7875 0 0 0 0.2 0"/><feBlend in2="effect1_backgroundBlur_1497_15510" result="effect2_dropShadow_1497_15510"/><feBlend in="SourceGraphic" in2="effect2_dropShadow_1497_15510" result="shape"/></filter></defs></svg>