<svg width="1440" height="460" fill="none" xmlns="http://www.w3.org/2000/svg"><g clip-path="url(#a)"><path fill="#fff" d="M0 0h1440v460H0z"/><path d="M1350.99-649.455c-290.47-34.787-334.71 939.587-134.1 1214.85" stroke="url(#b)" stroke-width="958.39" stroke-linecap="round" stroke-linejoin="round"/><path d="M401.989-649.455C111.52-684.242 67.279 290.132 267.888 565.395" stroke="url(#c)" stroke-width="958.39" stroke-linecap="round" stroke-linejoin="round"/><path d="M-117.095 628.591C702.782 810.281 971.009 22.774 999.51-132.138" stroke="url(#d)" stroke-width="468.39" stroke-linecap="round" stroke-linejoin="round"/><path d="M467 729.001c765.38-20.835 876.34-930.703 692.31-1031.662" stroke="url(#e)" stroke-width="588.39" stroke-linecap="round" stroke-linejoin="round"/></g><defs><linearGradient id="b" x1="3057.29" y1="721.814" x2="3212.37" y2="-310.659" gradientUnits="userSpaceOnUse"><stop stop-color="#A45BD3"/><stop offset=".267" stop-color="#EE3183"/><stop offset="1" stop-color="#FFB92A"/></linearGradient><linearGradient id="c" x1="2108.29" y1="721.814" x2="2263.37" y2="-310.659" gradientUnits="userSpaceOnUse"><stop stop-color="#A45BD3"/><stop offset=".267" stop-color="#EE3183"/><stop offset="1" stop-color="#FFB92A"/></linearGradient><linearGradient id="d" x1="916.992" y1="-102.538" x2="467.508" y2="-227.952" gradientUnits="userSpaceOnUse"><stop stop-color="#FFB92A"/><stop offset=".723" stop-color="#EE3183"/><stop offset="1" stop-color="#A45BD3"/></linearGradient><linearGradient id="e" x1="1076.07" y1="-347.826" x2="512.951" y2="-486.439" gradientUnits="userSpaceOnUse"><stop stop-color="#FDB729"/><stop offset="1" stop-color="#EE3183"/></linearGradient><clipPath id="a"><path fill="#fff" d="M0 0h1440v460H0z"/></clipPath></defs></svg>