<svg width="49" height="48" viewBox="0 0 49 48" fill="none" xmlns="http://www.w3.org/2000/svg">
<path d="M24.2505 41.2124C33.7994 41.2124 41.5403 33.4715 41.5403 23.9226C41.5403 14.3737 33.7994 6.63281 24.2505 6.63281C14.7016 6.63281 6.96069 14.3737 6.96069 23.9226C6.96069 33.4715 14.7016 41.2124 24.2505 41.2124Z" fill="#BBBBBB"/>
<path d="M29.3262 21.8691L27.7593 26.8075C27.7593 26.4293 26.6787 18.2383 26.6787 18.2383C24.1933 18.2383 22.8749 19.9997 22.1833 21.8691L20.2707 26.8183C20.2707 26.4617 20.0005 21.9124 20.0005 21.9124C19.9082 20.9275 19.458 20.0107 18.7351 19.3356C18.0122 18.6604 17.0667 18.2739 16.0779 18.2491L18.1094 30.6545C20.7029 30.6545 22.1077 28.8931 22.8317 27.0237L24.4526 22.8093C24.4526 22.9822 25.5332 30.6545 25.5332 30.6545C26.5937 30.6531 27.6262 30.3141 28.4811 29.6865C29.336 29.059 29.9689 28.1755 30.2879 27.1641L33.962 18.2383C31.3685 18.2383 30.007 19.9997 29.3154 21.8691H29.3262Z" fill="white"/>
</svg>
